<svg width="496" height="108" viewBox="0 0 496 108" fill="none" xmlns="http://www.w3.org/2000/svg">
<g clip-path="url(#clip0_270_2271)">
<path d="M4.18988 4.94883C4.18988 2.84218 5.13709 1.79443 7.04264 1.79443H68.2542C70.2489 1.79443 70.7058 2.7976 69.6026 4.79279L14.3862 100.851C13.283 102.858 13.7399 103.805 15.7346 103.705C27.3351 103.103 44.6967 100.807 67.7973 96.8054C70.0929 96.3038 71.2518 97.006 71.2518 98.9009V103.549C71.2518 105.644 70.2489 106.703 68.2542 106.703H1.93888C-0.0669574 106.703 -0.5127 105.7 0.590513 103.705L55.8069 6.75453C56.6092 5.3501 55.9072 4.64788 53.7007 4.64788C42.9918 4.44725 27.6917 6.35327 7.78925 10.3548C5.39339 10.8564 4.18988 10.2099 4.18988 8.40418V4.94883Z" fill="#9B8256" fill-opacity="0.15"/>
<path d="M120.685 23.4071H129.388C133.89 23.9087 137.891 25.1125 141.39 27.0074C146.192 29.6156 149.19 33.1601 150.394 37.6632C150.895 39.168 151.241 40.918 151.441 42.9131V103.549C151.441 105.644 150.438 106.703 148.443 106.703H145.747C143.652 106.703 142.593 106.202 142.593 105.199C142.593 104.195 141.59 104.051 139.595 104.753C135.495 106.258 130.491 107.25 124.596 107.751C121.197 108.353 117.197 107.751 112.595 105.945C108.594 104.641 104.794 101.844 101.195 97.5411C96.091 90.9425 93.8957 84.0318 94.5978 76.8313C94.9989 72.6292 95.8459 68.6276 97.1497 64.8267C98.8435 60.424 101.953 56.3779 106.455 52.6661C110.455 49.8684 114.456 48.1185 118.456 47.4162C123.961 46.6137 128.508 46.4131 132.107 46.8143C134.603 47.2156 137.11 47.9178 139.607 48.921C141.601 49.9242 142.604 49.6232 142.604 48.0181C142.404 44.0166 141.702 40.16 140.509 36.4594C139.306 32.3576 136.308 29.3035 131.505 27.3083C126 26.0042 121.699 26.06 118.601 27.4532C114.3 29.0583 111.547 32.5025 110.344 37.8081C110.143 39.8145 109.04 40.8065 107.045 40.8065H103.747C101.741 40.8065 100.849 39.8033 101.05 37.8081C101.652 33.305 104.348 29.6491 109.151 26.8513C112.45 24.9565 116.305 23.7973 120.707 23.396L120.685 23.4071ZM124.886 49.2219C119.08 49.3223 114.277 52.0754 110.477 57.4813C106.577 63.5895 104.828 70.3442 105.229 77.7453C105.028 82.75 105.775 87.2531 107.48 91.2546C109.675 96.0587 112.829 99.7146 116.929 102.211C120.83 103.917 124.585 104.864 128.184 105.065C130.881 105.366 134.882 104.363 140.186 102.066C141.78 101.164 142.582 99.9153 142.582 98.3102V56.4336C142.582 54.8285 141.579 53.3795 139.584 52.0865C134.982 49.6901 130.079 48.7315 124.875 49.2331L124.886 49.2219Z" fill="#9B8256" fill-opacity="0.15"/>
<path d="M200.261 23.4073C213.466 23.307 221.122 30.6078 223.217 45.3209C224.721 54.628 225.768 62.6311 226.37 69.33C226.872 75.7391 228.175 83.7421 230.27 93.3391C230.973 97.0396 232.165 100.54 233.87 103.85C235.274 105.756 234.973 106.703 232.967 106.703H225.011C223.005 106.703 221.712 105.7 221.11 103.705C219.305 95.7021 218.057 87.6433 217.355 79.54C216.854 66.9335 215.906 54.929 214.502 43.5152C214.201 39.614 212.898 35.6125 210.602 31.5106C207.404 27.4088 202.946 25.7034 197.252 26.4056C193.252 26.8069 189.752 28.2113 186.744 30.6078C184.838 32.2128 183.891 33.8068 183.891 35.4118V103.549C183.891 105.645 182.888 106.703 180.893 106.703H178.197C176.102 106.703 175.043 105.7 175.043 103.705V28.8132C175.043 26.818 176.046 25.8149 178.041 25.8149H180.893C182.888 25.8149 183.891 26.4614 183.891 27.7655C183.891 29.1699 184.894 29.2145 186.889 27.9104C190.789 25.5139 195.235 24.0092 200.239 23.4073H200.261Z" fill="#9B8256" fill-opacity="0.15"/>
<path d="M292.307 4.648C298.313 1.9506 305.211 0.401266 313.012 0H324.267C325.971 0.200633 327.721 0.546168 329.515 1.04775C331.51 1.54933 332.513 2.79772 332.513 4.80405V11.7036C332.513 13.7099 331.61 13.7099 329.816 11.7036C325.615 8.00303 319.865 5.35022 312.566 3.74515C308.766 3.24357 304.164 3.70057 298.759 5.09385C290.056 7.69094 283.548 13.944 279.258 23.8531C274.655 33.7621 272.449 44.2619 272.661 55.3748C272.059 65.3841 274.165 75.2374 278.968 84.9459C284.373 97.5523 293.076 104.552 305.077 105.957C308.476 106.559 313.078 105.812 318.884 103.705C320.478 102.903 321.28 101.71 321.28 100.105V31.2208C321.28 29.2256 322.283 28.2224 324.278 28.2224H329.526C331.521 28.2224 332.524 29.2256 332.524 31.2208V97.7084C332.524 99.7147 331.521 101.309 329.526 102.512C321.726 106.614 313.324 108.364 304.32 107.762C295.516 107.16 287.515 104.463 280.316 99.659C276.717 97.3628 273.017 93.7514 269.217 88.8582C263.913 81.4571 260.759 73.454 259.768 64.8491C258.765 54.7394 259.968 44.9418 263.367 35.4341C264.972 31.1316 267.067 27.1301 269.674 23.4295C276.472 14.1223 284.027 7.86928 292.329 4.67029L292.307 4.648Z" fill="#9B8256" fill-opacity="0.15"/>
<path d="M381.946 23.4071H390.649C395.151 23.9087 399.151 25.1125 402.65 27.0074C407.453 29.6156 410.451 33.1601 411.654 37.6632C412.156 39.168 412.501 40.918 412.702 42.9131V103.549C412.702 105.644 411.699 106.703 409.704 106.703H407.007C404.912 106.703 403.854 106.202 403.854 105.199C403.854 104.195 402.851 104.051 400.856 104.753C396.755 106.258 391.752 107.25 385.857 107.751C382.458 108.353 378.458 107.751 373.855 105.945C369.855 104.641 366.055 101.844 362.456 97.5411C357.352 90.9425 355.156 84.0318 355.859 76.8313C356.26 72.6292 357.107 68.6276 358.41 64.8267C360.104 60.424 363.213 56.3779 367.715 52.6661C371.716 49.8684 375.716 48.1185 379.717 47.4162C385.222 46.6137 389.768 46.4131 393.368 46.8143C395.864 47.2156 398.371 47.9178 400.867 48.921C402.862 49.9242 403.865 49.6232 403.865 48.0181C403.664 44.0166 402.962 40.16 401.77 36.4594C400.567 32.3576 397.569 29.3035 392.766 27.3083C387.261 26.0042 382.96 26.06 379.862 27.4532C375.56 29.0583 372.808 32.5025 371.604 37.8081C371.404 39.8145 370.301 40.8065 368.306 40.8065H365.007C363.002 40.8065 362.11 39.8033 362.311 37.8081C362.912 33.305 365.609 29.6491 370.412 26.8513C373.711 24.9565 377.566 23.7973 381.968 23.396L381.946 23.4071ZM386.147 49.2219C380.341 49.3223 375.538 52.0754 371.738 57.4813C367.838 63.5895 366.088 70.3442 366.489 77.7453C366.289 82.75 367.036 87.2531 368.74 91.2546C370.936 96.0587 374.089 99.7146 378.19 102.211C382.09 103.917 385.846 104.864 389.445 105.065C392.142 105.366 396.143 104.363 401.447 102.066C403.04 101.164 403.843 99.9153 403.843 98.3102V56.4336C403.843 54.8285 402.84 53.3795 400.845 52.0865C396.243 49.6901 391.34 48.7315 386.136 49.2331L386.147 49.2219Z" fill="#9B8256" fill-opacity="0.15"/>
<path d="M461.522 23.4073C474.727 23.307 482.383 30.6078 484.478 45.3209C485.982 54.628 487.029 62.6311 487.631 69.33C488.133 75.7391 489.436 83.7421 491.531 93.3391C492.234 97.0396 493.426 100.54 495.131 103.85C496.535 105.756 496.234 106.703 494.228 106.703H486.272C484.266 106.703 482.973 105.7 482.371 103.705C480.566 95.7021 479.318 87.6433 478.616 79.54C478.115 66.9335 477.167 54.929 475.763 43.5152C475.462 39.614 474.159 35.6125 471.863 31.5106C468.665 27.4088 464.207 25.7034 458.513 26.4056C454.513 26.8069 451.013 28.2113 448.005 30.6078C446.099 32.2128 445.152 33.8068 445.152 35.4118V103.549C445.152 105.645 444.149 106.703 442.154 106.703H439.458C437.363 106.703 436.304 105.7 436.304 103.705V28.8132C436.304 26.818 437.307 25.8149 439.302 25.8149H442.154C444.149 25.8149 445.152 26.4614 445.152 27.7655C445.152 29.1699 446.155 29.2145 448.15 27.9104C452.05 25.5139 456.496 24.0092 461.5 23.4073H461.522Z" fill="#9B8256" fill-opacity="0.15"/>
</g>
<defs>
<clipPath id="clip0_270_2271">
<rect width="496" height="107.985" fill="white"/>
</clipPath>
</defs>
</svg>
