<svg width="179" height="267" viewBox="0 0 179 267" fill="none" xmlns="http://www.w3.org/2000/svg">
<path d="M89.4662 266.302C40.1295 266.302 0 226.104 0 176.692V89.6099C0 40.1987 40.1295 0 89.4662 0C138.803 0 178.922 40.1987 178.922 89.6099V176.692C178.922 226.104 138.792 266.302 89.4662 266.302ZM89.4662 5.05576C42.9194 5.05576 5.04706 42.9887 5.04706 89.6099V176.692C5.04706 223.315 42.9194 261.247 89.4662 261.247C136.013 261.247 173.875 223.314 173.875 176.692V89.6099C173.875 42.9875 136.013 5.05576 89.4662 5.05576Z" fill="#9B8256" fill-opacity="0.3"/>
<path d="M89.4663 251.787C48.1348 251.787 14.5002 218.1 14.5002 176.691V89.6098C14.5002 48.2011 48.1336 14.5145 89.4663 14.5145C130.799 14.5145 164.432 48.2011 164.432 89.6098V176.692C164.432 218.101 130.799 251.788 89.4663 251.788V251.787ZM89.4663 19.5703C50.9141 19.5703 19.5473 50.9912 19.5473 89.6098V176.692C19.5473 215.311 50.9141 246.732 89.4663 246.732C128.019 246.732 159.385 215.311 159.385 176.692V89.6098C159.385 50.9912 128.019 19.5703 89.4663 19.5703Z" fill="#9B8256" fill-opacity="0.3"/>
<path d="M150.728 186.311C150.446 183.944 150.254 181.357 150.154 178.556C149.811 178.534 149.418 178.533 148.955 178.55C148.504 178.569 148.082 178.646 147.694 178.777C147.153 178.959 146.689 179.233 146.316 179.597C145.949 179.954 145.745 180.411 145.707 180.967C145.747 183.183 145.61 185.015 145.298 186.474C144.979 187.929 144.37 189.184 143.45 190.237C142.537 191.288 141.269 192.221 139.665 193.036C138.067 193.847 135.908 194.709 133.198 195.624L107.288 204.371L137.891 134.062C137.961 133.878 137.889 133.661 137.917 133.468C137.951 133.434 138.038 133.399 138.067 133.364C138.417 132.921 138.612 132.399 138.65 131.796L139.732 113.94C139.812 112.605 140.273 111.565 141.131 110.821C141.982 110.085 143.458 109.442 145.559 108.909C145.884 108.802 146.171 108.611 146.415 108.346C146.654 108.086 146.799 107.621 146.84 106.95C146.865 106.549 146.833 106.019 146.739 105.372C145.105 105.714 143.195 106.076 141.008 106.461C138.821 106.841 136.882 107.141 135.187 107.36C133.492 107.579 131.513 107.786 129.24 107.981C126.969 108.17 124.891 108.325 123.011 108.437C122.845 108.987 122.749 109.534 122.716 110.066C122.691 110.468 122.769 110.856 122.937 111.231C123.11 111.607 123.455 111.797 123.97 111.796C126.425 111.811 128.152 112.1 129.146 112.669C130.146 113.237 130.594 114.421 130.485 116.228L129.556 131.573C128.227 132.144 126.597 132.686 124.661 133.203C122.721 133.72 120.809 134.098 118.922 134.342C115.211 134.822 111.824 134.495 108.758 133.367C105.692 132.237 103.091 130.415 100.952 127.907C98.8122 125.394 97.1914 122.289 96.0905 118.579C94.9884 114.875 94.5826 110.714 94.8625 106.1C95.1013 102.152 95.8423 98.4265 97.0891 94.9142C98.3358 91.4019 100.058 88.2914 102.254 85.5874C104.454 82.8786 107.16 80.6212 110.372 78.8114C113.579 77.0075 117.268 75.834 121.433 75.2956C126.64 74.6228 130.586 75.0776 133.27 76.6552C135.949 78.2329 137.743 81.1832 138.643 85.5143C138.848 86.3485 139.473 86.6984 140.515 86.5641C140.777 86.53 141.106 86.4557 141.5 86.3391C141.894 86.2224 142.156 86.0905 142.299 85.9361C141.856 83.6068 141.534 81.2126 141.328 78.749C141.122 76.2853 141.022 73.8947 141.036 71.5712C138.984 71.3026 137.076 71.1023 135.307 70.9656C133.538 70.8289 131.788 70.7394 130.045 70.7029C128.302 70.6616 126.539 70.7029 124.759 70.836C122.969 70.9691 121.106 71.1612 119.149 71.4133C111.626 72.3854 104.417 75.8458 98.0912 80.27C87.4983 87.6787 81.9396 99.8769 81.3186 110.123C81.2104 111.899 81.1892 113.666 81.2727 115.401C79.9436 116.133 78.4216 116.836 76.5103 117.481L58.5368 124.814L88.5169 55.0207C88.7157 54.4822 88.7216 53.8036 88.524 52.9941L43.7897 68.0966C41.3091 68.9343 39.1202 69.5906 37.2242 70.0584C35.3293 70.532 33.6438 71.0174 32.1736 71.5135C30.6222 72.0378 29.96 72.9368 30.1881 74.2081C30.3857 75.695 30.6233 77.6226 30.9139 79.9932C31.1961 82.3602 31.389 84.9464 31.4878 87.7471C31.8313 87.7706 32.2241 87.7706 32.6876 87.7529C33.1369 87.7341 33.5591 87.6587 33.9473 87.5267C34.4883 87.3441 34.9517 87.0708 35.3246 86.7067C35.6916 86.3497 35.8974 85.8925 35.9339 85.3364C35.8951 83.1202 36.0315 81.2868 36.3432 79.8294C36.6619 78.3743 37.2712 77.1195 38.191 76.0661C39.1049 75.014 40.3717 74.082 41.976 73.2679C43.5756 72.4561 45.7328 71.5948 48.4427 70.6793L74.3532 61.9322L43.7497 132.242C43.6803 132.425 43.752 132.642 43.7238 132.834C43.6897 132.868 43.6027 132.904 43.5744 132.938C43.2239 133.381 43.0287 133.903 42.9922 134.507L41.9101 152.363C41.829 153.698 41.3679 154.739 40.5116 155.481C39.6601 156.217 38.1839 156.861 36.0832 157.393C35.7586 157.5 35.4716 157.69 35.227 157.956C34.9882 158.215 34.8435 158.681 34.8024 159.351C34.7777 159.752 34.8094 160.282 34.9023 160.929C36.5361 160.587 38.4462 160.226 40.634 159.839C42.8205 159.459 44.7589 159.159 46.4549 158.94C48.1498 158.721 50.1306 158.515 52.4018 158.319C54.673 158.129 56.7514 157.975 58.6298 157.863C58.7956 157.313 58.8921 156.766 58.925 156.234C58.9497 155.833 58.8721 155.444 58.7039 155.07C58.531 154.694 58.1863 154.504 57.6723 154.505C55.2176 154.49 53.4886 154.201 52.4947 153.632C51.495 153.063 51.0468 151.879 51.1562 150.073L52.0854 134.726C53.4145 134.157 55.0447 133.614 56.9796 133.097C58.9203 132.58 60.8316 132.201 62.7194 131.958C66.4303 131.478 69.8166 131.803 72.8829 132.933C75.9493 134.063 78.5498 135.885 80.6893 138.393C82.8288 140.906 84.4496 144.011 85.5506 147.721C86.6515 151.427 87.0584 155.586 86.7785 160.2C86.5386 164.149 85.7987 167.873 84.5508 171.386C83.304 174.899 81.5821 178.01 79.3861 180.713C77.1854 183.422 74.4802 185.679 71.268 187.488C68.0605 189.292 64.372 190.467 60.207 191.004C55 191.677 51.0539 191.222 48.3698 189.646C45.6904 188.068 43.8967 185.118 42.9969 180.787C42.7934 179.953 42.1665 179.603 41.1244 179.737C40.8633 179.771 40.534 179.845 40.1399 179.962C39.7459 180.079 39.4836 180.211 39.3413 180.365C39.7847 182.694 40.1058 185.088 40.3117 187.552C40.5175 190.016 40.6175 192.406 40.6034 194.729C42.6558 194.998 44.5636 195.199 46.3326 195.334C48.1016 195.471 49.8518 195.562 51.5949 195.597C53.3381 195.638 55.1012 195.597 56.8808 195.464C58.6709 195.331 60.534 195.14 62.4912 194.887C70.0142 193.915 77.2231 190.454 83.5487 186.03C94.1415 178.621 99.7002 166.424 100.321 156.177C100.429 154.4 100.451 152.634 100.367 150.899C101.696 150.167 103.218 149.464 105.13 148.818L123.103 141.486L93.1229 211.279C92.9241 211.818 92.9183 212.496 93.1159 213.307L137.85 198.203C140.331 197.366 142.52 196.71 144.416 196.242C146.311 195.768 147.996 195.282 149.466 194.786C151.018 194.262 151.68 193.362 151.452 192.091C151.254 190.605 151.016 188.677 150.726 186.307L150.728 186.311ZM57.8335 128.714L80.0083 120.455C80.6482 120.239 81.1904 120.121 81.8102 119.926C82.4525 123.245 83.6804 126.356 85.8634 129.054C86.3892 129.705 87.022 130.21 87.6007 130.79C79.4132 126.71 68.7274 126.573 57.8335 128.714ZM101.636 145.849C100.996 146.064 100.454 146.183 99.8343 146.379C99.1921 143.06 97.9641 139.948 95.7811 137.25C95.2554 136.6 94.6226 136.094 94.0439 135.515C102.231 139.596 112.918 139.73 123.813 137.589L101.637 145.849H101.636Z" fill="#9B8256" fill-opacity="0.3"/>
</svg>
