<svg width="64" height="28" viewBox="0 0 64 28" fill="none" xmlns="http://www.w3.org/2000/svg">
<path d="M63.1549 14C63.1549 21.4939 57.0799 27.569 49.5859 27.569C42.092 27.569 36.017 21.4939 36.017 14C36.017 6.50607 42.092 0.431035 49.5859 0.431035C57.0799 0.431035 63.1549 6.50607 63.1549 14Z" fill="#E5E7EB" stroke="white" stroke-width="0.862069"/>
<path d="M47.2147 18.6665C46.8814 18.6665 46.5522 18.6429 46.2269 18.5957C45.9016 18.5485 45.5863 18.4796 45.2808 18.3892C44.9754 18.2987 44.6798 18.1866 44.3942 18.0529C44.1086 17.9192 43.8388 17.7658 43.585 17.5927C43.6722 17.6084 43.7615 17.6183 43.8527 17.6222C43.944 17.6261 44.0412 17.6281 44.1443 17.6281C44.6997 17.6281 45.2273 17.5396 45.7271 17.3626C46.2269 17.1856 46.6831 16.9398 47.0957 16.6252C46.572 16.6173 46.1079 16.46 45.7033 16.1532C45.2987 15.8464 45.021 15.461 44.8702 14.9968C44.9416 15.0126 45.015 15.0244 45.0904 15.0322C45.1658 15.0401 45.2431 15.044 45.3225 15.044C45.4256 15.044 45.5307 15.0362 45.6378 15.0204C45.7449 15.0047 45.8461 14.985 45.9413 14.9614C45.4018 14.8513 44.9516 14.5819 44.5906 14.1532C44.2296 13.7245 44.0491 13.223 44.0491 12.6488C44.0491 12.6488 44.0491 12.6468 44.0491 12.6429C44.0491 12.6389 44.0491 12.633 44.0491 12.6252C44.2078 12.7117 44.3764 12.7805 44.5549 12.8317C44.7334 12.8828 44.9218 12.9123 45.1201 12.9202C44.7949 12.7078 44.537 12.4305 44.3466 12.0883C44.1562 11.7461 44.061 11.3705 44.061 10.9614C44.061 10.7412 44.0868 10.5327 44.1383 10.3361C44.1899 10.1394 44.2673 9.95457 44.3704 9.78151C44.664 10.1355 44.9932 10.458 45.3582 10.7491C45.7152 11.0401 46.102 11.2899 46.5185 11.4983C46.935 11.7068 47.3733 11.8739 47.8335 11.9998C48.3016 12.1257 48.7816 12.1965 49.2735 12.2122C49.2576 12.1335 49.2437 12.049 49.2318 11.9585C49.2199 11.868 49.214 11.7756 49.214 11.6812C49.214 11.3587 49.2735 11.0558 49.3925 10.7727C49.5194 10.4816 49.69 10.2299 49.9042 10.0175C50.1184 9.80511 50.3723 9.63598 50.6659 9.51012C50.9515 9.39213 51.2569 9.33313 51.5822 9.33313C51.9234 9.33313 52.2427 9.39999 52.5402 9.53372C52.8377 9.66745 53.0976 9.84837 53.3197 10.0765C53.5895 10.0293 53.8513 9.95653 54.1052 9.8582C54.359 9.75987 54.601 9.64385 54.8311 9.51012C54.7359 9.78544 54.5971 10.0352 54.4146 10.2594C54.2321 10.4836 54.0219 10.6704 53.7838 10.8199C54.0219 10.7884 54.2559 10.7412 54.486 10.6783C54.7161 10.6153 54.9342 10.5367 55.1405 10.4423C54.9818 10.6783 54.8033 10.8985 54.605 11.103C54.4066 11.3076 54.1924 11.4924 53.9623 11.6576C53.9703 11.7048 53.9743 11.7559 53.9743 11.811C53.9743 11.8661 53.9743 11.9172 53.9743 11.9644C53.9743 12.7432 53.8275 13.5298 53.5339 14.3243C53.2404 15.1188 52.808 15.8385 52.2368 16.4836C51.6655 17.1286 50.9594 17.6556 50.1184 18.0647C49.2774 18.4659 48.3095 18.6665 47.2147 18.6665Z" fill="#0C111A"/>
<path d="M27.569 14C27.569 21.4939 21.4939 27.569 14 27.569C6.50607 27.569 0.431035 21.4939 0.431035 14C0.431035 6.50607 6.50607 0.431035 14 0.431035C21.4939 0.431035 27.569 6.50607 27.569 14Z" fill="#E5E7EB" stroke="white" stroke-width="0.862069"/>
<path d="M15.133 10.8456C15.0174 10.8456 14.9188 10.8866 14.8372 10.9686C14.7556 11.0507 14.7148 11.1498 14.7148 11.2661V12.2609C14.7148 12.2883 14.7233 12.3122 14.7403 12.3327C14.7573 12.3532 14.7828 12.3635 14.8168 12.3635H16.3468C16.4624 12.3635 16.561 12.4045 16.6426 12.4866C16.7242 12.5686 16.765 12.6678 16.765 12.784V13.8199C16.765 13.9362 16.7242 14.0353 16.6426 14.1173C16.561 14.1994 16.4624 14.2404 16.3468 14.2404H14.827C14.793 14.2404 14.7675 14.2507 14.7505 14.2712C14.7335 14.2917 14.725 14.3191 14.725 14.3532V17.8712C14.725 17.9874 14.6842 18.0866 14.6026 18.1686C14.521 18.2507 14.4224 18.2917 14.3068 18.2917H13.2663C13.1575 18.2917 13.0606 18.2507 12.9756 18.1686C12.8906 18.0866 12.8481 17.9874 12.8481 17.8712V14.3532C12.8481 14.3191 12.8396 14.2917 12.8226 14.2712C12.8056 14.2507 12.7801 14.2404 12.7461 14.2404H11.5833C11.4676 14.2404 11.369 14.1994 11.2874 14.1173C11.2058 14.0353 11.165 13.9362 11.165 13.8199V12.784C11.165 12.6678 11.2058 12.5686 11.2874 12.4866C11.369 12.4045 11.4676 12.3635 11.5833 12.3635H12.7461C12.7801 12.3635 12.8056 12.3532 12.8226 12.3327C12.8396 12.3122 12.8481 12.2883 12.8481 12.2609V10.8353C12.8481 10.3156 13.03 9.87291 13.3938 9.50709C13.7576 9.14128 14.1979 8.95837 14.7148 8.95837H16.3366C16.4522 8.95837 16.5508 8.9994 16.6324 9.08145C16.714 9.1635 16.7548 9.26265 16.7548 9.37889V10.425C16.7548 10.5413 16.714 10.6404 16.6324 10.7225C16.5508 10.8045 16.4522 10.8456 16.3366 10.8456H15.133Z" fill="#0C111A"/>
</svg>
