<svg width="179" height="298" viewBox="0 0 179 298" fill="none" xmlns="http://www.w3.org/2000/svg">
<path d="M89.4662 297.827C40.1295 297.827 0 252.98 0 197.854V100.701C0 45.5754 40.1295 0.72789 89.4662 0.72789C138.803 0.72789 178.922 45.5754 178.922 100.701V197.854C178.922 252.98 138.792 297.827 89.4662 297.827ZM89.4662 6.36833C42.9194 6.36833 5.04706 48.6881 5.04706 100.701V197.854C5.04706 249.868 42.9194 292.187 89.4662 292.187C136.013 292.187 173.875 249.867 173.875 197.854V100.701C173.875 48.6868 136.013 6.36833 89.4662 6.36833Z" fill="#9B8256" fill-opacity="0.1"/>
<path d="M89.4661 281.633C48.1345 281.633 14.5 244.05 14.5 197.853V100.701C14.5 54.5033 48.1333 16.921 89.4661 16.921C130.799 16.921 164.432 54.5033 164.432 100.701V197.854C164.432 244.052 130.799 281.634 89.4661 281.634V281.633ZM89.4661 22.5614C50.9139 22.5614 19.5471 57.616 19.5471 100.701V197.854C19.5471 240.939 50.9139 275.994 89.4661 275.994C128.018 275.994 159.385 240.939 159.385 197.854V100.701C159.385 57.616 128.018 22.5614 89.4661 22.5614Z" fill="#9B8256" fill-opacity="0.1"/>
<path d="M150.729 208.586C150.446 205.945 150.255 203.058 150.155 199.934C149.811 199.909 149.418 199.907 148.955 199.927C148.504 199.948 148.082 200.034 147.694 200.18C147.153 200.383 146.69 200.688 146.317 201.094C145.95 201.493 145.745 202.003 145.707 202.623C145.747 205.096 145.61 207.14 145.298 208.767C144.979 210.39 144.37 211.79 143.45 212.965C142.538 214.138 141.27 215.179 139.665 216.087C138.067 216.993 135.908 217.954 133.199 218.975L107.288 228.734L137.892 150.294C137.961 150.089 137.889 149.847 137.917 149.631C137.952 149.593 138.039 149.554 138.067 149.515C138.417 149.021 138.613 148.439 138.65 147.766L139.732 127.845C139.812 126.356 140.273 125.195 141.131 124.365C141.982 123.544 143.459 122.826 145.559 122.232C145.884 122.112 146.171 121.899 146.415 121.604C146.654 121.313 146.799 120.795 146.84 120.046C146.865 119.599 146.833 119.008 146.739 118.286C145.105 118.667 143.195 119.071 141.008 119.501C138.821 119.925 136.882 120.259 135.187 120.504C133.493 120.748 131.513 120.979 129.241 121.196C126.969 121.408 124.891 121.58 123.011 121.705C122.846 122.319 122.749 122.929 122.716 123.523C122.692 123.971 122.769 124.404 122.937 124.823C123.11 125.242 123.455 125.454 123.97 125.453C126.425 125.47 128.153 125.792 129.147 126.427C130.146 127.06 130.594 128.381 130.485 130.398L129.556 147.517C128.227 148.154 126.598 148.758 124.662 149.335C122.721 149.912 120.81 150.334 118.922 150.606C115.211 151.141 111.825 150.777 108.758 149.518C105.692 148.257 103.091 146.225 100.952 143.427C98.8124 140.623 97.1916 137.159 96.0907 133.02C94.9886 128.887 94.5828 124.246 94.8628 119.098C95.1015 114.693 95.8425 110.537 97.0893 106.619C98.3361 102.7 100.058 99.2299 102.254 96.2132C104.455 93.1912 107.16 90.6726 110.372 88.6536C113.58 86.6411 117.268 85.3319 121.433 84.7312C126.64 83.9806 130.586 84.488 133.27 86.2481C135.95 88.0082 137.743 91.2996 138.643 96.1317C138.848 97.0623 139.474 97.4527 140.516 97.3029C140.777 97.2648 141.106 97.182 141.5 97.0518C141.894 96.9217 142.156 96.7745 142.299 96.6023C141.857 94.0035 141.534 91.3325 141.328 88.5839C141.123 85.8353 141.023 83.1683 141.037 80.5761C138.984 80.2764 137.076 80.0529 135.307 79.9005C133.538 79.748 131.788 79.6481 130.045 79.6073C128.302 79.5613 126.539 79.6073 124.759 79.7559C122.969 79.9044 121.106 80.1187 119.149 80.4C111.626 81.4844 104.417 85.3451 98.0914 90.2809C87.4986 98.5464 81.9399 112.155 81.3188 123.586C81.2106 125.568 81.1895 127.539 81.273 129.475C79.9439 130.291 78.4219 131.076 76.5106 131.795L58.5371 139.976L88.5172 62.1116C88.7159 61.5109 88.7218 60.7537 88.5242 59.8507L43.7899 76.6997C41.3093 77.6343 39.1204 78.3665 37.2244 78.8883C35.3295 79.4167 33.6441 79.9583 32.1738 80.5117C30.6224 81.0966 29.9602 82.0996 30.1884 83.5179C30.386 85.1768 30.6236 87.3273 30.9141 89.972C31.1964 92.6128 31.3893 95.4981 31.4881 98.6226C31.8315 98.6489 32.2244 98.6489 32.6878 98.6292C33.1371 98.6082 33.5594 98.524 33.9475 98.3768C34.4886 98.1731 34.952 97.8681 35.3248 97.4619C35.6918 97.0637 35.8977 96.5536 35.9341 95.9332C35.8953 93.4607 36.0317 91.4153 36.3434 89.7893C36.6622 88.1659 37.2715 86.766 38.1912 85.5909C39.1051 84.417 40.3719 83.3773 41.9762 82.469C43.5759 81.5633 45.733 80.6024 48.443 79.581L74.3534 69.8223L43.7499 148.263C43.6805 148.468 43.7523 148.71 43.7241 148.924C43.69 148.962 43.6029 149.001 43.5747 149.04C43.2242 149.534 43.0289 150.116 42.9925 150.79L41.9104 170.711C41.8292 172.201 41.3681 173.361 40.5119 174.19C39.6603 175.011 38.1842 175.729 36.0835 176.323C35.7589 176.443 35.4719 176.654 35.2272 176.951C34.9885 177.24 34.8438 177.76 34.8026 178.508C34.7779 178.955 34.8097 179.546 34.9026 180.268C36.5363 179.887 38.4465 179.483 40.6342 179.052C42.8207 178.627 44.7591 178.293 46.4552 178.049C48.1501 177.804 50.1308 177.574 52.402 177.356C54.6733 177.145 56.7516 176.972 58.63 176.847C58.7959 176.234 58.8923 175.624 58.9252 175.03C58.9499 174.583 58.8723 174.149 58.7041 173.731C58.5312 173.311 58.1866 173.1 57.6726 173.101C55.2179 173.084 53.4888 172.762 52.495 172.127C51.4952 171.492 51.0471 170.171 51.1565 168.156L52.0856 151.035C53.4147 150.4 55.045 149.794 56.9798 149.217C58.9205 148.64 60.8318 148.218 62.7196 147.946C66.4305 147.411 69.8168 147.774 72.8832 149.034C75.9495 150.295 78.5501 152.327 80.6896 155.126C82.8291 157.929 84.4499 161.393 85.5508 165.532C86.6517 169.666 87.0587 174.307 86.7787 179.454C86.5388 183.86 85.799 188.015 84.551 191.934C83.3043 195.854 81.5823 199.324 79.3864 202.339C77.1857 205.363 74.4804 207.88 71.2682 209.899C68.0608 211.911 64.3722 213.222 60.2073 213.821C55.0003 214.572 51.0541 214.064 48.37 212.306C45.6907 210.546 43.897 207.254 42.9972 202.422C42.7937 201.491 42.1668 201.101 41.1247 201.251C40.8636 201.289 40.5342 201.372 40.1402 201.502C39.7462 201.632 39.4839 201.779 39.3416 201.951C39.785 204.55 40.1061 207.221 40.3119 209.97C40.5178 212.718 40.6177 215.385 40.6036 217.976C42.6561 218.277 44.5639 218.501 46.3329 218.652C48.1019 218.804 49.8521 218.906 51.5952 218.945C53.3383 218.991 55.1014 218.945 56.881 218.797C58.6712 218.648 60.5343 218.435 62.4915 218.152C70.0144 217.068 77.2233 213.207 83.5489 208.271C94.1417 200.006 99.7004 186.398 100.321 174.966C100.43 172.984 100.451 171.014 100.367 169.078C101.696 168.261 103.218 167.477 105.13 166.756L123.103 158.576L93.1232 236.441C92.9244 237.042 92.9185 237.799 93.1161 238.703L137.85 221.853C140.331 220.918 142.52 220.187 144.416 219.664C146.311 219.136 147.996 218.594 149.467 218.041C151.018 217.456 151.68 216.451 151.452 215.033C151.254 213.376 151.017 211.225 150.726 208.58L150.729 208.586ZM57.8337 144.327L80.0086 135.113C80.6484 134.872 81.1906 134.741 81.8105 134.522C82.4527 138.225 83.6806 141.697 85.8637 144.707C86.3894 145.433 87.0222 145.997 87.6009 146.643C79.4134 142.091 68.7277 141.939 57.8337 144.327ZM101.636 163.444C100.997 163.684 100.454 163.817 99.8345 164.035C99.1923 160.332 97.9644 156.861 95.7814 153.851C95.2556 153.125 94.6228 152.561 94.0441 151.914C102.232 156.468 112.919 156.618 123.814 154.229L101.638 163.444H101.636Z" fill="#9B8256" fill-opacity="0.1"/>
</svg>
