<svg width="222" height="97" viewBox="0 0 222 97" fill="none" xmlns="http://www.w3.org/2000/svg">
<path d="M164.927 71.3335H161.849C160.525 71.3335 159.863 72.0034 159.863 73.3362C159.863 76.2101 159.762 79.2471 159.565 82.4542C159.43 86.3277 158.473 89.7326 156.684 92.6725C156.154 93.3389 155.891 93.9393 155.891 94.4773C155.891 95.0153 156.65 94.8105 158.175 93.8768C161.551 91.8047 163.897 89.1322 165.225 85.8626C166.417 81.5865 166.979 77.4145 166.913 73.3397C166.913 72.0034 166.251 71.337 164.927 71.337V71.3335Z" fill="#E7E4DB"/>
<path d="M190.739 78.8479C191.336 80.1842 192.095 80.1183 193.024 78.6466L195.803 74.1379C196.663 72.8017 196.431 71.566 195.107 70.431L186.272 63.2186C184.947 62.1495 184.188 61.6497 183.987 61.7157C183.79 61.7816 183.921 62.4827 184.382 63.819C186.036 68.5602 188.157 73.5722 190.736 78.8479H190.739Z" fill="#E7E4DB"/>
<path d="M189.644 26.3509C190.968 26.3509 191.63 25.6845 191.63 24.3482C191.63 23.0813 190.968 22.4462 189.644 22.4462H172.965C171.641 22.4462 170.979 23.116 170.979 24.4489C170.979 25.7817 171.641 26.3544 172.965 26.3544H189.644V26.3509Z" fill="#E7E4DB"/>
<path d="M185.277 56.4052C185.277 57.207 185.97 57.6062 187.364 57.6062H188.754C190.074 57.6062 190.74 56.9051 190.74 55.5028V33.1608C190.74 31.8245 190.078 31.1581 188.754 31.1581H187.263C185.939 31.1581 185.277 31.8592 185.277 33.2614C185.277 34.6637 184.747 35.2641 183.69 35.2641H180.511C179.454 35.2641 178.924 34.563 178.924 33.1608C178.924 31.7585 178.262 31.1581 176.938 31.1581H174.556C173.232 31.1581 172.57 31.828 172.57 33.1608V56.4052C172.57 57.7415 173.267 58.4079 174.657 58.4079H176.941C178.265 58.4079 178.927 57.8422 178.927 56.7037C178.927 55.7007 179.489 55.2008 180.615 55.2008H183.693C184.75 55.2008 185.281 55.6 185.281 56.4018L185.277 56.4052ZM180.511 51.2961C179.454 51.2961 178.924 50.7304 178.924 49.5919V39.9741C178.924 38.9051 179.485 38.3706 180.612 38.3706H183.787C184.778 38.3706 185.277 38.9398 185.277 40.0748V49.6926C185.277 50.7616 184.747 51.2961 183.69 51.2961H180.511Z" fill="#E7E4DB"/>
<path d="M221.117 56.4052C220.985 55.0689 220.587 54.0693 219.925 53.3994C219.394 52.5317 218.996 51.5286 218.732 50.3937C218.136 47.3879 217.772 44.0836 217.641 40.4739C217.641 39.1376 217.54 38.4365 217.342 38.3705C217.145 38.5059 216.944 39.2383 216.746 40.5745L214.164 55.1002C213.966 56.3011 213.401 56.3358 212.476 55.2008L208.008 49.5884C207.149 48.5194 207.017 47.4504 207.613 46.3813C211.45 39.8352 213.502 32.2548 213.769 23.6401C213.769 22.3038 213.107 21.6374 211.783 21.6374H208.705C207.381 21.6374 206.719 22.3073 206.719 23.6401C206.32 29.5198 205.689 34.6949 204.833 39.1688C204.5 40.3038 204.14 40.3385 203.741 39.2695C202.154 34.3964 201.225 29.9537 200.961 25.9448C200.764 23.2757 200.597 20.6031 200.466 17.9305C200.466 16.5942 200.996 15.9278 202.053 15.9278H218.136C219.46 15.9278 220.122 15.2267 220.122 13.8245C220.122 12.5576 219.46 11.919 218.136 11.919H213.072C212.012 11.919 211.814 11.3532 212.476 10.2148L214.064 7.7088C214.989 6.24062 214.823 5.13688 213.568 4.40105L207.811 0.99612C206.552 0.329712 205.79 0.16311 205.526 0.496314C205.329 0.763572 205.492 1.56534 206.022 2.90163C207.079 5.241 208.175 7.5769 209.298 9.9128C209.693 11.2491 209.363 11.9155 208.306 11.9155H201.953C200.892 11.9155 200.365 11.3497 200.365 10.2113V2.80445C200.365 1.46816 199.703 0.801751 198.379 0.801751H195.998C194.674 0.801751 194.012 1.47163 194.012 2.80445V10.3189C194.012 11.3879 193.481 11.9224 192.424 11.9224H169.291C168.23 11.9224 167.7 11.256 167.7 9.91975C167.7 8.65288 167.038 8.01771 165.714 8.01771H163.43C162.106 8.01771 161.444 8.68759 161.444 10.0204V50.7963C161.045 53.4689 160.581 56.1067 160.054 58.7099C159.392 61.1811 158.466 63.8537 157.274 66.7241C156.879 67.5259 156.678 68.0951 156.678 68.4283C156.744 68.6296 157.437 68.0604 158.764 66.7241C164.127 60.5807 166.938 55.0689 167.204 50.1923C167.468 47.1206 167.634 44.1148 167.7 41.175V17.5314C167.7 16.4624 168.262 15.9278 169.388 15.9278H192.421C193.478 15.9278 194.043 16.4624 194.109 17.5314C194.57 23.9421 195.065 29.1206 195.599 33.0601C196.327 38.3393 197.686 43.5456 199.669 48.6895C200.13 49.8244 200.067 50.8935 199.471 51.8965C197.551 54.9023 195.267 57.974 192.622 61.1152C191.429 62.5174 191 63.3539 191.332 63.6212C191.596 63.8225 192.39 63.3539 193.714 62.2189L201.159 55.8082C202.216 54.8746 203.145 55.0412 203.939 56.308C206.455 59.9837 209.301 62.6528 212.479 64.3223C214.396 65.3913 216.847 66.4256 219.824 67.4287C221.148 67.7654 221.776 67.2621 221.71 65.9258L221.114 56.4087L221.117 56.4052Z" fill="#E7E4DB"/>
<path d="M209.103 68.1264C208.046 67.0573 207.38 66.5228 207.117 66.5228C206.853 66.5228 206.95 67.1927 207.415 68.5255C209.73 74.9362 212.642 81.8502 216.153 89.264C216.749 90.5309 217.377 90.4997 218.039 89.1634L220.718 83.6516C221.38 82.3153 221.082 80.9825 219.824 79.6427L209.099 68.1229L209.103 68.1264Z" fill="#E7E4DB"/>
<path d="M206.026 85.3593C205.232 84.023 204.736 82.6867 204.535 81.3504C204.071 79.4831 204.171 76.8105 204.833 73.3362C204.965 71.9999 204.767 71.3335 204.237 71.3335C203.776 71.3335 203.346 72.0034 202.948 73.3362C202.286 76.9424 201.755 81.1491 201.36 85.9598C201.229 87.296 200.764 88.2957 199.97 88.9655C199.177 89.5001 198.248 89.7673 197.19 89.7673H185.18C184.12 90.0346 182.931 89.7014 181.607 88.7642C180.283 87.7611 179.62 86.7268 179.62 85.6578V67.7238C179.62 66.3875 178.958 65.7211 177.634 65.7211H174.556C173.232 65.7211 172.57 66.3909 172.57 67.7238V91.8707C173.166 95.5428 175.083 97.2123 178.328 96.8791H200.865C202.32 97.2818 203.974 96.6778 205.828 95.0743C207.152 93.8734 207.946 91.9678 208.209 89.3647C208.209 88.0284 207.478 86.6921 206.026 85.3558V85.3593Z" fill="#E7E4DB"/>
<path d="M63.9368 11.2213H48.45C47.3894 11.2213 46.8625 10.6556 46.8625 9.51715V2.0027C46.8625 0.666409 46.2005 0 44.8764 0H41.7014C40.3773 0 39.7153 0.669879 39.7153 2.0027V9.6178C39.7153 10.6868 39.185 11.2213 38.1278 11.2213H27.705C26.6444 11.2213 26.1141 10.6556 26.1141 9.51715V2.0027C26.1141 0.666409 25.452 0 24.128 0H20.9495C19.6913 0 19.0639 0.701117 19.0639 2.10335V9.6178C19.0639 10.6868 18.5336 11.2213 17.4764 11.2213H1.98611C0.662037 11.2213 0 11.7559 0 12.8249C0 13.828 0.696698 14.3278 2.08663 14.3278H17.4729C18.5301 14.3278 19.0604 14.8623 19.0604 15.9313V23.5464C19.0604 24.8827 19.7537 25.5491 21.1471 25.5491H24.1245C25.4486 25.5491 26.1106 24.848 26.1106 23.4458V15.9313C26.1106 14.8623 26.6721 14.3278 27.7986 14.3278H38.1243C39.1815 14.3278 39.7118 14.8623 39.7118 15.9313V24.0462C39.7118 25.6498 41.3998 25.5491 41.3998 25.5491H44.8729C46.197 25.5491 46.859 24.848 46.859 23.4458V15.9313C46.859 14.8623 47.4206 14.3278 48.5471 14.3278H63.9368C65.2609 14.3278 65.9229 13.7933 65.9229 12.7242C65.9229 11.7212 65.2609 11.2213 63.9368 11.2213Z" fill="#E7E4DB"/>
<path d="M24.8631 70.74L24.8285 70.733H24.7938C24.1006 70.7851 23.2132 71.2294 22.0763 72.0901H22.0694C21.3831 72.649 21.1925 72.5865 21.1855 72.583C21.1751 72.5761 21.1335 72.5032 21.1335 72.3019V33.9903C21.1335 33.4037 21.3796 33.1573 21.962 33.1573C22.5443 33.1573 23.241 32.8623 23.241 31.4566V31.047C23.241 29.9953 22.6656 29.4122 21.6223 29.4122H3.21696C2.17365 29.4122 1.59826 29.9919 1.59826 31.047V31.526C1.59826 32.5777 2.19791 33.1608 3.28282 33.1608H4.03151C4.61036 33.1608 4.85645 33.4107 4.85645 33.9938V76.689C4.85645 77.2965 4.58609 77.6192 3.98645 77.7303L2.75943 77.9351C2.15978 78.0462 1.74731 78.2822 1.53241 78.6362C1.34177 78.959 1.3175 79.3686 1.47348 79.8614C2.17018 81.7912 2.30883 83.197 1.89289 84.0404L1.86862 84.1167C1.7889 84.6651 1.87209 85.0296 2.13205 85.2378C2.40588 85.4565 2.81142 85.4495 3.36254 85.2274C8.02453 83.6759 12.0383 81.9127 15.2896 80.0003C15.9239 79.6462 16.1249 79.7295 16.1596 79.7504C16.2255 79.7885 16.2636 79.9204 16.2636 80.1148V93.4777C16.2636 94.5294 16.8632 95.1125 17.9516 95.1125H19.598C20.3953 95.1125 21.1335 94.9112 21.1335 93.443V76.1441C21.1335 75.4881 21.4732 74.8148 22.1041 74.1692C22.7904 73.7076 23.4871 73.1453 24.1872 72.4858C25.0746 71.5348 25.2063 71.2155 25.1335 70.9795C25.0954 70.858 24.9983 70.7712 24.8666 70.7434L24.8631 70.74ZM16.2636 74.5614C16.2636 75.1827 15.9586 75.62 15.3416 75.8942C14.4577 76.2517 12.8979 76.6405 10.7663 77.0396C9.78187 76.991 9.65709 76.5329 9.65709 76.1372V64.1453C9.65709 63.5622 9.92398 63.3123 10.5514 63.3123H12.9291C14.3364 63.3123 14.5478 62.4619 14.5478 61.9517C14.5478 61.4415 14.3364 60.6605 12.9291 60.6605H10.4855C9.90665 60.6605 9.65709 60.3898 9.65709 59.7581V48.7936C9.65709 48.2105 9.92398 47.9606 10.5514 47.9606H12.9291C14.3364 47.9606 14.5478 47.1102 14.5478 46.6C14.5478 46.0898 14.3364 45.3088 12.9291 45.3088H10.4855C9.90665 45.3088 9.65709 45.0381 9.65709 44.4064V33.9903C9.65709 33.4037 9.92398 33.1573 10.5514 33.1573H15.4421C16.021 33.1573 16.2671 33.4072 16.2671 33.9903V74.5614H16.2636Z" fill="#E7E4DB"/>
<path d="M58.9217 45.7774C58.9598 45.7809 58.9945 45.7844 59.0326 45.7844C59.5179 45.7844 60.0378 45.413 60.6201 44.6529V44.6459C61.2579 43.7713 61.9684 42.8758 62.7449 41.9699C63.4208 41.1091 63.8714 39.7555 62.1799 38.2144C59.8263 36.1353 57.4416 34.091 55.0846 32.1265C54.4538 31.6197 53.9824 31.3386 53.5942 31.2657C53.4763 31.2657 53.3689 31.3177 53.2996 31.4149C53.1713 31.585 53.0743 31.8974 53.5249 33.487C54.8801 37.6556 56.3463 41.4562 57.8749 44.7778C58.1487 45.3922 58.4988 45.7288 58.9217 45.7774Z" fill="#E7E4DB"/>
<path d="M62.7104 52.9274C63.2061 52.9274 63.7156 52.9309 64.0553 52.5942C64.2667 52.3825 64.3707 52.0701 64.3707 51.6467V51.4106C64.3672 51.2024 64.3638 50.897 64.3638 50.6748C64.3638 49.8036 63.3378 49.8036 62.7832 49.8036H51.4662C51.4593 48.9671 51.4558 48.2348 51.4558 47.9536V29.3359C51.4558 28.3224 50.9012 27.7635 49.8995 27.7635H48.3432C47.338 27.7635 46.7869 28.3467 46.7869 29.4018V49.8036H38.3225C38.1041 49.8036 37.9516 49.762 37.9031 49.6856C37.8788 49.6474 37.8199 49.4912 38.0313 49.0435L42.2531 39.7207C42.7003 38.7176 42.3432 37.718 41.1925 36.7462C40.4819 36.1457 39.9169 35.9236 39.4767 36.0589C39.1578 36.1561 38.9291 36.4303 38.7974 36.8746L35.3 48.6617C35.0712 49.4322 34.6761 49.8071 34.0972 49.8071H24.3989C23.3799 49.8071 22.8184 50.3728 22.8184 51.4002C22.8184 52.4276 23.4041 52.9274 24.4648 52.9274H46.7869L46.721 54.8989V60.0809C46.8077 63.3852 47.0468 66.7623 47.4385 70.1291C47.9584 73.9332 48.8146 77.3659 49.9792 80.33C50.2565 81.1318 50.201 81.8294 49.8094 82.4646C47.8856 85.6127 44.8909 88.9412 40.9083 92.3566C39.9065 93.2139 39.7748 93.5679 39.7783 93.8005C39.7783 93.9358 39.8372 94.0539 39.9204 94.1198C40.1422 94.3419 40.527 94.2968 41.9238 93.4395C45.033 91.5652 48.2149 89.1981 51.3795 86.3971C51.688 86.1021 51.9514 85.9598 52.1421 85.9979C52.2807 86.0222 52.409 86.1541 52.5372 86.4075C54.5857 89.7951 58.0034 92.78 62.7104 95.286C63.012 95.4249 63.2754 95.4908 63.4972 95.4908C63.674 95.4908 63.8265 95.4491 63.9582 95.3624C64.2355 95.1819 64.3742 94.8348 64.3742 94.3246V88.0388C64.3742 87.1156 64.2043 86.404 63.8889 85.9528C63.3517 84.9116 63.1645 83.6412 63.3343 82.1453V77.168C63.3343 76.1962 63.2477 75.5957 62.8144 75.5957C62.5198 75.5957 62.3569 75.8456 62.1697 77.3207C61.7364 79.8892 61.3447 82.4715 61.0016 84.9879C60.9496 85.3419 60.8456 85.5745 60.707 85.6404C60.5579 85.7133 60.3222 85.6127 60.1524 85.5155C58.9323 84.8387 57.6914 83.7349 56.4783 82.2563C55.9306 81.4684 55.8266 80.7882 56.1628 80.1807C58.3742 76.3315 59.8058 72.1561 60.4123 67.7793C60.9739 64.2841 61.3898 60.7508 61.6463 57.2868C61.6983 56.7731 61.5978 56.374 61.3517 56.0998C61.1056 55.8256 60.7243 55.6868 60.2182 55.6868H58.2703C57.2755 55.6868 56.6689 56.2178 56.5198 57.2244C56.2564 59.1715 56.0381 61.0909 55.8717 62.9374C55.6152 66.3875 54.8353 69.8896 53.5494 73.3431C53.4731 73.5514 53.4142 73.6972 53.3656 73.7909C53.3552 73.7492 53.3448 73.6972 53.3344 73.6347C52.7348 70.9933 52.2981 68.0327 52.0416 64.8429L51.5216 53.0558V52.9309H62.5856H62.7104V52.9274Z" fill="#E7E4DB"/>
<path d="M29.1678 47.4955C29.3862 48.1029 29.6565 48.4153 29.9927 48.45C30.0135 48.45 30.0378 48.4535 30.0586 48.4535C30.3636 48.4535 30.6582 48.2209 30.9598 47.735L32.4121 45.2013C33.043 44.0732 32.9632 43.0736 32.1799 42.2302C31.1955 41.1508 30.1972 40.0331 29.2094 38.8982C28.8628 38.5302 28.4087 38.1311 28.0205 38.2977C27.6427 38.4608 27.6219 39.0196 27.6358 39.4223C27.7675 42.015 28.2839 44.7258 29.1678 47.4921V47.4955Z" fill="#E7E4DB"/>
<path d="M41.7465 89.2675V56.4538C41.7465 55.4265 41.185 54.8607 40.166 54.8607H38.6512C37.6322 54.8607 37.0707 55.4265 37.0707 56.4538C37.0707 57.4014 36.6443 57.5229 36.2769 57.5229H30.998C30.6271 57.5229 30.2007 57.3945 30.2007 56.3879C30.2007 55.3814 29.6392 54.8607 28.6202 54.8607H27.4971C26.5197 54.8607 25.9824 55.4508 25.9824 56.5233V89.868C25.9824 90.8954 26.5682 91.4611 27.6288 91.4611H28.6167C29.6358 91.4611 30.1973 90.8711 30.1973 89.802V86.9386C30.1973 86.3763 30.4572 86.1368 31.0603 86.1368H36.2735C36.8315 86.1368 37.0672 86.3763 37.0672 86.9386V89.337C37.0672 90.3643 37.653 90.9301 38.7136 90.9301H40.166C41.185 90.9301 41.7465 90.34 41.7465 89.2675ZM37.0707 82.7423C37.0707 83.3046 36.8315 83.5441 36.2769 83.5441H30.998C30.4399 83.5441 30.2007 83.2837 30.2007 82.6763V74.0026C30.2007 73.4403 30.4607 73.2008 31.0638 73.2008H33.3064C34.3255 73.2008 34.887 72.6351 34.887 71.6077C34.887 70.5803 34.3255 70.0805 33.3064 70.0805H30.998C30.4399 70.0805 30.2007 69.8202 30.2007 69.2128V61.4519C30.2007 60.8896 30.4607 60.6501 31.0638 60.6501H36.3428C36.7033 60.6501 37.0741 60.7543 37.0741 61.5179V82.7457L37.0707 82.7423Z" fill="#E7E4DB"/>
<path d="M33.6362 32.2271H24.9292C23.9102 32.2271 23.3486 32.7928 23.3486 33.8202C23.3486 34.8476 23.9344 35.3474 24.9951 35.3474H43.3345C44.3536 35.3474 44.9151 34.7817 44.9151 33.7543C44.9151 32.7269 44.3536 32.2271 43.3345 32.2271H36.2116C36.014 32.2271 35.9481 32.182 35.9447 32.175C35.9447 32.175 35.8823 32.0119 36.2878 31.4427L37.4698 29.7836C38.527 28.4091 37.9966 27.4893 37.3623 26.9548L34.0625 24.2927C32.7766 23.2583 32.4854 23.1716 32.3156 23.1716L32.1527 23.1924L32.0764 23.2826C31.9655 23.4111 31.8823 23.6263 32.0556 24.8654C32.4126 27.6802 32.9776 29.8391 33.7367 31.283C34.0729 31.9043 33.9967 32.0952 33.9793 32.1264C33.9447 32.1889 33.8199 32.2236 33.6362 32.2236V32.2271Z" fill="#E7E4DB"/>
<path d="M110.858 90.1942C96.973 90.1942 85.6768 78.8861 85.6768 64.9818V40.4808C85.6768 26.58 96.9695 15.2684 110.858 15.2684C124.747 15.2684 136.037 26.5765 136.037 40.4808V64.9818C136.037 78.8826 124.744 90.1942 110.858 90.1942ZM110.858 16.6949C97.7563 16.6949 87.0979 27.3679 87.0979 40.4843V64.9852C87.0979 78.1017 97.7563 88.7746 110.858 88.7746C123.961 88.7746 134.615 78.1017 134.615 64.9852V40.4808C134.615 27.3644 123.961 16.6914 110.858 16.6914V16.6949Z" fill="#E7E4DB"/>
<path d="M110.858 86.109C99.2259 86.109 89.7598 76.63 89.7598 64.9817V40.4808C89.7598 28.8291 99.2259 19.3536 110.858 19.3536C122.491 19.3536 131.957 28.8325 131.957 40.4808V64.9817C131.957 76.6335 122.491 86.109 110.858 86.109ZM110.858 20.7766C100.009 20.7766 91.1809 29.617 91.1809 40.4808V64.9817C91.1809 75.8456 100.009 84.6859 110.858 84.6859C121.707 84.6859 130.536 75.8456 130.536 64.9817V40.4808C130.536 29.617 121.707 20.7766 110.858 20.7766Z" fill="#E7E4DB"/>
<path d="M128.103 67.689C128.023 67.0226 127.971 66.2938 127.94 65.5059C127.843 65.4989 127.732 65.4989 127.604 65.5059C127.475 65.5128 127.358 65.5336 127.25 65.5683C127.098 65.6204 126.966 65.6968 126.862 65.7974C126.758 65.8981 126.702 66.0265 126.692 66.1827C126.702 66.8074 126.664 67.3211 126.578 67.7307C126.487 68.1403 126.318 68.4943 126.058 68.7893C125.801 69.0843 125.444 69.3481 124.994 69.5772C124.543 69.8063 123.936 70.0492 123.174 70.3061L115.881 72.7669L124.494 52.9864C124.515 52.9343 124.494 52.8753 124.501 52.8198C124.512 52.8094 124.536 52.799 124.543 52.792C124.64 52.6671 124.695 52.5213 124.706 52.3512L125.011 47.3289C125.035 46.954 125.163 46.659 125.406 46.4507C125.645 46.2425 126.061 46.062 126.654 45.9128C126.744 45.8815 126.827 45.8295 126.893 45.7531C126.959 45.6802 127 45.5483 127.011 45.3609C127.018 45.2498 127.011 45.1006 126.983 44.9166C126.522 45.0138 125.985 45.1145 125.371 45.2221C124.754 45.3296 124.21 45.413 123.732 45.4754C123.254 45.5379 122.699 45.5969 122.058 45.649C121.42 45.701 120.834 45.7462 120.304 45.7774C120.259 45.9336 120.231 46.0863 120.221 46.2356C120.214 46.3501 120.235 46.4577 120.283 46.5618C120.332 46.6659 120.429 46.7215 120.574 46.7215C121.264 46.7249 121.753 46.8082 122.03 46.9679C122.311 47.1276 122.439 47.4608 122.408 47.971L122.148 52.2888C121.774 52.4484 121.316 52.6011 120.772 52.7469C120.224 52.8927 119.687 53.0003 119.157 53.0662C118.113 53.2016 117.16 53.1079 116.297 52.792C115.434 52.4727 114.703 51.9625 114.099 51.2544C113.496 50.5464 113.042 49.6752 112.73 48.6305C112.422 47.5892 112.307 46.416 112.384 45.1214C112.45 44.0107 112.661 42.9625 113.011 41.9733C113.361 40.9841 113.846 40.1095 114.463 39.3493C115.084 38.5857 115.843 37.9506 116.748 37.4438C117.649 36.9371 118.689 36.6073 119.86 36.4546C121.326 36.2637 122.436 36.3921 123.191 36.8364C123.947 37.2807 124.449 38.1102 124.702 39.3285C124.761 39.5645 124.935 39.6617 125.229 39.6235C125.302 39.6131 125.396 39.5923 125.507 39.5611C125.617 39.5298 125.69 39.4916 125.732 39.4465C125.607 38.7905 125.517 38.1172 125.458 37.423C125.399 36.7288 125.371 36.0589 125.375 35.4029C124.796 35.3266 124.259 35.271 123.763 35.2329C123.264 35.1947 122.772 35.1704 122.283 35.16C121.791 35.1496 121.295 35.16 120.796 35.1982C120.293 35.2363 119.767 35.2884 119.215 35.3613C117.098 35.6355 115.07 36.6073 113.288 37.8534C110.307 39.9394 108.744 43.3686 108.567 46.2529C108.536 46.7527 108.529 47.249 108.554 47.7384C108.179 47.9432 107.753 48.1411 107.212 48.325L102.155 50.3867L110.592 30.752C110.647 30.5992 110.651 30.4083 110.592 30.1827L98.0026 34.4311C97.3059 34.6671 96.6889 34.8511 96.1551 34.983C95.6213 35.1149 95.1465 35.2537 94.734 35.3925C94.2973 35.5383 94.1101 35.7917 94.1759 36.1492C94.2314 36.5657 94.2973 37.1106 94.3805 37.777C94.4602 38.4434 94.5156 39.1723 94.5434 39.9602C94.6404 39.9671 94.7513 39.9671 94.8796 39.9602C95.0044 39.9533 95.1257 39.9324 95.2331 39.8977C95.3856 39.8457 95.5173 39.7693 95.6213 39.6686C95.7253 39.568 95.7808 39.4396 95.7912 39.2834C95.7808 38.6586 95.8189 38.1449 95.9056 37.7354C95.9957 37.3258 96.1655 36.9718 96.4255 36.6768C96.682 36.3817 97.039 36.1179 97.4896 35.8889C97.9402 35.6598 98.5468 35.4168 99.3093 35.16L106.602 32.6991L97.9887 52.4797C97.9679 52.5317 97.9887 52.5907 97.9818 52.6463C97.9714 52.6567 97.9471 52.6671 97.9402 52.674C97.8431 52.799 97.7877 52.9448 97.7773 53.1148L97.4723 58.1372C97.448 58.512 97.3198 58.8071 97.0771 59.0153C96.838 59.2236 96.422 59.4041 95.8293 59.5533C95.7392 59.5845 95.656 59.6366 95.5901 59.713C95.5243 59.7859 95.4827 59.9178 95.4723 60.1052C95.4654 60.2162 95.4723 60.3655 95.5 60.5494C95.961 60.4523 96.4983 60.3516 97.1118 60.244C97.7288 60.1364 98.2729 60.0531 98.7513 59.9906C99.2296 59.9282 99.7842 59.8692 100.425 59.8171C101.063 59.765 101.649 59.7199 102.179 59.6887C102.224 59.5325 102.252 59.3798 102.262 59.2305C102.269 59.1194 102.249 59.0084 102.2 58.9043C102.152 58.8001 102.055 58.7446 101.909 58.7446C101.219 58.7411 100.73 58.6578 100.453 58.4982C100.172 58.3385 100.044 58.0053 100.075 57.4951L100.335 53.1773C100.71 53.0176 101.167 52.8649 101.711 52.7192C102.259 52.5734 102.796 52.4658 103.327 52.3998C104.37 52.2645 105.323 52.3582 106.186 52.674C107.049 52.9933 107.781 53.5036 108.384 54.2116C108.987 54.9197 109.441 55.7909 109.753 56.8356C110.061 57.8769 110.176 59.05 110.099 60.3481C110.034 61.4588 109.822 62.507 109.472 63.4962C109.122 64.4854 108.637 65.3601 108.02 66.1202C107.399 66.8838 106.64 67.519 105.736 68.0257C104.834 68.5325 103.795 68.8622 102.623 69.0149C101.157 69.2058 100.048 69.0774 99.292 68.6331C98.5364 68.1889 98.0338 67.3593 97.7808 66.141C97.7218 65.905 97.5485 65.8078 97.2539 65.846C97.1811 65.8564 97.0875 65.8773 96.9766 65.9085C96.8657 65.9397 96.7929 65.9779 96.7513 66.023C96.8761 66.679 96.9662 67.3524 97.0251 68.0465C97.0841 68.7407 97.1118 69.4106 97.1083 70.0666C97.6872 70.143 98.2244 70.1985 98.7201 70.2367C99.2192 70.2749 99.7114 70.2991 100.2 70.3096C100.692 70.32 101.188 70.3096 101.687 70.2714C102.19 70.2332 102.717 70.1811 103.268 70.1082C105.386 69.8341 107.413 68.8622 109.195 67.6162C112.176 65.5302 113.739 62.1009 113.916 59.2166C113.947 58.7168 113.954 58.2205 113.93 57.7311C114.304 57.5263 114.73 57.3285 115.271 57.1445L120.328 55.0828L111.891 74.7176C111.836 74.8703 111.833 75.0612 111.891 75.2868L124.481 71.0384C125.177 70.8024 125.794 70.6185 126.328 70.4866C126.862 70.3547 127.337 70.2158 127.749 70.077C128.186 69.9312 128.373 69.6779 128.307 69.3204C128.252 68.9039 128.186 68.3589 128.103 67.6925V67.689ZM101.957 51.4835L108.2 49.1615C108.38 49.099 108.533 49.0678 108.706 49.0123C108.886 49.9459 109.233 50.8206 109.846 51.5807C109.996 51.7647 110.172 51.907 110.335 52.0701C108.03 50.9212 105.025 50.8831 101.957 51.487V51.4835ZM114.287 56.3046C114.106 56.367 113.954 56.3983 113.781 56.4538C113.6 55.5201 113.254 54.6455 112.64 53.8854C112.491 53.7014 112.314 53.5591 112.151 53.396C114.456 54.5448 117.465 54.583 120.529 53.9791L114.287 56.3011V56.3046Z" fill="#E7E4DB"/>
</svg>
