<svg width="21" height="20" viewBox="0 0 21 20" fill="none" xmlns="http://www.w3.org/2000/svg">
<path d="M18 10.4167C18 6.50466 14.8287 3.33334 10.9167 3.33334C7.00464 3.33334 3.83333 6.50466 3.83333 10.4167C3.83333 13.9522 6.4236 16.8826 9.80989 17.4139V12.4642H8.01139V10.4167H9.80989V8.85613C9.80989 7.08087 10.8674 6.10027 12.4854 6.10027C13.2604 6.10027 14.071 6.23862 14.071 6.23862V7.98178H13.1778C12.2978 7.98178 12.0234 8.52779 12.0234 9.08796V10.4167H13.988L13.6739 12.4642H12.0234V17.4139C15.4097 16.8826 18 13.9522 18 10.4167Z" fill="#1877F2"/>
<path d="M13.6739 12.4642L13.9879 10.4167H12.0234V9.08797C12.0234 8.5278 12.2978 7.98179 13.1778 7.98179H14.071V6.23863C14.071 6.23863 13.2604 6.10028 12.4854 6.10028C10.8674 6.10028 9.80989 7.08088 9.80989 8.85614V10.4167H8.01138V12.4642H9.80989V17.4139C10.5433 17.5287 11.29 17.5287 12.0234 17.4139V12.4642H13.6739Z" fill="white"/>
</svg>
