<svg width="20" height="20" viewBox="0 0 20 20" fill="none" xmlns="http://www.w3.org/2000/svg">
<path d="M6.47296 11.0611L5.97984 12.902L4.17749 12.9401C3.63885 11.9411 3.33333 10.798 3.33333 9.58333C3.33333 8.40875 3.61899 7.30109 4.12533 6.32578H4.12572L5.73032 6.61995L6.43323 8.21492C6.28611 8.64382 6.20592 9.10424 6.20592 9.58333C6.20598 10.1033 6.30017 10.6015 6.47296 11.0611Z" fill="#FBBB00"/>
<path d="M17.3763 8.26007C17.4576 8.68856 17.5 9.13107 17.5 9.58333C17.5 10.0904 17.4467 10.5851 17.3451 11.0623C17.0003 12.686 16.0993 14.1038 14.8512 15.1072L14.8508 15.1068L12.8297 15.0037L12.5437 13.218C13.3719 12.7323 14.0191 11.9722 14.3601 11.0623H10.5724V8.26007H14.4153H17.3763Z" fill="#518EF8"/>
<path d="M14.8507 15.1068L14.8511 15.1072C13.6372 16.0829 12.0952 16.6667 10.4166 16.6667C7.71911 16.6667 5.37384 15.1589 4.17744 12.9401L6.47291 11.0611C7.0711 12.6576 8.61114 13.794 10.4166 13.794C11.1927 13.794 11.9197 13.5842 12.5436 13.218L14.8507 15.1068Z" fill="#28B446"/>
<path d="M14.9379 4.13072L12.6432 6.00935C11.9976 5.60577 11.2343 5.37262 10.4167 5.37262C8.57032 5.37262 7.00147 6.56121 6.43326 8.21492L4.12572 6.32578H4.12534C5.30421 4.05288 7.67907 2.5 10.4167 2.5C12.1353 2.5 13.7112 3.11221 14.9379 4.13072Z" fill="#F14336"/>
</svg>
