<svg width="133" height="49" viewBox="0 0 133 49" fill="none" xmlns="http://www.w3.org/2000/svg">
<path d="M14.7821 48C6.63042 48 0 41.3581 0 33.1941V18.8059C0 10.6419 6.63042 4 14.7821 4C22.9338 4 29.5625 10.6419 29.5625 18.8059V33.1941C29.5625 41.3581 22.9321 48 14.7821 48ZM14.7821 4.83534C7.09139 4.83534 0.833904 11.1028 0.833904 18.8059V33.1941C0.833904 40.8974 7.09139 47.1647 14.7821 47.1647C22.4729 47.1647 28.7286 40.8972 28.7286 33.1941V18.8059C28.7286 11.1026 22.4729 4.83534 14.7821 4.83534Z" fill="white"/>
<path d="M14.7823 45.6009C7.95329 45.6009 2.396 40.035 2.396 33.1932V18.8051C2.396 11.9634 7.95309 6.39746 14.7823 6.39746C21.6116 6.39746 27.1686 11.9634 27.1686 18.8051V33.1934C27.1686 40.0352 21.6116 45.6011 14.7823 45.6011V45.6009ZM14.7823 7.2328C8.41251 7.2328 3.2299 12.4243 3.2299 18.8051V33.1934C3.2299 39.5742 8.41251 44.7658 14.7823 44.7658C21.1521 44.7658 26.3347 39.5742 26.3347 33.1934V18.8051C26.3347 12.4243 21.1521 7.2328 14.7823 7.2328Z" fill="white"/>
<path d="M24.9041 34.7833C24.8574 34.3922 24.8257 33.9647 24.8092 33.502C24.7525 33.4983 24.6876 33.4981 24.611 33.501C24.5366 33.5041 24.4668 33.5168 24.4027 33.5384C24.3133 33.5685 24.2367 33.6137 24.1751 33.6739C24.1145 33.7329 24.0806 33.8084 24.0744 33.9003C24.081 34.2664 24.0583 34.5692 24.0068 34.8102C23.9541 35.0506 23.8535 35.2579 23.7015 35.432C23.5507 35.6056 23.3412 35.7598 23.0761 35.8943C22.812 36.0284 22.4554 36.1707 22.0076 36.322L17.7266 37.7673L22.7831 26.1503C22.7945 26.12 22.7827 26.0841 22.7873 26.0522C22.793 26.0466 22.8073 26.0407 22.812 26.0351C22.8699 25.9619 22.9022 25.8757 22.9084 25.776L23.0872 22.8257C23.1004 22.6051 23.1766 22.4333 23.3183 22.3104C23.459 22.1887 23.7029 22.0824 24.0499 21.9945C24.1036 21.9767 24.151 21.9452 24.1914 21.9014C24.2309 21.8584 24.2548 21.7817 24.2616 21.6707C24.2657 21.6045 24.2604 21.5169 24.2449 21.41C23.9749 21.4665 23.6593 21.5263 23.298 21.5899C22.9366 21.6528 22.6163 21.7023 22.3363 21.7385C22.0562 21.7747 21.7292 21.8089 21.3537 21.8411C20.9784 21.8724 20.635 21.8979 20.3245 21.9164C20.2971 22.0073 20.2811 22.0976 20.2757 22.1856C20.2716 22.252 20.2844 22.3161 20.3122 22.3782C20.3408 22.4403 20.3977 22.4716 20.4829 22.4714C20.8885 22.4739 21.1739 22.5216 21.3381 22.6157C21.5033 22.7095 21.5774 22.9051 21.5593 23.2038L21.4058 25.7392C21.1862 25.8334 20.917 25.923 20.5971 26.0084C20.2765 26.0939 19.9607 26.1564 19.6488 26.1967C19.0356 26.2759 18.4761 26.222 17.9695 26.0355C17.4629 25.8488 17.0332 25.5478 16.6797 25.1334C16.3262 24.7181 16.0584 24.2052 15.8765 23.5921C15.6944 22.9801 15.6273 22.2927 15.6736 21.5304C15.713 20.878 15.8355 20.2625 16.0415 19.6821C16.2475 19.1018 16.532 18.5879 16.8948 18.1411C17.2584 17.6935 17.7054 17.3206 18.2361 17.0215C18.7661 16.7235 19.3755 16.5296 20.0637 16.4406C20.924 16.3295 21.576 16.4046 22.0195 16.6653C22.4622 16.9259 22.7586 17.4134 22.9072 18.129C22.941 18.2669 23.0444 18.3247 23.2166 18.3025C23.2598 18.2968 23.3142 18.2846 23.3793 18.2653C23.4444 18.246 23.4877 18.2242 23.5112 18.1987C23.4382 17.8139 23.3849 17.4183 23.3509 17.0112C23.3169 16.6042 23.3004 16.2092 23.3027 15.8253C22.9636 15.7809 22.6484 15.7478 22.3561 15.7252C22.0638 15.7026 21.7746 15.6878 21.4866 15.6818C21.1986 15.675 20.9073 15.6818 20.6133 15.7038C20.3175 15.7258 20.0097 15.7575 19.6863 15.7992C18.4433 15.9598 17.2522 16.5315 16.207 17.2625C14.4568 18.4866 13.5384 20.5021 13.4358 22.195C13.4179 22.4885 13.4144 22.7804 13.4282 23.0671C13.2086 23.188 12.9571 23.3042 12.6413 23.4107L9.67165 24.6223L14.6251 13.0907C14.658 13.0017 14.6589 12.8896 14.6263 12.7559L7.23504 15.2512C6.82518 15.3896 6.46352 15.498 6.15025 15.5753C5.83717 15.6536 5.55868 15.7338 5.31576 15.8157C5.05943 15.9024 4.95001 16.0509 4.98772 16.2609C5.02036 16.5066 5.05962 16.8251 5.10762 17.2168C5.15426 17.6079 5.18613 18.0352 5.20246 18.4979C5.25921 18.5018 5.32411 18.5018 5.40068 18.4989C5.47492 18.4958 5.54469 18.4833 5.60882 18.4615C5.69822 18.4314 5.77478 18.3862 5.83639 18.326C5.89702 18.2671 5.93103 18.1915 5.93706 18.0996C5.93064 17.7335 5.95319 17.4305 6.00469 17.1897C6.05735 16.9493 6.15802 16.742 6.30999 16.5679C6.46099 16.3941 6.67029 16.2401 6.93537 16.1056C7.19967 15.9715 7.55609 15.8292 8.00384 15.6779L12.2849 14.2326L7.22843 25.8496C7.21697 25.8799 7.22882 25.9158 7.22416 25.9475C7.21852 25.9531 7.20414 25.959 7.19948 25.9646C7.14156 26.0378 7.1093 26.1241 7.10328 26.2239L6.92449 29.1742C6.91108 29.3948 6.8349 29.5667 6.69342 29.6893C6.55272 29.811 6.30883 29.9173 5.96174 30.0053C5.9081 30.023 5.86068 30.0543 5.82026 30.0983C5.78081 30.1411 5.75691 30.218 5.7501 30.3288C5.74602 30.395 5.75127 30.4826 5.76662 30.5895C6.03656 30.533 6.35216 30.4732 6.71363 30.4094C7.07491 30.3465 7.39517 30.2971 7.67541 30.2609C7.95545 30.2246 8.28272 30.1906 8.65798 30.1583C9.03325 30.1269 9.37664 30.1014 9.687 30.0829C9.7144 29.992 9.73034 29.9017 9.73578 29.8137C9.73986 29.7475 9.72704 29.6833 9.69925 29.6214C9.67068 29.5593 9.61374 29.5279 9.52881 29.5281C9.12323 29.5256 8.83755 29.4779 8.67334 29.3839C8.50815 29.2898 8.43411 29.0942 8.45218 28.7957L8.60571 26.2601C8.82531 26.1661 9.09466 26.0764 9.41435 25.9909C9.735 25.9054 10.0508 25.8429 10.3627 25.8026C10.9759 25.7234 11.5354 25.7771 12.042 25.9638C12.5486 26.1505 12.9783 26.4515 13.3318 26.866C13.6853 27.2812 13.9531 27.7942 14.135 28.4072C14.3169 29.0194 14.3842 29.7066 14.3379 30.469C14.2983 31.1215 14.176 31.7369 13.9698 32.3172C13.7638 32.8977 13.4793 33.4116 13.1165 33.8582C12.7529 34.306 12.3059 34.6788 11.7752 34.9778C11.2452 35.2758 10.6358 35.4699 9.94761 35.5587C9.08728 35.6698 8.43527 35.5947 7.99179 35.3342C7.54909 35.0736 7.25272 34.5861 7.10406 33.8705C7.07044 33.7327 6.96685 33.6748 6.79467 33.697C6.75153 33.7027 6.69711 33.7149 6.63201 33.7342C6.56691 33.7535 6.52357 33.7753 6.50005 33.8008C6.57332 34.1857 6.62637 34.5812 6.66038 34.9883C6.69439 35.3954 6.71091 35.7903 6.70858 36.174C7.0477 36.2186 7.36291 36.2517 7.6552 36.2741C7.94748 36.2967 8.23666 36.3117 8.52467 36.3175C8.81268 36.3243 9.10399 36.3175 9.39802 36.2955C9.6938 36.2735 10.0016 36.242 10.325 36.2001C11.568 36.0395 12.7591 35.4678 13.8042 34.7368C15.5545 33.5127 16.4729 31.4974 16.5755 29.8043C16.5934 29.5108 16.5969 29.219 16.5831 28.9322C16.8027 28.8113 17.0542 28.6951 17.37 28.5884L20.3396 27.377L15.3862 38.9086C15.3533 38.9976 15.3523 39.1097 15.385 39.2437L22.7763 36.7481C23.1861 36.6097 23.5478 36.5015 23.861 36.424C24.1741 36.3457 24.4526 36.2655 24.6955 36.1836C24.9519 36.097 25.0613 35.9482 25.0236 35.7382C24.9909 35.4927 24.9517 35.1742 24.9037 34.7825L24.9041 34.7833ZM9.55544 25.2667L13.2193 23.9021C13.325 23.8664 13.4146 23.847 13.517 23.8146C13.6231 24.363 13.826 24.8772 14.1867 25.323C14.2736 25.4304 14.3781 25.514 14.4737 25.6097C13.121 24.9356 11.3554 24.913 9.55544 25.2667ZM16.7928 28.0978C16.6871 28.1335 16.5975 28.1531 16.4951 28.1854C16.3889 27.6371 16.1861 27.1229 15.8254 26.6771C15.7385 26.5697 15.6339 26.4861 15.5383 26.3904C16.8911 27.0647 18.6569 27.0869 20.457 26.7332L16.793 28.0978H16.7928Z" fill="white"/>
<path d="M103.94 35.8672H102.385C101.716 35.8672 101.382 36.2056 101.382 36.8788C101.382 38.3306 101.331 39.8647 101.231 41.4847C101.163 43.4414 100.68 45.1614 99.7764 46.6465C99.5086 46.9831 99.3755 47.2864 99.3755 47.5582C99.3755 47.8299 99.7589 47.7265 100.529 47.2548C102.235 46.2081 103.42 44.8581 104.091 43.2065C104.693 41.0464 104.977 38.939 104.943 36.8806C104.943 36.2056 104.609 35.8689 103.94 35.8689V35.8672Z" fill="white"/>
<path d="M116.979 39.663C117.28 40.3381 117.664 40.3047 118.133 39.5613L119.537 37.2838C119.971 36.6088 119.854 35.9846 119.185 35.4113L114.722 31.7679C114.053 31.2279 113.67 30.9755 113.568 31.0088C113.469 31.0421 113.535 31.3962 113.768 32.0713C114.603 34.4663 115.675 36.998 116.977 39.663H116.979Z" fill="white"/>
<path d="M116.426 13.1443C117.095 13.1443 117.429 12.8077 117.429 12.1327C117.429 11.4927 117.095 11.1719 116.426 11.1719H108C107.331 11.1719 106.997 11.5103 106.997 12.1835C106.997 12.8568 107.331 13.1461 108 13.1461H116.426V13.1443Z" fill="white"/>
<path d="M114.22 28.3267C114.22 28.7317 114.57 28.9334 115.274 28.9334H115.976C116.643 28.9334 116.979 28.5792 116.979 27.8709V16.5849C116.979 15.9099 116.645 15.5732 115.976 15.5732H115.223C114.554 15.5732 114.22 15.9274 114.22 16.6357C114.22 17.3441 113.952 17.6474 113.418 17.6474H111.812C111.278 17.6474 111.01 17.2932 111.01 16.5849C111.01 15.8766 110.676 15.5732 110.007 15.5732H108.804C108.135 15.5732 107.801 15.9116 107.801 16.5849V28.3267C107.801 29.0017 108.153 29.3384 108.855 29.3384H110.009C110.678 29.3384 111.012 29.0526 111.012 28.4775C111.012 27.9708 111.296 27.7183 111.865 27.7183H113.419C113.953 27.7183 114.221 27.92 114.221 28.325L114.22 28.3267ZM111.812 25.7459C111.278 25.7459 111.01 25.4601 111.01 24.885V20.0266C111.01 19.4866 111.294 19.2166 111.863 19.2166H113.467C113.967 19.2166 114.22 19.5041 114.22 20.0775V24.9358C114.22 25.4759 113.952 25.7459 113.418 25.7459H111.812Z" fill="white"/>
<path d="M132.324 28.3262C132.258 27.6512 132.056 27.1463 131.722 26.8079C131.454 26.3696 131.253 25.8629 131.12 25.2895C130.818 23.7712 130.635 22.102 130.568 20.2786C130.568 19.6036 130.517 19.2494 130.417 19.2161C130.318 19.2845 130.216 19.6544 130.116 20.3295L128.812 27.667C128.712 28.2737 128.427 28.2912 127.959 27.7179L125.702 24.8828C125.268 24.3428 125.201 23.8027 125.503 23.2627C127.441 19.956 128.477 16.1268 128.612 11.7751C128.612 11.1001 128.278 10.7635 127.609 10.7635H126.054C125.385 10.7635 125.051 11.1019 125.051 11.7751C124.85 14.7452 124.531 17.3594 124.098 19.6194C123.93 20.1927 123.748 20.2102 123.547 19.6702C122.745 17.2086 122.276 14.9644 122.143 12.9393C122.043 11.591 121.959 10.241 121.892 8.89096C121.892 8.21594 122.16 7.87931 122.694 7.87931H130.818C131.487 7.87931 131.822 7.52515 131.822 6.81681C131.822 6.17686 131.487 5.85426 130.818 5.85426H128.26C127.725 5.85426 127.625 5.56847 127.959 4.99339L128.761 3.72751C129.229 2.98586 129.145 2.42831 128.511 2.05662L125.602 0.336633C124.967 0 124.582 -0.0841582 124.449 0.0841582C124.349 0.219162 124.431 0.624173 124.699 1.29919C125.233 2.48091 125.786 3.66088 126.354 4.84085C126.553 5.51587 126.387 5.8525 125.853 5.8525H122.643C122.108 5.8525 121.841 5.56671 121.841 4.99163V1.2501C121.841 0.575081 121.507 0.238448 120.838 0.238448H119.635C118.966 0.238448 118.632 0.576834 118.632 1.2501V5.04599C118.632 5.586 118.364 5.85601 117.83 5.85601H106.145C105.609 5.85601 105.341 5.51938 105.341 4.84436C105.341 4.2044 105.006 3.88355 104.338 3.88355H103.184C102.515 3.88355 102.18 4.22194 102.18 4.8952V25.4929C101.979 26.843 101.744 28.1755 101.478 29.4904C101.144 30.7388 100.676 32.0888 100.074 33.5388C99.8745 33.9438 99.7729 34.2313 99.7729 34.3997C99.8062 34.5014 100.156 34.2138 100.827 33.5388C103.536 30.4355 104.956 27.6512 105.09 25.1879C105.224 23.6362 105.308 22.1178 105.341 20.6328V8.68933C105.341 8.14932 105.625 7.87931 106.194 7.87931H117.828C118.362 7.87931 118.648 8.14932 118.681 8.68933C118.914 11.9277 119.164 14.5436 119.434 16.5336C119.802 19.2003 120.488 21.8303 121.49 24.4287C121.722 25.002 121.691 25.542 121.39 26.0487C120.42 27.5671 119.266 29.1187 117.93 30.7055C117.328 31.4138 117.11 31.8363 117.279 31.9714C117.412 32.073 117.813 31.8363 118.481 31.263L122.242 28.0247C122.776 27.553 123.246 27.6372 123.647 28.2772C124.918 30.1339 126.355 31.4822 127.961 32.3255C128.929 32.8655 130.167 33.388 131.671 33.8947C132.34 34.0648 132.657 33.8106 132.624 33.1355L132.322 28.328L132.324 28.3262Z" fill="white"/>
<path d="M126.255 34.2475C125.721 33.7075 125.385 33.4375 125.252 33.4375C125.119 33.4375 125.168 33.7759 125.403 34.4492C126.572 37.6875 128.043 41.1801 129.817 44.9251C130.118 45.565 130.435 45.5493 130.769 44.8743L132.123 42.09C132.457 41.415 132.306 40.7417 131.671 40.065L126.253 34.2458L126.255 34.2475Z" fill="white"/>
<path d="M124.701 42.9524C124.3 42.2774 124.049 41.6023 123.948 40.9273C123.713 39.984 123.764 38.634 124.098 36.879C124.165 36.2039 124.065 35.8673 123.797 35.8673C123.564 35.8673 123.347 36.2057 123.146 36.879C122.811 38.7006 122.543 40.8256 122.344 43.2557C122.277 43.9307 122.043 44.4357 121.642 44.7741C121.241 45.0441 120.772 45.1791 120.238 45.1791H114.171C113.635 45.3141 113.034 45.1457 112.365 44.6724C111.697 44.1657 111.362 43.6432 111.362 43.1032V34.0439C111.362 33.3689 111.028 33.0322 110.359 33.0322H108.804C108.135 33.0322 107.801 33.3706 107.801 34.0439V46.2416C108.102 48.0965 109.07 48.9399 110.709 48.7716H122.093C122.829 48.9749 123.664 48.6699 124.601 47.8599C125.27 47.2532 125.671 46.2907 125.804 44.9757C125.804 44.3007 125.434 43.6256 124.701 42.9506V42.9524Z" fill="white"/>
<path d="M86.2974 5.66841H78.4743C77.9385 5.66841 77.6724 5.38262 77.6724 4.80754V1.01165C77.6724 0.336633 77.3379 0 76.6691 0H75.0652C74.3964 0 74.062 0.338386 74.062 1.01165V4.85838C74.062 5.3984 73.7941 5.66841 73.26 5.66841H67.9951C67.4593 5.66841 67.1914 5.38262 67.1914 4.80754V1.01165C67.1914 0.336633 66.857 0 66.1881 0H64.5825C63.9469 0 63.63 0.354166 63.63 1.0625V4.85838C63.63 5.3984 63.3621 5.66841 62.8281 5.66841H55.0033C54.3344 5.66841 54 5.93841 54 6.47843C54 6.98513 54.3519 7.23761 55.054 7.23761H62.8264C63.3604 7.23761 63.6283 7.50761 63.6283 8.04763V11.8944C63.6283 12.5694 63.9785 12.906 64.6823 12.906H66.1864C66.8552 12.906 67.1896 12.5518 67.1896 11.8435V8.04763C67.1896 7.50761 67.4733 7.23761 68.0423 7.23761H73.2583C73.7923 7.23761 74.0602 7.50761 74.0602 8.04763V12.1468C74.0602 12.9569 74.9129 12.906 74.9129 12.906H76.6673C77.3362 12.906 77.6706 12.5518 77.6706 11.8435V8.04763C77.6706 7.50761 77.9542 7.23761 78.5233 7.23761H86.2974C86.9662 7.23761 87.3006 6.9676 87.3006 6.42758C87.3006 5.92088 86.9662 5.66841 86.2974 5.66841Z" fill="white"/>
<path d="M66.5593 35.7339L66.5418 35.7304H66.5243C66.1741 35.7567 65.7258 35.9811 65.1515 36.4159H65.148C64.8014 36.6982 64.7051 36.6667 64.7015 36.6649C64.6963 36.6614 64.6753 36.6246 64.6753 36.5229V17.17C64.6753 16.8737 64.7996 16.7492 65.0938 16.7492C65.3879 16.7492 65.7398 16.6002 65.7398 15.8901V15.6832C65.7398 15.152 65.4492 14.8574 64.9222 14.8574H55.6248C55.0978 14.8574 54.8071 15.1502 54.8071 15.6832V15.9252C54.8071 16.4564 55.11 16.751 55.6581 16.751H56.0363C56.3287 16.751 56.453 16.8772 56.453 17.1718V38.7391C56.453 39.0459 56.3164 39.2089 56.0135 39.2651L55.3937 39.3685C55.0908 39.4246 54.8824 39.5438 54.7739 39.7227C54.6776 39.8857 54.6653 40.0926 54.7441 40.3416C55.096 41.3164 55.1661 42.0265 54.956 42.4525L54.9437 42.4911C54.9034 42.7681 54.9455 42.9522 55.0768 43.0574C55.2151 43.1679 55.42 43.1644 55.6984 43.0522C58.0533 42.2685 60.0809 41.3778 61.7232 40.4117C62.0437 40.2329 62.1452 40.275 62.1627 40.2855C62.196 40.3048 62.2153 40.3714 62.2153 40.4696V47.2198C62.2153 47.751 62.5182 48.0456 63.0679 48.0456H63.8996C64.3023 48.0456 64.6753 47.9439 64.6753 47.2022V38.4638C64.6753 38.1324 64.8469 37.7923 65.1655 37.4662C65.5122 37.233 65.8642 36.949 66.2178 36.6158C66.6661 36.1354 66.7326 35.9741 66.6958 35.8549C66.6766 35.7935 66.6276 35.7497 66.561 35.7357L66.5593 35.7339ZM62.2153 37.6643C62.2153 37.9781 62.0612 38.1991 61.7495 38.3376C61.303 38.5182 60.5151 38.7145 59.4383 38.9161C58.941 38.8916 58.878 38.6602 58.878 38.4603V32.4027C58.878 32.1081 59.0128 31.9819 59.3297 31.9819H60.5309C61.2417 31.9819 61.3485 31.5523 61.3485 31.2946C61.3485 31.0368 61.2417 30.6423 60.5309 30.6423H59.2965C59.0041 30.6423 58.878 30.5056 58.878 30.1865V24.6478C58.878 24.3533 59.0128 24.227 59.3297 24.227H60.5309C61.2417 24.227 61.3485 23.7975 61.3485 23.5397C61.3485 23.282 61.2417 22.8875 60.5309 22.8875H59.2965C59.0041 22.8875 58.878 22.7508 58.878 22.4317V17.17C58.878 16.8737 59.0128 16.7492 59.3297 16.7492H61.8003C62.0927 16.7492 62.217 16.8755 62.217 17.17V37.6643H62.2153Z" fill="white"/>
<path d="M83.7638 23.1245C83.783 23.1262 83.8005 23.128 83.8198 23.128C84.0649 23.128 84.3275 22.9404 84.6217 22.5564V22.5529C84.9439 22.1111 85.3028 21.6587 85.695 21.2011C86.0364 20.7663 86.2641 20.0825 85.4096 19.304C84.2207 18.2538 83.0161 17.2211 81.8255 16.2288C81.5068 15.9728 81.2687 15.8308 81.0726 15.7939C81.0131 15.7939 80.9588 15.8202 80.9238 15.8693C80.859 15.9552 80.81 16.113 81.0376 16.9161C81.7222 19.0218 82.4628 20.9416 83.235 22.6195C83.3733 22.9299 83.5501 23.0999 83.7638 23.1245Z" fill="white"/>
<path d="M85.6776 26.7368C85.928 26.7368 86.1854 26.7385 86.357 26.5685C86.4638 26.4615 86.5163 26.3037 86.5163 26.0898V25.9706C86.5146 25.8654 86.5128 25.7111 86.5128 25.5989C86.5128 25.1588 85.9945 25.1588 85.7144 25.1588H79.9977C79.9942 24.7363 79.9924 24.3663 79.9924 24.2243V14.8196C79.9924 14.3077 79.7123 14.0254 79.2063 14.0254H78.4201C77.9123 14.0254 77.6339 14.3199 77.6339 14.8529V25.1588H73.3582C73.2479 25.1588 73.1709 25.1378 73.1463 25.0992C73.1341 25.0799 73.1043 25.001 73.2111 24.7748L75.3437 20.0655C75.5696 19.5588 75.3893 19.0538 74.808 18.5629C74.449 18.2596 74.1636 18.1474 73.9413 18.2158C73.7802 18.2649 73.6646 18.4034 73.5981 18.6278L71.8314 24.582C71.7158 24.9712 71.5162 25.1606 71.2238 25.1606H66.3248C65.81 25.1606 65.5264 25.4464 65.5264 25.9653C65.5264 26.4843 65.8223 26.7368 66.3581 26.7368H77.6339L77.6007 27.7327V30.3503C77.6444 32.0195 77.7653 33.7254 77.9631 35.4261C78.2257 37.3477 78.6582 39.0817 79.2465 40.5791C79.3866 40.9841 79.3586 41.3365 79.1607 41.6573C78.189 43.2476 76.6762 44.929 74.6644 46.6542C74.1584 47.0873 74.0918 47.2661 74.0936 47.3836C74.0936 47.452 74.1234 47.5116 74.1654 47.5449C74.2774 47.6571 74.4718 47.6343 75.1774 47.2013C76.748 46.2545 78.3553 45.0587 79.9539 43.6438C80.1097 43.4948 80.2428 43.4229 80.3391 43.4422C80.4091 43.4545 80.4739 43.5211 80.5387 43.6491C81.5735 45.3603 83.2999 46.8681 85.6776 48.134C85.83 48.2041 85.963 48.2375 86.0751 48.2375C86.1644 48.2375 86.2414 48.2164 86.308 48.1726C86.448 48.0814 86.5181 47.9061 86.5181 47.6484V44.4731C86.5181 44.0068 86.4323 43.6473 86.2729 43.4194C86.0016 42.8934 85.907 42.2517 85.9928 41.496V38.9818C85.9928 38.4909 85.949 38.1876 85.7302 38.1876C85.5813 38.1876 85.499 38.3138 85.4045 39.059C85.1856 40.3564 84.9878 41.6608 84.8144 42.932C84.7882 43.1108 84.7356 43.2283 84.6656 43.2616C84.5903 43.2984 84.4713 43.2476 84.3855 43.1985C83.7691 42.8566 83.1423 42.299 82.5295 41.5521C82.2528 41.1541 82.2003 40.8105 82.3702 40.5037C83.4872 38.5593 84.2104 36.45 84.5168 34.2391C84.8004 32.4736 85.0105 30.6887 85.1401 28.9389C85.1664 28.6794 85.1156 28.4778 84.9913 28.3393C84.867 28.2008 84.6744 28.1307 84.4187 28.1307H83.4347C82.9322 28.1307 82.6258 28.3989 82.5505 28.9074C82.4174 29.891 82.3071 30.8605 82.2231 31.7933C82.0935 33.5361 81.6996 35.3051 81.05 37.0497C81.0114 37.1549 80.9817 37.2285 80.9572 37.2759C80.9519 37.2548 80.9467 37.2285 80.9414 37.197C80.6385 35.8627 80.4179 34.3671 80.2883 32.7559L80.0257 26.8017V26.7385H85.6146H85.6776V26.7368Z" fill="white"/>
<path d="M68.7339 23.9931C68.8442 24.2999 68.9808 24.4577 69.1506 24.4752C69.1611 24.4752 69.1734 24.477 69.1839 24.477C69.338 24.477 69.4868 24.3595 69.6391 24.114L70.3727 22.8341C70.6914 22.2643 70.6511 21.7594 70.2554 21.3333C69.7582 20.788 69.2539 20.2235 68.7549 19.6502C68.5798 19.4643 68.3504 19.2627 68.1543 19.3468C67.9635 19.4292 67.953 19.7115 67.96 19.9149C68.0265 21.2246 68.2874 22.5939 68.7339 23.9913V23.9931Z" fill="white"/>
<path d="M75.0882 45.0923V28.5167C75.0882 27.9977 74.8045 27.7119 74.2897 27.7119H73.5246C73.0098 27.7119 72.7262 27.9977 72.7262 28.5167C72.7262 28.9953 72.5108 29.0567 72.3252 29.0567H69.6586C69.4712 29.0567 69.2559 28.9918 69.2559 28.4834C69.2559 27.9749 68.9722 27.7119 68.4574 27.7119H67.8901C67.3964 27.7119 67.125 28.01 67.125 28.5517V45.3957C67.125 45.9146 67.4209 46.2004 67.9567 46.2004H68.4557C68.9705 46.2004 69.2541 45.9024 69.2541 45.3623V43.9159C69.2541 43.6318 69.3854 43.5109 69.6901 43.5109H72.3235C72.6054 43.5109 72.7244 43.6318 72.7244 43.9159V45.1274C72.7244 45.6464 73.0203 45.9322 73.5561 45.9322H74.2897C74.8045 45.9322 75.0882 45.6341 75.0882 45.0923ZM72.7262 41.7961C72.7262 42.0802 72.6054 42.2012 72.3252 42.2012H69.6586C69.3767 42.2012 69.2559 42.0697 69.2559 41.7628V37.3813C69.2559 37.0973 69.3872 36.9763 69.6918 36.9763H70.8247C71.3394 36.9763 71.6231 36.6905 71.6231 36.1716C71.6231 35.6526 71.3394 35.4001 70.8247 35.4001H69.6586C69.3767 35.4001 69.2559 35.2686 69.2559 34.9618V31.0414C69.2559 30.7574 69.3872 30.6364 69.6918 30.6364H72.3585C72.5406 30.6364 72.7279 30.689 72.7279 31.0747V41.7979L72.7262 41.7961Z" fill="white"/>
<path d="M70.9911 16.2794H66.5928C66.0781 16.2794 65.7944 16.5652 65.7944 17.0842C65.7944 17.6032 66.0903 17.8556 66.6261 17.8556H75.8902C76.405 17.8556 76.6886 17.5699 76.6886 17.0509C76.6886 16.5319 76.405 16.2794 75.8902 16.2794H72.2921C72.1923 16.2794 72.159 16.2566 72.1573 16.2531C72.1573 16.2531 72.1257 16.1707 72.3306 15.8832L72.9277 15.0451C73.4617 14.3508 73.1938 13.8862 72.8734 13.6162L71.2065 12.2714C70.5569 11.7489 70.4098 11.7051 70.324 11.7051L70.2418 11.7156L70.2032 11.7612C70.1472 11.8261 70.1052 11.9348 70.1927 12.5607C70.3731 13.9826 70.6585 15.0732 71.0419 15.8025C71.2118 16.1164 71.1732 16.2128 71.1645 16.2286C71.147 16.2601 71.0839 16.2777 70.9911 16.2777V16.2794Z" fill="white"/>
</svg>
