<svg width="106" height="29" viewBox="0 0 106 29" fill="none" xmlns="http://www.w3.org/2000/svg">
<path opacity="0.5" fill-rule="evenodd" clip-rule="evenodd" d="M14.6311 28.2432C22.1593 28.2432 28.2622 22.1446 28.2622 14.6216C28.2622 7.09861 22.1593 1 14.6311 1C7.10285 1 1 7.09861 1 14.6216C1 22.1446 7.10285 28.2432 14.6311 28.2432Z" stroke="#E7E4DB" stroke-width="1.5"/>
<path d="M20.9705 11.8114C20.9803 12.1659 20.9877 12.4811 20.9926 12.7568C20.9975 13.0326 21 13.6136 21 14.5C21 15.3864 20.9975 15.9674 20.9926 16.2432C20.9877 16.5189 20.9803 16.8292 20.9705 17.1739C20.9508 17.5284 20.9138 17.8288 20.8597 18.075C20.8055 18.3212 20.739 18.5477 20.6602 18.7545C20.5814 18.9712 20.483 19.1731 20.3648 19.3602C20.2466 19.5473 20.0939 19.7295 19.9068 19.9068C19.7295 20.0939 19.5473 20.2466 19.3602 20.3648C19.1731 20.483 18.9712 20.5814 18.7545 20.6602C18.5477 20.739 18.3212 20.8055 18.075 20.8597C17.8288 20.9138 17.5333 20.9508 17.1886 20.9705C16.8341 20.9803 16.5189 20.9877 16.2432 20.9926C15.9674 20.9975 15.3864 21 14.5 21C13.6136 21 13.0326 20.9975 12.7568 20.9926C12.4811 20.9877 12.1708 20.9803 11.8261 20.9705C11.4716 20.9508 11.1712 20.9138 10.925 20.8597C10.6788 20.8055 10.4523 20.739 10.2455 20.6602C10.0288 20.5814 9.8269 20.483 9.63977 20.3648C9.45265 20.2466 9.27045 20.0939 9.09318 19.9068C8.90606 19.7295 8.75341 19.5473 8.63523 19.3602C8.51705 19.1731 8.41856 18.9712 8.33977 18.7545C8.26098 18.5477 8.19451 18.3212 8.14034 18.075C8.08618 17.8288 8.04924 17.5333 8.02954 17.1886C8.0197 16.8341 8.01231 16.5189 8.00738 16.2432C8.00246 15.9674 8 15.3864 8 14.5C8 13.6136 8.00246 13.0326 8.00738 12.7568C8.01231 12.4811 8.0197 12.1708 8.02954 11.8261C8.04924 11.4716 8.08618 11.1712 8.14034 10.925C8.19451 10.6788 8.26098 10.4523 8.33977 10.2455C8.41856 10.0288 8.51705 9.82689 8.63523 9.63977C8.75341 9.45265 8.90606 9.27046 9.09318 9.09318C9.27045 8.90606 9.45265 8.75341 9.63977 8.63523C9.8269 8.51704 10.0288 8.41856 10.2455 8.33977C10.4523 8.26098 10.6788 8.19451 10.925 8.14034C11.1712 8.08617 11.4667 8.04924 11.8114 8.02955C12.1659 8.0197 12.4811 8.01231 12.7568 8.00739C13.0326 8.00246 13.6136 8 14.5 8C15.3864 8 15.9674 8.00246 16.2432 8.00739C16.5189 8.01231 16.8292 8.0197 17.1739 8.02955C17.5284 8.04924 17.8288 8.08617 18.075 8.14034C18.3212 8.19451 18.5477 8.26098 18.7545 8.33977C18.9712 8.41856 19.1731 8.51704 19.3602 8.63523C19.5473 8.75341 19.7295 8.90606 19.9068 9.09318C20.0939 9.27046 20.2466 9.45265 20.3648 9.63977C20.483 9.82689 20.5814 10.0288 20.6602 10.2455C20.739 10.4523 20.8055 10.6788 20.8597 10.925C20.9138 11.1712 20.9508 11.4667 20.9705 11.8114ZM19.7886 17.1295C19.8083 16.7848 19.8206 16.4771 19.8256 16.2062C19.8305 15.9354 19.833 15.3667 19.833 14.5C19.833 13.6333 19.8305 13.0646 19.8256 12.7938C19.8206 12.5229 19.8083 12.2152 19.7886 11.8705C19.7788 11.5553 19.7517 11.3042 19.7074 11.117C19.6631 10.9299 19.6163 10.7773 19.567 10.6591C19.508 10.5114 19.4415 10.3784 19.3676 10.2602C19.2938 10.142 19.1977 10.0288 19.0795 9.92045C18.9712 9.80227 18.858 9.70625 18.7398 9.63239C18.6216 9.55852 18.4886 9.49205 18.3409 9.43295C18.2227 9.38371 18.0701 9.33693 17.883 9.29261C17.6958 9.2483 17.4447 9.22121 17.1295 9.21136C16.7848 9.19167 16.4771 9.17936 16.2063 9.17443C15.9354 9.16951 15.3667 9.16705 14.5 9.16705C13.6333 9.16705 13.0646 9.16951 12.7937 9.17443C12.5229 9.17936 12.2152 9.19167 11.8705 9.21136C11.5553 9.22121 11.3042 9.2483 11.117 9.29261C10.9299 9.33693 10.7773 9.38371 10.6591 9.43295C10.5114 9.49205 10.3784 9.55852 10.2602 9.63239C10.142 9.70625 10.0288 9.80227 9.92046 9.92045C9.80227 10.0288 9.70625 10.142 9.63238 10.2602C9.55852 10.3784 9.49205 10.5114 9.43295 10.6591C9.38371 10.7773 9.33693 10.9299 9.29262 11.117C9.2483 11.3042 9.22121 11.5553 9.21137 11.8705C9.19167 12.2152 9.17936 12.5229 9.17443 12.7938C9.16951 13.0646 9.16705 13.6333 9.16705 14.5C9.16705 15.3667 9.16951 15.9354 9.17443 16.2062C9.17936 16.4771 9.19167 16.7848 9.21137 17.1295C9.22121 17.4447 9.2483 17.6958 9.29262 17.883C9.33693 18.0701 9.38371 18.2227 9.43295 18.3409C9.49205 18.4886 9.55852 18.6216 9.63238 18.7398C9.70625 18.858 9.80227 18.9712 9.92046 19.0795C10.0288 19.1977 10.142 19.2938 10.2602 19.3676C10.3784 19.4415 10.5114 19.508 10.6591 19.567C10.7773 19.6163 10.9299 19.6631 11.117 19.7074C11.3042 19.7517 11.5553 19.7788 11.8705 19.7886C12.2152 19.8083 12.5229 19.8206 12.7937 19.8256C13.0646 19.8305 13.6333 19.833 14.5 19.833C15.3667 19.833 15.9354 19.8305 16.2063 19.8256C16.4771 19.8206 16.7848 19.8083 17.1295 19.7886C17.4447 19.7788 17.6958 19.7517 17.883 19.7074C18.0701 19.6631 18.2227 19.6163 18.3409 19.567C18.4886 19.508 18.6216 19.4415 18.7398 19.3676C18.858 19.2938 18.9712 19.1977 19.0795 19.0795C19.1977 18.9712 19.2938 18.858 19.3676 18.7398C19.4415 18.6216 19.508 18.4886 19.567 18.3409C19.6163 18.2227 19.6631 18.0701 19.7074 17.883C19.7517 17.6958 19.7788 17.4447 19.7886 17.1295ZM14.5 11.1614C14.9629 11.1614 15.3962 11.25 15.8 11.4273C16.2038 11.5947 16.5583 11.8311 16.8636 12.1364C17.1689 12.4417 17.4053 12.7962 17.5727 13.2C17.75 13.6038 17.8386 14.0371 17.8386 14.5C17.8386 14.9629 17.75 15.3962 17.5727 15.8C17.4053 16.2038 17.1689 16.5583 16.8636 16.8636C16.5583 17.1689 16.2038 17.4053 15.8 17.5727C15.3962 17.75 14.9629 17.8386 14.5 17.8386C14.0371 17.8386 13.6038 17.75 13.2 17.5727C12.7962 17.4053 12.4417 17.1689 12.1364 16.8636C11.8311 16.5583 11.5947 16.2038 11.4273 15.8C11.25 15.3962 11.1614 14.9629 11.1614 14.5C11.1614 14.0371 11.25 13.6038 11.4273 13.2C11.5947 12.7962 11.8311 12.4417 12.1364 12.1364C12.4417 11.8311 12.7962 11.5947 13.2 11.4273C13.6038 11.25 14.0371 11.1614 14.5 11.1614ZM14.5 16.6716C15.1008 16.6716 15.6129 16.4599 16.0364 16.0364C16.4599 15.6129 16.6716 15.1008 16.6716 14.5C16.6716 13.8992 16.4599 13.3871 16.0364 12.9636C15.6129 12.5401 15.1008 12.3284 14.5 12.3284C13.8992 12.3284 13.3871 12.5401 12.9636 12.9636C12.5401 13.3871 12.3284 13.8992 12.3284 14.5C12.3284 15.1008 12.5401 15.6129 12.9636 16.0364C13.3871 16.4599 13.8992 16.6716 14.5 16.6716ZM18.725 10.8511C18.7742 11.058 18.7422 11.2525 18.629 11.4347C18.5157 11.6169 18.3557 11.7326 18.1489 11.7818C17.942 11.8311 17.7475 11.7991 17.5653 11.6858C17.3831 11.5725 17.2674 11.4125 17.2182 11.2057C17.1689 10.9989 17.2009 10.8044 17.3142 10.6222C17.4275 10.44 17.5875 10.3242 17.7943 10.275C18.0011 10.2159 18.1956 10.2455 18.3778 10.3636C18.56 10.4818 18.6758 10.6443 18.725 10.8511Z" fill="#E7E4DB"/>
<path opacity="0.5" fill-rule="evenodd" clip-rule="evenodd" d="M52.8933 28.2432C60.4215 28.2432 66.5244 22.1446 66.5244 14.6216C66.5244 7.09861 60.4215 1 52.8933 1C45.3651 1 39.2622 7.09861 39.2622 14.6216C39.2622 22.1446 45.3651 28.2432 52.8933 28.2432Z" stroke="#E7E4DB" stroke-width="1.5"/>
<path d="M54.1081 10.1667H55.9541C56.124 10.1667 56.2618 10.0453 56.2618 9.89583V8.27083C56.2618 8.12133 56.124 8 55.9541 8H54.1081C52.2423 8 50.7236 9.33629 50.7236 10.9792V12.875H48.5699C48.4 12.875 48.2622 12.9963 48.2622 13.1458V14.7708C48.2622 14.9203 48.4 15.0417 48.5699 15.0417H50.7236V20.7292C50.7236 20.8787 50.8615 21 51.0313 21H52.8774C53.0472 21 53.185 20.8787 53.185 20.7292V15.0417H55.3388C55.4711 15.0417 55.5886 14.9669 55.6311 14.8564L56.2464 13.2314C56.2778 13.1491 56.2618 13.0581 56.204 12.9871C56.1455 12.9167 56.0532 12.875 55.9541 12.875H53.185V10.9792C53.185 10.5312 53.5992 10.1667 54.1081 10.1667Z" fill="#E7E4DB"/>
<path opacity="0.5" fill-rule="evenodd" clip-rule="evenodd" d="M91.1555 28.2432C98.6837 28.2432 104.787 22.1446 104.787 14.6216C104.787 7.09861 98.6837 1 91.1555 1C83.6273 1 77.5244 7.09861 77.5244 14.6216C77.5244 22.1446 83.6273 28.2432 91.1555 28.2432Z" stroke="#E7E4DB" stroke-width="1.5"/>
<path d="M98.4449 11.3399C98.3524 11.2426 98.2033 11.2182 98.0809 11.2782C98.0048 11.3154 97.8618 11.3643 97.692 11.4127C97.9062 11.1401 98.0785 10.835 98.1546 10.5608C98.1874 10.4426 98.1393 10.318 98.0347 10.2475C97.93 10.1776 97.7906 10.1776 97.6859 10.2475C97.5209 10.3576 96.7248 10.6883 96.2214 10.7954C95.0837 9.84223 93.7598 9.74324 92.3836 10.5119C91.2648 11.1367 91.0213 12.4072 91.0688 13.1816C88.5081 12.9458 86.9164 11.652 86.0204 10.5812C85.9577 10.506 85.8566 10.4664 85.7617 10.4723C85.6619 10.4793 85.5718 10.5322 85.5206 10.6143C85.097 11.2985 84.9795 12.0549 85.1822 12.802C85.293 13.2096 85.4866 13.5689 85.7112 13.86C85.6034 13.8093 85.4993 13.7459 85.4013 13.6702C85.3112 13.5991 85.1853 13.5858 85.0787 13.6329C84.9728 13.6812 84.9053 13.7837 84.9053 13.8961C84.9053 15.1789 85.744 16.0348 86.5274 16.482C86.4008 16.4675 86.2687 16.4407 86.1354 16.4017C86.021 16.3685 85.8968 16.4017 85.8177 16.4879C85.7385 16.5735 85.7197 16.6957 85.769 16.8C86.2091 17.731 87.043 18.3716 88.0747 18.6039C87.1738 19.1099 85.968 19.358 84.8639 19.2363C84.7208 19.217 84.5845 19.3038 84.5394 19.4354C84.4944 19.567 84.5534 19.7114 84.6794 19.7789C86.3545 20.6786 87.869 21 89.1776 21C91.0822 21 92.5522 20.3199 93.447 19.751C95.8592 18.2196 97.3627 15.47 97.1533 13.0099C97.5398 12.7368 98.118 12.2325 98.4766 11.6904C98.5508 11.5809 98.5374 11.4365 98.4449 11.3399Z" fill="#E7E4DB"/>
</svg>
