<svg width="14" height="20" viewBox="0 0 14 20" fill="none" xmlns="http://www.w3.org/2000/svg">
<path d="M7.00041 20C3.13999 20 0 16.981 0 13.2701V6.72994C0 3.01902 3.13999 0 7.00041 0C10.8608 0 14 3.01902 14 6.72994V13.2701C14 16.981 10.86 20 7.00041 20ZM7.00041 0.379701C3.35829 0.379701 0.394915 3.22856 0.394915 6.72994V13.2701C0.394915 16.7715 3.35829 19.6203 7.00041 19.6203C10.6425 19.6203 13.6051 16.7714 13.6051 13.2701V6.72994C13.6051 3.22848 10.6425 0.379701 7.00041 0.379701Z" fill="#E7E4DB"/>
<path d="M7.00047 18.9098C3.76643 18.9098 1.13464 16.3799 1.13464 13.27V6.72994C1.13464 3.62004 3.76633 1.09009 7.00047 1.09009C10.2346 1.09009 12.8663 3.62004 12.8663 6.72994V13.2701C12.8663 16.38 10.2346 18.9099 7.00047 18.9099V18.9098ZM7.00047 1.46979C3.9839 1.46979 1.52956 3.82958 1.52956 6.72994V13.2701C1.52956 16.1704 3.9839 18.5302 7.00047 18.5302C10.017 18.5302 12.4714 16.1704 12.4714 13.2701V6.72994C12.4714 3.82958 10.017 1.46979 7.00047 1.46979Z" fill="#E7E4DB"/>
<path d="M11.7939 13.9925C11.7718 13.8147 11.7568 13.6204 11.749 13.41C11.7221 13.4083 11.6914 13.4083 11.6551 13.4096C11.6199 13.411 11.5868 13.4168 11.5565 13.4266C11.5141 13.4403 11.4779 13.4608 11.4487 13.4882C11.42 13.515 11.404 13.5493 11.401 13.5911C11.4042 13.7575 11.3934 13.8951 11.369 14.0047C11.3441 14.1139 11.2964 14.2082 11.2244 14.2873C11.153 14.3662 11.0538 14.4363 10.9283 14.4975C10.8032 14.5584 10.6343 14.6231 10.4223 14.6919L8.39485 15.3488L10.7895 10.0684C10.7949 10.0546 10.7893 10.0383 10.7915 10.0238C10.7942 10.0212 10.801 10.0186 10.8032 10.016C10.8306 9.98272 10.8459 9.94352 10.8488 9.89822L10.9335 8.55719C10.9398 8.45693 10.9758 8.37879 11.0429 8.32296C11.1096 8.26765 11.2251 8.21934 11.3894 8.17934C11.4148 8.17129 11.4373 8.15696 11.4564 8.13705C11.4751 8.11749 11.4864 8.08263 11.4897 8.03219C11.4916 8.0021 11.4891 7.96228 11.4817 7.9137C11.3539 7.93936 11.2044 7.96653 11.0334 7.99547C10.8622 8.02405 10.7105 8.04652 10.5779 8.06298C10.4453 8.07944 10.2904 8.09501 10.1126 8.10961C9.93484 8.12386 9.77222 8.13545 9.62515 8.14386C9.61218 8.18518 9.60463 8.22624 9.60205 8.26624C9.60012 8.29641 9.60619 8.32552 9.61935 8.35375C9.63288 8.38198 9.65985 8.39623 9.70016 8.39614C9.89223 8.39729 10.0274 8.41897 10.1052 8.46171C10.1834 8.50436 10.2185 8.59329 10.2099 8.72903L10.1372 9.88149C10.0332 9.92432 9.90576 9.96503 9.75427 10.0039C9.60242 10.0427 9.45287 10.0711 9.30515 10.0894C9.01479 10.1255 8.74982 10.1009 8.50989 10.0162C8.26996 9.93131 8.06648 9.79451 7.89907 9.60612C7.73166 9.41737 7.60484 9.18421 7.5187 8.90556C7.43246 8.62736 7.40071 8.31491 7.42261 7.96839C7.4413 7.67187 7.49928 7.39207 7.59683 7.12829C7.69439 6.8645 7.82912 6.6309 8.00095 6.42782C8.17314 6.22438 8.38482 6.05484 8.63616 5.91892C8.88714 5.78345 9.17575 5.69532 9.50164 5.65488C9.90908 5.60435 10.2178 5.63851 10.4279 5.75699C10.6375 5.87548 10.7779 6.09705 10.8483 6.42233C10.8643 6.48498 10.9132 6.51126 10.9948 6.50117C11.0152 6.49861 11.041 6.49303 11.0718 6.48427C11.1027 6.47551 11.1232 6.4656 11.1343 6.45401C11.0997 6.27907 11.0745 6.09926 11.0584 5.91423C11.0423 5.72921 11.0345 5.54966 11.0356 5.37517C10.875 5.35499 10.7257 5.33995 10.5873 5.32968C10.4488 5.31942 10.3119 5.31269 10.1755 5.30995C10.0391 5.30685 9.90116 5.30995 9.76191 5.31995C9.62184 5.32995 9.47606 5.34437 9.32292 5.36331C8.73427 5.43631 8.1702 5.6962 7.67524 6.02847C6.84639 6.58488 6.41144 7.501 6.36285 8.27049C6.35438 8.40392 6.35273 8.53657 6.35926 8.66691C6.25526 8.72186 6.13617 8.77469 5.98662 8.82309L4.58026 9.37384L6.92609 4.13218C6.94165 4.09174 6.94211 4.04077 6.92665 3.97998L3.42635 5.11422C3.23225 5.17713 3.06097 5.22642 2.91262 5.26155C2.76435 5.29712 2.63247 5.33358 2.51743 5.37083C2.39603 5.41021 2.34422 5.47772 2.36207 5.5732C2.37754 5.68487 2.39613 5.82964 2.41886 6.00768C2.44095 6.18545 2.45604 6.37968 2.46377 6.59001C2.49064 6.59178 2.52138 6.59178 2.55765 6.59046C2.5928 6.58904 2.62584 6.58338 2.65621 6.57347C2.69855 6.55975 2.73481 6.53922 2.76398 6.51188C2.7927 6.48507 2.8088 6.45074 2.81166 6.40897C2.80862 6.24252 2.8193 6.10484 2.84368 5.99538C2.86863 5.88609 2.9163 5.79186 2.98827 5.71275C3.05978 5.63373 3.1589 5.56373 3.28443 5.50259C3.4096 5.44162 3.57839 5.37694 3.79043 5.30818L5.81783 4.65125L3.42322 9.93167C3.41779 9.94547 3.4234 9.96175 3.42119 9.97617C3.41852 9.97874 3.41171 9.9814 3.4095 9.98396C3.38208 10.0172 3.3668 10.0564 3.36395 10.1018L3.27928 11.4429C3.27293 11.5431 3.23685 11.6212 3.16985 11.677C3.10322 11.7323 2.98772 11.7806 2.82334 11.8206C2.79794 11.8287 2.77549 11.8429 2.75634 11.8629C2.73766 11.8824 2.72634 11.9173 2.72312 11.9677C2.72119 11.9978 2.72367 12.0376 2.73094 12.0862C2.85878 12.0605 3.00824 12.0333 3.17942 12.0043C3.35051 11.9757 3.50218 11.9533 3.63489 11.9368C3.76751 11.9203 3.9225 11.9049 4.10021 11.8902C4.27793 11.8759 4.44055 11.8643 4.58753 11.8559C4.60051 11.8146 4.60805 11.7735 4.61063 11.7335C4.61256 11.7035 4.60649 11.6743 4.59333 11.6461C4.5798 11.6179 4.55283 11.6036 4.51261 11.6037C4.32054 11.6026 4.18525 11.5809 4.10748 11.5382C4.02926 11.4954 3.99419 11.4065 4.00275 11.2708L4.07546 10.1183C4.17945 10.0755 4.30701 10.0348 4.45841 9.99591C4.61026 9.95706 4.75982 9.92866 4.90753 9.91034C5.19789 9.87432 5.46286 9.89875 5.70279 9.98361C5.94272 10.0685 6.1462 10.2053 6.31361 10.3937C6.48102 10.5824 6.60784 10.8156 6.69399 11.0942C6.78013 11.3725 6.81197 11.6849 6.79007 12.0314C6.77129 12.328 6.71341 12.6077 6.61576 12.8715C6.5182 13.1354 6.38347 13.369 6.21164 13.572C6.03945 13.7755 5.82777 13.9449 5.57643 14.0809C5.32545 14.2163 5.03684 14.3046 4.71095 14.3449C4.30352 14.3954 3.99474 14.3613 3.78472 14.2429C3.57507 14.1244 3.43472 13.9028 3.36432 13.5775C3.34839 13.5149 3.29934 13.4886 3.2178 13.4987C3.19737 13.5013 3.1716 13.5068 3.14077 13.5156C3.10994 13.5244 3.08941 13.5343 3.07828 13.5459C3.11297 13.7208 3.1381 13.9006 3.1542 14.0856C3.17031 14.2707 3.17813 14.4502 3.17703 14.6246C3.33763 14.6449 3.4869 14.6599 3.62532 14.6701C3.76374 14.6804 3.90069 14.6872 4.03708 14.6898C4.17347 14.6929 4.31143 14.6898 4.45068 14.6798C4.59075 14.6698 4.73653 14.6555 4.88967 14.6365C5.47832 14.5635 6.04239 14.3036 6.53735 13.9713C7.3662 13.4149 7.80115 12.4989 7.84974 11.7293C7.85821 11.5959 7.85986 11.4632 7.85333 11.3329C7.95733 11.2779 8.07642 11.2251 8.22597 11.1766L9.63233 10.6259L7.2865 15.8676C7.27094 15.908 7.27048 15.959 7.28594 16.0199L10.7862 14.8856C10.9803 14.8226 11.1516 14.7734 11.3 14.7382C11.4482 14.7027 11.5801 14.6662 11.6952 14.6289C11.8166 14.5896 11.8684 14.522 11.8505 14.4265C11.8351 14.3149 11.8165 14.1701 11.7937 13.9921L11.7939 13.9925ZM4.52522 9.66673L6.26033 9.04643C6.31039 9.03024 6.35282 9.02139 6.40132 9.0067C6.45157 9.25597 6.54765 9.48967 6.71847 9.69231C6.75961 9.74115 6.80912 9.77911 6.8544 9.82265C6.21376 9.51622 5.37764 9.50595 4.52522 9.66673ZM7.95263 10.9536C7.90257 10.9698 7.86014 10.9787 7.81164 10.9934C7.76139 10.7442 7.66531 10.5105 7.49449 10.3078C7.45335 10.259 7.40384 10.221 7.35856 10.1775C7.9992 10.484 8.83542 10.4941 9.68792 10.3333L7.95272 10.9536H7.95263Z" fill="#E7E4DB"/>
</svg>
