<svg width="380" height="377" viewBox="0 0 380 377" fill="none" xmlns="http://www.w3.org/2000/svg">
<path d="M44.573 334.521C43.0784 343.098 42.2662 348.557 42.1362 350.896C41.5514 350.701 39.7969 350.604 36.8727 350.604H4.99949L4.80454 346.217L16.2087 335.398C19.9776 331.759 23.0318 328.542 25.3711 325.748C27.7754 322.954 29.6598 319.997 31.0244 316.878C32.454 313.759 33.1688 310.413 33.1688 306.839C33.1688 302.745 32.2916 299.593 30.5371 297.384C28.7826 295.175 26.4108 294.07 23.4216 294.07C20.4975 294.07 18.1257 294.752 16.3062 296.117C14.4867 297.416 13.577 299.236 13.577 301.575C13.577 302.355 13.7719 303.33 14.1618 304.499C14.4867 305.279 14.6492 306.059 14.6492 306.839C14.6492 308.138 14.1618 309.081 13.1871 309.665C12.2774 310.185 11.2702 310.445 10.1655 310.445C8.67092 310.445 7.46877 309.958 6.55903 308.983C5.71428 308.008 5.2919 306.644 5.2919 304.889C5.2919 302.615 5.9742 300.471 7.33881 298.456C8.70341 296.377 10.8153 294.687 13.6745 293.388C16.5336 292.088 20.0426 291.438 24.2014 291.438C29.3999 291.438 33.6562 292.673 36.9702 295.142C40.2842 297.546 41.9413 301.575 41.9413 307.229C41.9413 309.893 41.4214 312.46 40.3817 314.929C39.407 317.333 37.62 320.062 35.0208 323.116C32.4215 326.171 28.6851 329.875 23.8115 334.228L12.5048 344.17H29.7573C33.3962 344.17 36.093 343.488 37.8474 342.123C39.6019 340.694 40.6741 338.16 41.064 334.521H44.573ZM60.2522 321.654C60.2522 311.712 62.3641 304.207 66.5879 299.138C70.8117 294.005 76.4325 291.438 83.4505 291.438C90.5334 291.438 96.1868 294.037 100.411 299.236C104.699 304.369 106.844 311.842 106.844 321.654C106.844 331.402 104.732 338.842 100.508 343.975C96.2843 349.044 90.5984 351.578 83.4505 351.578C76.3026 351.578 70.6492 349.011 66.4904 343.878C62.3316 338.679 60.2522 331.272 60.2522 321.654ZM68.9272 321.557C68.9272 328.51 69.4796 333.968 70.5842 337.932C71.6889 341.896 73.281 344.69 75.3603 346.315C77.5047 347.874 80.2014 348.654 83.4505 348.654C86.7645 348.654 89.4937 347.842 91.6381 346.217C93.8475 344.528 95.5045 341.701 96.6092 337.737C97.7788 333.773 98.3637 328.38 98.3637 321.557C98.3637 314.539 97.7788 309.048 96.6092 305.084C95.5045 301.055 93.8475 298.229 91.6381 296.604C89.4937 294.915 86.7645 294.07 83.4505 294.07C78.5769 294.07 74.938 296.149 72.5337 300.308C70.1294 304.467 68.9272 311.55 68.9272 321.557ZM161.924 334.521C160.429 343.098 159.617 348.557 159.487 350.896C158.902 350.701 157.147 350.604 154.223 350.604H122.35L122.155 346.217L133.559 335.398C137.328 331.759 140.382 328.542 142.722 325.748C145.126 322.954 147.01 319.997 148.375 316.878C149.805 313.759 150.519 310.413 150.519 306.839C150.519 302.745 149.642 299.593 147.888 297.384C146.133 295.175 143.761 294.07 140.772 294.07C137.848 294.07 135.476 294.752 133.657 296.117C131.837 297.416 130.928 299.236 130.928 301.575C130.928 302.355 131.123 303.33 131.512 304.499C131.837 305.279 132 306.059 132 306.839C132 308.138 131.512 309.081 130.538 309.665C129.628 310.185 128.621 310.445 127.516 310.445C126.022 310.445 124.819 309.958 123.91 308.983C123.065 308.008 122.642 306.644 122.642 304.889C122.642 302.615 123.325 300.471 124.689 298.456C126.054 296.377 128.166 294.687 131.025 293.388C133.884 292.088 137.393 291.438 141.552 291.438C146.75 291.438 151.007 292.673 154.321 295.142C157.635 297.546 159.292 301.575 159.292 307.229C159.292 309.893 158.772 312.46 157.732 314.929C156.758 317.333 154.971 320.062 152.371 323.116C149.772 326.171 146.036 329.875 141.162 334.228L129.855 344.17H147.108C150.747 344.17 153.444 343.488 155.198 342.123C156.953 340.694 158.025 338.16 158.415 334.521H161.924ZM195.927 319.608C211.783 319.997 219.711 325.066 219.711 334.813C219.711 338.387 218.703 341.441 216.689 343.975C214.675 346.51 211.978 348.427 208.599 349.726C205.22 350.961 201.483 351.578 197.39 351.578C193.621 351.578 190.274 351.026 187.35 349.921C184.426 348.817 182.151 347.354 180.527 345.535C178.902 343.651 178.09 341.604 178.09 339.394C178.09 337.9 178.48 336.73 179.26 335.885C180.105 334.976 181.307 334.521 182.866 334.521C184.296 334.521 185.401 334.878 186.18 335.593C187.025 336.308 187.447 337.217 187.447 338.322C187.447 339.102 187.285 339.882 186.96 340.661C186.895 340.856 186.798 341.181 186.668 341.636C186.538 342.091 186.473 342.578 186.473 343.098C186.473 344.918 187.447 346.347 189.397 347.387C191.346 348.427 193.751 348.946 196.61 348.946C201.288 348.946 204.862 347.614 207.332 344.95C209.801 342.221 211.036 338.939 211.036 335.106C211.036 330.882 209.379 327.633 206.065 325.358C202.751 323.019 197.487 321.719 190.274 321.459V318.73C195.018 318.08 199.047 316.358 202.361 313.564C205.675 310.77 207.332 307.326 207.332 303.232C207.332 300.438 206.487 298.229 204.797 296.604C203.173 294.915 200.671 294.07 197.292 294.07C194.628 294.07 192.354 294.622 190.469 295.727C188.65 296.832 187.74 298.261 187.74 300.016C187.74 300.471 187.805 300.925 187.935 301.38C188.065 301.835 188.162 302.128 188.227 302.258C188.617 303.297 188.812 304.11 188.812 304.694C188.812 305.929 188.325 306.871 187.35 307.521C186.44 308.171 185.368 308.496 184.133 308.496C182.509 308.496 181.307 308.041 180.527 307.131C179.747 306.156 179.357 304.922 179.357 303.427C179.357 301.153 180.235 299.106 181.989 297.286C183.809 295.402 186.18 293.972 189.104 292.998C192.029 291.958 195.18 291.438 198.559 291.438C203.433 291.438 207.559 292.478 210.938 294.557C214.317 296.572 216.007 299.496 216.007 303.33C216.007 307.489 214.057 311.03 210.158 313.954C206.259 316.813 201.516 318.633 195.927 319.413V319.608ZM236.87 346.022C236.87 344.333 237.455 342.968 238.625 341.929C239.859 340.889 241.386 340.369 243.206 340.369C245.025 340.369 246.52 340.889 247.69 341.929C248.924 342.968 249.542 344.333 249.542 346.022C249.542 347.712 248.924 349.076 247.69 350.116C246.52 351.091 245.025 351.578 243.206 351.578C241.386 351.578 239.859 351.091 238.625 350.116C237.455 349.076 236.87 347.712 236.87 346.022ZM266.112 321.654C266.112 311.712 268.224 304.207 272.447 299.138C276.671 294.005 282.292 291.438 289.31 291.438C296.393 291.438 302.046 294.037 306.27 299.236C310.559 304.369 312.703 311.842 312.703 321.654C312.703 331.402 310.591 338.842 306.368 343.975C302.144 349.044 296.458 351.578 289.31 351.578C282.162 351.578 276.509 349.011 272.35 343.878C268.191 338.679 266.112 331.272 266.112 321.654ZM274.787 321.557C274.787 328.51 275.339 333.968 276.444 337.932C277.548 341.896 279.14 344.69 281.22 346.315C283.364 347.874 286.061 348.654 289.31 348.654C292.624 348.654 295.353 347.842 297.498 346.217C299.707 344.528 301.364 341.701 302.469 337.737C303.638 333.773 304.223 328.38 304.223 321.557C304.223 314.539 303.638 309.048 302.469 305.084C301.364 301.055 299.707 298.229 297.498 296.604C295.353 294.915 292.624 294.07 289.31 294.07C284.436 294.07 280.797 296.149 278.393 300.308C275.989 304.467 274.787 311.55 274.787 321.557ZM344.682 319.608C360.538 319.997 368.465 325.066 368.465 334.813C368.465 338.387 367.458 341.441 365.444 343.975C363.429 346.51 360.733 348.427 357.354 349.726C353.975 350.961 350.238 351.578 346.144 351.578C342.375 351.578 339.029 351.026 336.105 349.921C333.181 348.817 330.906 347.354 329.282 345.535C327.657 343.651 326.845 341.604 326.845 339.394C326.845 337.9 327.235 336.73 328.015 335.885C328.859 334.976 330.061 334.521 331.621 334.521C333.051 334.521 334.155 334.878 334.935 335.593C335.78 336.308 336.202 337.217 336.202 338.322C336.202 339.102 336.04 339.882 335.715 340.661C335.65 340.856 335.552 341.181 335.422 341.636C335.292 342.091 335.227 342.578 335.227 343.098C335.227 344.918 336.202 346.347 338.152 347.387C340.101 348.427 342.505 348.946 345.365 348.946C350.043 348.946 353.617 347.614 356.086 344.95C358.556 342.221 359.79 338.939 359.79 335.106C359.79 330.882 358.133 327.633 354.819 325.358C351.505 323.019 346.242 321.719 339.029 321.459V318.73C343.773 318.08 347.801 316.358 351.115 313.564C354.429 310.77 356.086 307.326 356.086 303.232C356.086 300.438 355.242 298.229 353.552 296.604C351.928 294.915 349.426 294.07 346.047 294.07C343.383 294.07 341.108 294.622 339.224 295.727C337.404 296.832 336.495 298.261 336.495 300.016C336.495 300.471 336.56 300.925 336.69 301.38C336.82 301.835 336.917 302.128 336.982 302.258C337.372 303.297 337.567 304.11 337.567 304.694C337.567 305.929 337.079 306.871 336.105 307.521C335.195 308.171 334.123 308.496 332.888 308.496C331.264 308.496 330.061 308.041 329.282 307.131C328.502 306.156 328.112 304.922 328.112 303.427C328.112 301.153 328.989 299.106 330.744 297.286C332.563 295.402 334.935 293.972 337.859 292.998C340.783 291.958 343.935 291.438 347.314 291.438C352.188 291.438 356.314 292.478 359.693 294.557C363.072 296.572 364.761 299.496 364.761 303.33C364.761 307.489 362.812 311.03 358.913 313.954C355.014 316.813 350.271 318.633 344.682 319.413V319.608Z" fill="white"/>
<path d="M171.552 160.156L172.385 155.992H168.139H154.562H151.554L151.118 158.97C149.818 167.85 146.47 173.353 141.598 176.351L141.572 176.367L141.546 176.384C136.607 179.545 128.157 181.405 115.574 181.405H60.4439L97.0889 154.626L97.1094 154.611L97.1297 154.595C114.132 141.785 127.605 130.546 137.5 120.887C147.428 111.196 154.781 101.607 159.417 92.1042C164.3 82.5688 166.746 72.4035 166.746 61.6538C166.746 42.5375 159.436 27.8096 144.675 18.0396C130.477 8.25852 112.213 3.51887 90.1614 3.51887C76.1173 3.51887 63.4909 5.66123 52.341 10.0243L52.3288 10.029L52.3166 10.0339C41.464 14.3749 32.8181 20.2459 26.5673 27.7469L26.545 27.7737L26.5233 27.8008C20.511 35.3162 17.4057 43.6113 17.4057 52.6028C17.4057 60.5176 19.7257 67.308 24.5654 72.6854L27.1529 70.3566L24.5654 72.6854C29.5489 78.2226 36.5029 80.8 44.9067 80.8C51.4787 80.8 57.2182 79.2783 61.883 75.9855L61.8984 75.9746L61.9137 75.9636C67.0796 72.2327 69.6227 66.8433 69.6227 60.2613C69.6227 57.5805 69.0996 53.8203 68.1626 49.1352L68.1324 48.9838L68.0888 48.8357C66.9907 45.1022 66.4897 41.9632 66.4897 39.3745C66.4897 34.0507 68.304 30.0825 71.8318 27.0965C75.7488 23.9765 80.7336 22.317 87.0284 22.317C94.8639 22.317 100.933 25.1436 105.573 30.7926L105.593 30.8167L105.613 30.8404C110.172 36.1924 112.789 44.952 112.789 57.8245C112.789 75.552 108.423 91.1308 99.7676 104.674C90.9146 118.292 78.2438 132.927 61.6749 148.576C61.6708 148.58 61.6667 148.584 61.6627 148.588L19.2175 187.902L18.0445 188.988L18.1044 190.586L19.1487 218.435L19.2744 221.786H22.6274H139.942C145.719 221.786 150.264 221.873 153.602 222.042C157.122 222.221 158.865 222.48 159.379 222.652L163.781 224.119L163.959 219.483C164.186 213.57 164.872 205.084 166.028 193.985C167.409 182.945 169.25 171.669 171.552 160.156ZM241.683 220.486L241.735 220.508L241.788 220.527C251.063 223.944 261.578 225.615 273.277 225.615C307.076 225.615 331.813 214.126 346.54 190.572C361.148 167.578 368.312 138.098 368.312 102.383C368.312 72.6984 362.19 48.7083 349.577 30.7589C336.628 12.3308 314.787 3.51887 285.113 3.51887C269.331 3.51887 255.198 6.63032 242.803 12.9496C230.41 19.2672 220.742 28.1831 213.892 39.6815C207.042 51.1793 203.654 64.2221 203.654 78.7113C203.654 101.459 210.263 119.63 223.866 132.739L223.878 132.75L223.89 132.762C237.492 145.622 256.563 151.815 280.587 151.815C293.775 151.815 305.228 148.536 314.79 141.889C313.022 160.825 309.241 175.993 303.572 187.528C300.403 193.975 296.578 198.589 292.195 201.597C287.839 204.585 282.738 206.121 276.758 206.121C270.67 206.121 266.724 204.919 264.345 203.08C261.835 200.906 260.745 198.491 260.745 195.677C260.745 194.049 261.117 191.732 262.004 188.627C262.984 185.195 263.53 182.071 263.53 179.316C263.53 173.156 261.068 168.116 256.138 164.636C251.415 161.302 245.292 159.822 238.118 159.822C230.815 159.822 224.571 162.197 219.678 167.072C214.709 171.785 212.357 178.091 212.357 185.582C212.357 192.99 215.028 199.794 220.126 205.913L220.153 205.945L220.181 205.976C225.492 212.046 232.716 216.851 241.683 220.486ZM309.445 120.437C307.415 124.902 304.437 128.146 300.493 130.315C296.502 132.51 291.319 133.713 284.765 133.713C279.986 133.713 275.969 132.61 272.587 130.515C269.195 128.413 266.247 125.192 263.811 120.663C258.881 111.501 256.22 97.3111 256.22 77.667C256.22 57.3926 258.542 42.9531 262.836 33.925C265.018 29.4621 267.892 26.2733 271.407 24.1743C274.939 22.065 279.34 20.9245 284.765 20.9245C289.943 20.9245 294.322 22.2341 298.037 24.7605C301.778 27.304 305.046 31.219 307.747 36.7294C313.262 47.9782 316.095 61.6988 316.095 78.0151C316.095 96.8479 313.785 110.888 309.445 120.437Z" stroke="white" stroke-width="6.96226"/>
</svg>
