<svg width="327" height="191" viewBox="0 0 327 191" fill="none" xmlns="http://www.w3.org/2000/svg">
<g filter="url(#filter0_d_1748_6595)">
<path d="M74.048 158.539L88.9413 161.084C100.147 163.346 109.65 164.618 117.309 164.901C124.827 165.184 131.494 164.76 137.309 163.487C142.983 162.356 148.231 160.377 152.628 157.691C157.167 155.005 161.847 151.754 166.954 147.937C168.088 146.806 169.791 146.24 172.06 146.099C174.329 145.958 176.173 146.099 177.45 146.382C181.138 147.089 184.4 148.361 187.237 149.916C181.563 156.136 176.883 162.215 172.911 168.152C168.939 174.09 165.819 179.038 163.691 182.855C162.698 184.551 160.996 185.541 158.727 185.823C156.458 186.106 153.763 186.106 150.642 185.399C144.117 184.127 136.316 182.289 127.097 179.886C117.877 177.483 107.806 175.221 96.8844 172.959L1 153.874C1.56736 152.319 2.70209 151.188 4.54602 150.34L250.072 51.0997L135.891 27.9153C123.976 25.5121 114.189 23.8157 106.671 22.9674C99.1539 22.1192 92.6291 21.9779 87.2392 22.8261C81.8492 23.5329 77.1685 25.2293 73.3388 27.774C69.5091 30.3186 65.5376 33.9941 61.566 38.8007C60.4313 39.9316 58.7293 40.4971 56.7435 40.7798C54.6159 40.9212 52.3464 40.7798 50.077 40.3557C48.3749 40.073 46.6727 39.5075 44.8288 38.8007C42.9849 38.0938 41.5665 37.5284 40.2899 36.8215C45.1125 30.7427 49.084 24.9466 52.3464 19.5746C55.6087 14.0613 58.3037 9.67886 60.2895 6.14466C61.7079 3.03456 65.9631 2.32772 72.7715 3.60003C79.2962 4.87235 86.53 6.56876 94.615 8.68928C102.7 10.8098 112.203 12.9303 123.125 15.0508L320 55.058C319.291 57.0371 318.014 58.4508 316.17 59.299L74.048 158.539Z" fill="#DACFB8"/>
</g>
<defs>
<filter id="filter0_d_1748_6595" x="0" y="0" width="327" height="191" filterUnits="userSpaceOnUse" color-interpolation-filters="sRGB">
<feFlood flood-opacity="0" result="BackgroundImageFix"/>
<feColorMatrix in="SourceAlpha" type="matrix" values="0 0 0 0 0 0 0 0 0 0 0 0 0 0 0 0 0 0 127 0" result="hardAlpha"/>
<feOffset dx="3" dy="1"/>
<feGaussianBlur stdDeviation="2"/>
<feComposite in2="hardAlpha" operator="out"/>
<feColorMatrix type="matrix" values="0 0 0 0 0 0 0 0 0 0 0 0 0 0 0 0 0 0 0.25 0"/>
<feBlend mode="normal" in2="BackgroundImageFix" result="effect1_dropShadow_1748_6595"/>
<feBlend mode="normal" in="SourceGraphic" in2="effect1_dropShadow_1748_6595" result="shape"/>
</filter>
</defs>
</svg>
