<svg width="341" height="206" viewBox="0 0 341 206" fill="none" xmlns="http://www.w3.org/2000/svg">
<g filter="url(#filter0_d_1748_6596)">
<path d="M262.937 46.4557L248.867 41.079C238.207 36.6928 229.254 33.58 221.721 31.7406C214.33 30.0427 207.65 29.1937 201.823 29.1937C195.996 29.1937 190.595 30.1842 185.621 31.8821C180.647 33.7215 175.388 35.9853 169.561 38.6737C168.282 39.5226 166.434 39.8056 164.16 39.5226C161.886 39.2396 160.181 38.8152 158.901 38.2492C155.348 36.8343 152.364 34.9949 149.947 32.8725C156.627 27.7788 162.597 22.8266 167.713 17.7329C172.83 12.6392 176.809 8.53594 179.652 4.99865C180.931 3.58374 182.778 2.87628 185.052 3.01777C187.327 3.15926 190.027 3.72523 193.012 4.99865C199.123 7.5455 206.513 10.9413 215.041 15.0446C223.711 19.1478 233.091 23.3926 243.466 27.6373L334 64.8496C333.147 66.2645 331.726 67.255 329.878 67.6795L69.2202 117.909L176.951 162.762C188.179 167.431 197.56 170.968 204.808 173.232C212.056 175.496 218.452 176.911 223.995 177.194C229.538 177.477 234.37 176.77 238.634 175.072C242.898 173.232 247.446 170.402 252.278 166.582C253.699 165.733 255.405 165.45 257.394 165.592C259.526 165.875 261.658 166.441 263.932 167.431C265.496 168.139 267.201 168.988 268.764 169.978C270.328 170.968 271.749 171.959 272.886 172.808C267.059 177.901 261.942 182.712 257.536 187.381C253.273 192.192 249.72 196.012 247.161 198.984C245.172 201.672 240.908 201.672 234.37 198.984C228.259 196.437 221.437 193.324 213.904 189.787C206.371 186.249 197.417 182.288 187.184 177.901L1 100.506C2.137 98.6661 3.70038 97.5342 5.54802 97.1097L262.937 46.4557Z" fill="#DACFB8"/>
</g>
<defs>
<filter id="filter0_d_1748_6596" x="0" y="0" width="341" height="206" filterUnits="userSpaceOnUse" color-interpolation-filters="sRGB">
<feFlood flood-opacity="0" result="BackgroundImageFix"/>
<feColorMatrix in="SourceAlpha" type="matrix" values="0 0 0 0 0 0 0 0 0 0 0 0 0 0 0 0 0 0 127 0" result="hardAlpha"/>
<feOffset dx="3" dy="1"/>
<feGaussianBlur stdDeviation="2"/>
<feComposite in2="hardAlpha" operator="out"/>
<feColorMatrix type="matrix" values="0 0 0 0 0 0 0 0 0 0 0 0 0 0 0 0 0 0 0.25 0"/>
<feBlend mode="normal" in2="BackgroundImageFix" result="effect1_dropShadow_1748_6596"/>
<feBlend mode="normal" in="SourceGraphic" in2="effect1_dropShadow_1748_6596" result="shape"/>
</filter>
</defs>
</svg>
