<svg width="23" height="24" viewBox="0 0 23 24" fill="none" xmlns="http://www.w3.org/2000/svg">
<path fill-rule="evenodd" clip-rule="evenodd" d="M13.0625 13.1579V21.4638C13.0625 22.3268 12.3629 23.0263 11.5 23.0263V23.0263C10.6371 23.0263 9.9375 22.3268 9.9375 21.4638V13.1579H2.125C1.26206 13.1579 0.5625 12.4583 0.5625 11.5954V11.4309C0.5625 10.568 1.26206 9.86842 2.125 9.86842H9.9375V1.5625C9.9375 0.699557 10.6371 0 11.5 0V0C12.3629 0 13.0625 0.699555 13.0625 1.5625V9.86842H20.875C21.7379 9.86842 22.4375 10.568 22.4375 11.4309V11.5954C22.4375 12.4583 21.7379 13.1579 20.875 13.1579H13.0625Z" fill="#3C4935"/>
</svg>
