<svg width="44" height="74" viewBox="0 0 44 74" fill="none" xmlns="http://www.w3.org/2000/svg">
<rect x="0.5" y="0.5" width="43" height="73" rx="21.5" stroke="white"/>
<path d="M8 36.7474C13.3333 35.358 16 21 16 21L16 72" stroke="white"/>
<path d="M24.1765 41V40.58L26.2765 40.398H26.6825L28.8105 40.58V41H24.1765ZM25.7305 41C25.7725 39.446 25.7725 37.864 25.7725 36.254V35.526C25.7725 33.93 25.7725 32.334 25.7305 30.766H27.2565C27.2145 32.32 27.2145 33.916 27.2145 35.526V36.254C27.2145 37.836 27.2145 39.432 27.2565 41H25.7305ZM22.1185 33.496L22.2165 30.766H30.7705L30.8825 33.496H30.2385L29.6645 30.766L30.3505 31.27H22.6365L23.3365 30.766L22.7485 33.496H22.1185ZM26.4828 54.238C23.9768 54.238 21.8348 52.306 21.8348 48.89C21.8348 45.502 23.9768 43.514 26.4828 43.514C29.0028 43.514 31.1448 45.474 31.1448 48.89C31.1448 52.278 29.0028 54.238 26.4828 54.238ZM26.4828 53.748C28.5408 53.748 29.5908 51.578 29.5908 48.89C29.5908 46.216 28.5408 44.032 26.4828 44.032C24.4388 44.032 23.3888 46.216 23.3888 48.89C23.3888 51.578 24.4388 53.748 26.4828 53.748ZM22.6473 67V66.58L24.6493 66.398H25.0693L27.1413 66.58V67H22.6473ZM24.0473 67C24.0753 65.446 24.0753 63.864 24.0753 62.254V61.526C24.0753 59.93 24.0753 58.334 24.0473 56.766H25.5733C25.5313 58.32 25.5313 59.916 25.5313 61.526V62.506C25.5313 63.878 25.5313 65.432 25.5733 67H24.0473ZM24.8173 62.828V62.366H26.2873C28.3173 62.366 29.1573 61.288 29.1573 59.748C29.1573 58.11 28.3453 57.242 26.5813 57.242H24.8173V56.766H26.6653C29.3533 56.766 30.5573 57.9 30.5573 59.762C30.5573 61.484 29.3253 62.828 26.3153 62.828H24.8173ZM22.6473 57.2V56.766H24.8173V57.354H24.6493L22.6473 57.2Z" fill="white"/>
</svg>
