<svg width="640" height="280" viewBox="0 0 640 280" fill="none" xmlns="http://www.w3.org/2000/svg">
<path d="M476.078 205.911H467.193C463.371 205.911 461.46 207.845 461.46 211.692C461.46 219.988 461.17 228.755 460.599 238.012C460.209 249.193 457.448 259.022 452.285 267.508C450.754 269.432 449.994 271.165 449.994 272.718C449.994 274.271 452.185 273.68 456.587 270.985C466.332 265.003 473.106 257.289 476.938 247.851C480.38 235.507 482.001 223.464 481.811 211.702C481.811 207.845 479.9 205.921 476.078 205.921V205.911Z" fill="#E7E4DB"/>
<path d="M550.588 227.602C552.309 231.46 554.5 231.269 557.182 227.021L565.206 214.007C567.687 210.149 567.017 206.582 563.195 203.306L537.691 182.487C533.869 179.401 531.678 177.958 531.098 178.148C530.527 178.339 530.907 180.363 532.238 184.22C537.011 197.906 543.134 212.373 550.578 227.602H550.588Z" fill="#E7E4DB"/>
<path d="M547.426 76.0645C551.248 76.0645 553.159 74.1409 553.159 70.2835C553.159 66.6266 551.248 64.7931 547.426 64.7931H499.28C495.458 64.7931 493.547 66.7268 493.547 70.5741C493.547 74.4214 495.458 76.0745 499.28 76.0745H547.426V76.0645Z" fill="#E7E4DB"/>
<path d="M534.82 162.819C534.82 165.134 536.821 166.286 540.843 166.286H544.855C548.667 166.286 550.588 164.262 550.588 160.214V95.7218C550.588 91.8645 548.677 89.9409 544.855 89.9409H540.553C536.731 89.9409 534.82 91.9647 534.82 96.0124C534.82 100.06 533.289 101.793 530.237 101.793H521.062C518.01 101.793 516.48 99.7695 516.48 95.7218C516.48 91.6742 514.569 89.9409 510.746 89.9409H503.873C500.051 89.9409 498.14 91.8745 498.14 95.7218V162.819C498.14 166.677 500.151 168.6 504.163 168.6H510.756C514.579 168.6 516.49 166.967 516.49 163.681C516.49 160.785 518.11 159.343 521.362 159.343H530.247C533.299 159.343 534.829 160.495 534.829 162.809L534.82 162.819ZM521.062 148.071C518.01 148.071 516.48 146.438 516.48 143.152V115.389C516.48 112.303 518.1 110.76 521.352 110.76H530.517C533.379 110.76 534.82 112.404 534.82 115.68V143.442C534.82 146.528 533.289 148.071 530.237 148.071H521.062Z" fill="#E7E4DB"/>
<path d="M638.276 162.819C637.895 158.962 636.745 156.076 634.834 154.143C633.303 151.638 632.152 148.743 631.392 145.466C629.671 136.79 628.62 127.252 628.24 116.832C628.24 112.975 627.95 110.951 627.38 110.76C626.809 111.151 626.229 113.265 625.659 117.122L618.205 159.052C617.634 162.519 616.004 162.619 613.332 159.343L600.435 143.142C597.954 140.056 597.574 136.97 599.294 133.884C610.37 114.988 616.294 93.1068 617.064 68.2396C617.064 64.3823 615.153 62.4586 611.331 62.4586H602.446C598.624 62.4586 596.713 64.3923 596.713 68.2396C595.562 85.2119 593.742 100.15 591.27 113.065C590.31 116.341 589.269 116.441 588.118 113.355C583.536 99.2886 580.855 86.4642 580.094 74.8923C579.524 67.1876 579.044 59.473 578.663 51.7583C578.663 47.901 580.194 45.9773 583.246 45.9773H629.671C633.493 45.9773 635.404 43.9535 635.404 39.9058C635.404 36.2489 633.493 34.4053 629.671 34.4053H615.053C611.991 34.4053 611.421 32.7722 613.332 29.486L617.915 22.2523C620.586 18.0142 620.106 14.8282 616.484 12.7041L599.865 2.87547C596.233 0.951813 594.032 0.470899 593.271 1.43273C592.701 2.20419 593.171 4.51859 594.702 8.37591C597.754 15.1287 600.915 21.8715 604.157 28.6144C605.298 32.4717 604.347 34.3953 601.296 34.3953H582.956C579.894 34.3953 578.373 32.7622 578.373 29.476V8.09538C578.373 4.23805 576.462 2.3144 572.64 2.3144H565.766C561.944 2.3144 560.033 4.24807 560.033 8.09538V29.7866C560.033 32.8724 558.502 34.4154 555.451 34.4154H488.675C485.613 34.4154 484.082 32.4917 484.082 28.6344C484.082 24.9774 482.171 23.144 478.349 23.144H471.755C467.933 23.144 466.022 25.0776 466.022 28.9249V146.629C464.872 154.343 463.531 161.958 462.01 169.472C460.099 176.605 457.428 184.32 453.986 192.606C452.845 194.92 452.265 196.563 452.265 197.525C452.455 198.106 454.456 196.463 458.288 192.606C473.767 174.872 481.881 158.962 482.651 144.885C483.412 136.018 483.892 127.342 484.082 118.856V50.6061C484.082 47.5203 485.703 45.9773 488.955 45.9773H555.441C558.492 45.9773 560.123 47.5203 560.313 50.6061C561.644 69.1113 563.075 84.0597 564.616 95.4313C566.717 110.67 570.639 125.699 576.362 140.547C577.693 143.823 577.513 146.909 575.792 149.805C570.249 158.481 563.655 167.348 556.021 176.415C552.579 180.463 551.339 182.877 552.299 183.649C553.059 184.23 555.351 182.877 559.173 179.601L580.664 161.096C583.716 158.401 586.398 158.882 588.689 162.539C595.953 173.149 604.167 180.854 613.342 185.673C618.875 188.759 625.949 191.744 634.544 194.64C638.366 195.612 640.177 194.159 639.987 190.301L638.266 162.829L638.276 162.819Z" fill="#E7E4DB"/>
<path d="M603.597 196.654C600.545 193.568 598.624 192.025 597.864 192.025C597.103 192.025 597.383 193.958 598.724 197.806C605.408 216.311 613.812 236.269 623.948 257.669C625.669 261.326 627.48 261.236 629.391 257.379L637.125 241.469C639.036 237.611 638.176 233.764 634.544 229.897L603.587 196.644L603.597 196.654Z" fill="#E7E4DB"/>
<path d="M594.712 246.398C592.421 242.541 590.99 238.683 590.41 234.826C589.069 229.436 589.359 221.721 591.27 211.692C591.65 207.835 591.08 205.911 589.549 205.911C588.218 205.911 586.978 207.845 585.827 211.692C583.916 222.102 582.385 234.245 581.245 248.131C580.864 251.989 579.524 254.874 577.232 256.808C574.941 258.351 572.26 259.122 569.208 259.122H534.539C531.478 259.894 528.046 258.932 524.224 256.227C520.402 253.331 518.491 250.346 518.491 247.26V195.491C518.491 191.634 516.58 189.71 512.758 189.71H503.873C500.051 189.71 498.14 191.644 498.14 195.491V265.194C499.861 275.794 505.394 280.613 514.759 279.651H579.814C584.016 280.813 588.789 279.07 594.142 274.441C597.964 270.975 600.255 265.474 601.015 257.96C601.015 254.103 598.904 250.245 594.712 246.388V246.398Z" fill="#E7E4DB"/>
<path d="M184.56 32.3915H139.856C136.794 32.3915 135.273 30.7584 135.273 27.4722V5.78098C135.273 1.92365 133.362 0 129.54 0H120.375C116.553 0 114.642 1.93367 114.642 5.78098V27.7627C114.642 30.8486 113.111 32.3915 110.06 32.3915H79.9733C76.9116 32.3915 75.3808 30.7584 75.3808 27.4722V5.78098C75.3808 1.92365 73.4698 0 69.6477 0H60.4727C56.8408 0 55.0298 2.02384 55.0298 6.07153V27.7627C55.0298 30.8486 53.499 32.3915 50.4473 32.3915H5.7331C1.91103 32.3915 0 33.9345 0 37.0203C0 39.9158 2.01109 41.3586 6.02326 41.3586H50.4373C53.489 41.3586 55.0198 42.9015 55.0198 45.9874V67.9691C55.0198 71.8264 57.0209 73.7501 61.043 73.7501H69.6377C73.4598 73.7501 75.3708 71.7262 75.3708 67.6786V45.9874C75.3708 42.9015 76.9917 41.3586 80.2434 41.3586H110.05C113.101 41.3586 114.632 42.9015 114.632 45.9874V69.4118C114.632 74.0406 119.505 73.7501 119.505 73.7501H129.53C133.352 73.7501 135.263 71.7262 135.263 67.6786V45.9874C135.263 42.9015 136.884 41.3586 140.136 41.3586H184.56C188.382 41.3586 190.293 39.8156 190.293 36.7298C190.293 33.8343 188.382 32.3915 184.56 32.3915Z" fill="#E7E4DB"/>
<path d="M71.7689 204.198L71.6688 204.178H71.5688C69.5677 204.328 67.0063 205.611 63.7245 208.095H63.7045C61.7234 209.708 61.1731 209.528 61.1531 209.518C61.1231 209.498 61.0031 209.287 61.0031 208.706V98.1163C61.0031 96.4231 61.7134 95.7118 63.3944 95.7118C65.0753 95.7118 67.0864 94.8602 67.0864 90.8025V89.6202C67.0864 86.5844 65.4254 84.9012 62.4138 84.9012H9.28506C6.27343 84.9012 4.61253 86.5744 4.61253 89.6202V91.0028C4.61253 94.0386 6.34347 95.7218 9.47517 95.7218H11.6363C13.3072 95.7218 14.0176 96.4432 14.0176 98.1264V221.37C14.0176 223.124 13.2372 224.056 11.5063 224.376L7.96435 224.967C6.23341 225.288 5.04277 225.969 4.42243 226.991C3.87213 227.923 3.80209 229.105 4.25234 230.528C6.26343 236.098 6.66364 240.156 5.46299 242.591L5.39296 242.811C5.16283 244.394 5.40296 245.446 6.15337 246.047C6.9438 246.679 8.11443 246.658 9.70529 246.017C23.1626 241.539 34.7488 236.449 44.1339 230.929C45.9649 229.907 46.5452 230.147 46.6453 230.207C46.8354 230.317 46.9454 230.698 46.9454 231.259V269.833C46.9454 272.868 48.6764 274.551 51.8181 274.551H56.5707C58.8719 274.551 61.0031 273.97 61.0031 269.732V219.797C61.0031 217.904 61.9836 215.96 63.8046 214.097C65.7856 212.764 67.7967 211.141 69.8178 209.237C72.3792 206.492 72.7594 205.57 72.5493 204.889C72.4393 204.538 72.1591 204.288 71.7789 204.208L71.7689 204.198ZM46.9454 215.229C46.9454 217.022 46.065 218.285 44.284 219.076C41.7326 220.108 37.2302 221.23 31.0769 222.382C28.2353 222.242 27.8751 220.92 27.8751 219.777V185.162C27.8751 183.478 28.6455 182.757 30.4565 182.757H37.3202C41.3824 182.757 41.9928 180.302 41.9928 178.83C41.9928 177.357 41.3824 175.103 37.3202 175.103H30.2664C28.5955 175.103 27.8751 174.321 27.8751 172.498V140.848C27.8751 139.164 28.6455 138.443 30.4565 138.443H37.3202C41.3824 138.443 41.9928 135.988 41.9928 134.515C41.9928 133.043 41.3824 130.788 37.3202 130.788H30.2664C28.5955 130.788 27.8751 130.007 27.8751 128.183V98.1163C27.8751 96.4231 28.6455 95.7118 30.4565 95.7118H44.5742C46.2451 95.7118 46.9555 96.4332 46.9555 98.1163V215.229H46.9454Z" fill="#E7E4DB"/>
<path d="M170.082 132.141C170.192 132.151 170.292 132.161 170.402 132.161C171.803 132.161 173.304 131.089 174.985 128.895V128.875C176.826 126.35 178.877 123.765 181.118 121.15C183.069 118.665 184.37 114.758 179.487 110.31C172.694 104.308 165.81 98.4069 159.006 92.7361C157.185 91.2734 155.824 90.4618 154.704 90.2514C154.364 90.2514 154.053 90.4017 153.853 90.6823C153.483 91.1732 153.203 92.0749 154.504 96.6636C158.416 108.696 162.648 119.667 167.06 129.256C167.851 131.029 168.861 132.001 170.082 132.141Z" fill="#E7E4DB"/>
<path d="M181.018 152.78C182.449 152.78 183.92 152.79 184.9 151.818C185.51 151.207 185.811 150.305 185.811 149.083V148.402C185.801 147.801 185.791 146.919 185.791 146.278C185.791 143.763 182.829 143.763 181.228 143.763H148.56C148.54 141.348 148.53 139.234 148.53 138.423V84.6808C148.53 81.7553 146.929 80.1422 144.038 80.1422H139.545C136.644 80.1422 135.053 81.8254 135.053 84.8712V143.763H110.62C109.989 143.763 109.549 143.643 109.409 143.422C109.339 143.312 109.169 142.861 109.779 141.569L121.966 114.658C123.257 111.762 122.226 108.877 118.904 106.071C116.853 104.338 115.222 103.697 113.952 104.088C113.031 104.368 112.371 105.16 111.991 106.442L101.895 140.467C101.235 142.691 100.094 143.773 98.4232 143.773H70.4281C67.4865 143.773 65.8656 145.406 65.8656 148.372C65.8656 151.337 67.5565 152.78 70.6182 152.78H135.053L134.863 158.471V173.429C135.113 182.968 135.803 192.716 136.934 202.435C138.435 213.415 140.906 223.324 144.268 231.88C145.068 234.195 144.908 236.209 143.778 238.042C138.225 247.129 129.58 256.738 118.084 266.596C115.192 269.071 114.812 270.093 114.822 270.764C114.822 271.155 114.992 271.496 115.232 271.686C115.873 272.327 116.983 272.197 121.015 269.722C129.99 264.312 139.175 257.479 148.31 249.394C149.201 248.542 149.961 248.131 150.511 248.242C150.912 248.312 151.282 248.692 151.652 249.424C157.565 259.202 167.431 267.819 181.018 275.052C181.888 275.453 182.649 275.644 183.289 275.644C183.799 275.644 184.24 275.523 184.62 275.273C185.42 274.752 185.821 273.75 185.821 272.277V254.133C185.821 251.468 185.33 249.414 184.42 248.111C182.869 245.106 182.329 241.439 182.819 237.12V222.753C182.819 219.948 182.569 218.214 181.318 218.214C180.468 218.214 179.997 218.936 179.457 223.194C178.206 230.608 177.076 238.062 176.085 245.326C175.935 246.348 175.635 247.019 175.235 247.21C174.805 247.42 174.124 247.129 173.634 246.849C170.112 244.895 166.53 241.709 163.028 237.441C161.447 235.167 161.147 233.203 162.118 231.45C168.501 220.339 172.633 208.286 174.384 195.652C176.005 185.562 177.206 175.363 177.946 165.364C178.096 163.881 177.806 162.729 177.096 161.938C176.385 161.146 175.285 160.745 173.824 160.745H168.201C165.329 160.745 163.578 162.278 163.148 165.184C162.388 170.804 161.758 176.345 161.277 181.675C160.537 191.634 158.286 201.743 154.574 211.712C154.354 212.313 154.183 212.734 154.043 213.005C154.013 212.884 153.983 212.734 153.953 212.554C152.222 204.929 150.962 196.383 150.221 187.176L148.72 153.151V152.79H180.658H181.018V152.78Z" fill="#E7E4DB"/>
<path d="M84.1955 137.1C84.8259 138.854 85.6063 139.755 86.5768 139.856C86.6369 139.856 86.7069 139.866 86.7669 139.866C87.6474 139.866 88.4979 139.194 89.3683 137.792L93.5606 130.478C95.3816 127.222 95.1515 124.336 92.8902 121.902C90.0487 118.786 87.1671 115.559 84.3156 112.283C83.3151 111.221 82.0044 110.069 80.8837 110.55C79.7932 111.021 79.7331 112.634 79.7732 113.796C80.1534 121.28 81.6442 129.105 84.1955 137.09V137.1Z" fill="#E7E4DB"/>
<path d="M120.505 257.679V162.96C120.505 159.994 118.884 158.361 115.943 158.361H111.57C108.629 158.361 107.008 159.994 107.008 162.96C107.008 165.695 105.777 166.045 104.717 166.045H89.4784C88.4079 166.045 87.1772 165.675 87.1772 162.769C87.1772 159.864 85.5563 158.361 82.6147 158.361H79.373C76.5515 158.361 75.0006 160.064 75.0006 163.16V259.413C75.0006 262.378 76.6915 264.011 79.7532 264.011H82.6047C85.5463 264.011 87.1672 262.308 87.1672 259.222V250.957C87.1672 249.334 87.9176 248.642 89.6585 248.642H104.707C106.318 248.642 106.998 249.334 106.998 250.957V257.88C106.998 260.845 108.689 262.479 111.751 262.479H115.943C118.884 262.479 120.505 260.775 120.505 257.679ZM107.008 238.844C107.008 240.467 106.318 241.158 104.717 241.158H89.4784C87.8676 241.158 87.1772 240.407 87.1772 238.653V213.616C87.1772 211.993 87.9276 211.301 89.6686 211.301H96.1421C99.0836 211.301 100.705 209.668 100.705 206.703C100.705 203.737 99.0836 202.294 96.1421 202.294H89.4784C87.8676 202.294 87.1772 201.543 87.1772 199.789V177.387C87.1772 175.764 87.9276 175.073 89.6686 175.073H104.907C105.947 175.073 107.018 175.373 107.018 177.577V238.854L107.008 238.844Z" fill="#E7E4DB"/>
<path d="M97.0926 93.0267H71.959C69.0174 93.0267 67.3965 94.6598 67.3965 97.6254C67.3965 100.591 69.0874 102.034 72.1491 102.034H125.088C128.029 102.034 129.65 100.401 129.65 97.4351C129.65 94.4694 128.029 93.0267 125.088 93.0267H104.527C103.956 93.0267 103.766 92.8965 103.756 92.8764C103.756 92.8764 103.576 92.4055 104.747 90.7624L108.159 85.9733C111.21 82.0058 109.679 79.3507 107.848 77.8078L98.3232 70.1232C94.6112 67.1375 93.7708 66.8871 93.2805 66.8871L92.8102 66.9472L92.5901 67.2077C92.2699 67.5784 92.0298 68.1995 92.5301 71.7763C93.5606 79.9018 95.1915 86.1336 97.3827 90.3015C98.3532 92.0949 98.1331 92.646 98.0831 92.7361C97.983 92.9165 97.6228 93.0167 97.0926 93.0167V93.0267Z" fill="#E7E4DB"/>
<path d="M320.003 260.354C279.921 260.354 247.314 227.712 247.314 187.576V116.852C247.314 76.7257 279.911 44.0737 320.003 44.0737C360.095 44.0737 392.683 76.7157 392.683 116.852V187.576C392.683 227.702 360.085 260.354 320.003 260.354ZM320.003 48.1915C282.183 48.1915 251.416 79 251.416 116.862V187.586C251.416 225.448 282.183 256.257 320.003 256.257C357.824 256.257 388.58 225.448 388.58 187.586V116.852C388.58 78.99 357.824 48.1815 320.003 48.1815V48.1915Z" fill="#E7E4DB"/>
<path d="M320.003 248.562C286.425 248.562 259.1 221.2 259.1 187.576V116.852C259.1 83.218 286.425 55.8661 320.003 55.8661C353.581 55.8661 380.906 83.2281 380.906 116.852V187.576C380.906 221.21 353.581 248.562 320.003 248.562ZM320.003 59.9739C288.686 59.9739 263.202 85.4924 263.202 116.852V187.576C263.202 218.936 288.686 244.454 320.003 244.454C351.32 244.454 376.804 218.936 376.804 187.576V116.852C376.804 85.4924 351.32 59.9739 320.003 59.9739Z" fill="#E7E4DB"/>
<path d="M369.78 195.391C369.55 193.467 369.4 191.363 369.31 189.089C369.03 189.069 368.71 189.069 368.339 189.089C367.969 189.109 367.629 189.169 367.319 189.27C366.879 189.42 366.498 189.64 366.198 189.931C365.898 190.221 365.738 190.592 365.708 191.043C365.738 192.846 365.628 194.329 365.378 195.511C365.118 196.694 364.627 197.716 363.877 198.567C363.137 199.419 362.106 200.18 360.805 200.841C359.505 201.503 357.754 202.204 355.552 202.945L334.501 210.049L359.365 152.951C359.425 152.8 359.365 152.63 359.385 152.47C359.415 152.44 359.485 152.41 359.505 152.389C359.785 152.029 359.945 151.608 359.975 151.117L360.855 136.619C360.925 135.537 361.296 134.686 361.996 134.085C362.686 133.484 363.887 132.963 365.598 132.532C365.858 132.442 366.098 132.291 366.288 132.071C366.478 131.86 366.598 131.48 366.628 130.939C366.648 130.618 366.628 130.187 366.548 129.656C365.218 129.937 363.667 130.227 361.896 130.538C360.115 130.849 358.544 131.089 357.163 131.269C355.783 131.45 354.182 131.62 352.331 131.77C350.49 131.921 348.799 132.051 347.268 132.141C347.138 132.592 347.058 133.033 347.028 133.464C347.008 133.794 347.068 134.105 347.208 134.405C347.348 134.706 347.628 134.866 348.048 134.866C350.039 134.876 351.45 135.117 352.251 135.578C353.061 136.038 353.431 137 353.341 138.473L352.591 150.937C351.51 151.398 350.19 151.838 348.619 152.259C347.038 152.68 345.487 152.991 343.956 153.181C340.945 153.572 338.193 153.301 335.702 152.389C333.21 151.468 331.099 149.995 329.358 147.951C327.617 145.907 326.307 143.392 325.406 140.377C324.516 137.371 324.186 133.984 324.406 130.247C324.596 127.041 325.206 124.016 326.217 121.16C327.227 118.305 328.628 115.78 330.409 113.586C332.2 111.382 334.391 109.548 337.002 108.085C339.604 106.623 342.605 105.671 345.987 105.23C350.22 104.679 353.421 105.05 355.603 106.332C357.784 107.614 359.234 110.009 359.965 113.526C360.135 114.207 360.635 114.487 361.486 114.377C361.696 114.347 361.966 114.287 362.286 114.197C362.606 114.107 362.816 113.997 362.936 113.866C362.576 111.973 362.316 110.029 362.146 108.025C361.976 106.021 361.896 104.088 361.906 102.194C360.235 101.974 358.684 101.813 357.253 101.703C355.813 101.593 354.392 101.523 352.981 101.493C351.56 101.463 350.13 101.493 348.689 101.603C347.238 101.713 345.717 101.863 344.126 102.074C338.013 102.865 332.16 105.671 327.017 109.268C318.412 115.289 313.9 125.188 313.39 133.514C313.3 134.956 313.28 136.389 313.35 137.802C312.269 138.393 311.038 138.964 309.478 139.495L294.88 145.446L319.233 88.7686C319.393 88.3278 319.403 87.7767 319.233 87.1255L282.893 99.3888C280.882 100.07 279.101 100.601 277.56 100.982C276.019 101.363 274.649 101.763 273.458 102.164C272.197 102.585 271.657 103.316 271.847 104.348C272.007 105.55 272.197 107.123 272.438 109.047C272.668 110.971 272.828 113.075 272.908 115.349C273.188 115.369 273.508 115.369 273.878 115.349C274.238 115.329 274.589 115.269 274.899 115.169C275.339 115.018 275.719 114.798 276.019 114.508C276.32 114.217 276.48 113.846 276.51 113.395C276.48 111.592 276.59 110.109 276.84 108.927C277.1 107.745 277.59 106.723 278.341 105.871C279.081 105.019 280.112 104.258 281.412 103.597C282.713 102.936 284.464 102.234 286.665 101.493L307.717 94.3893L282.853 151.488C282.793 151.638 282.853 151.808 282.833 151.969C282.803 151.999 282.733 152.029 282.713 152.049C282.433 152.409 282.273 152.83 282.243 153.321L281.362 167.819C281.292 168.901 280.922 169.752 280.222 170.354C279.531 170.955 278.331 171.476 276.62 171.907C276.36 171.997 276.119 172.147 275.929 172.367C275.739 172.578 275.619 172.959 275.589 173.5C275.569 173.82 275.589 174.251 275.669 174.782C277 174.501 278.551 174.211 280.322 173.9C282.103 173.59 283.674 173.349 285.054 173.169C286.435 172.989 288.036 172.818 289.887 172.668C291.728 172.518 293.419 172.387 294.95 172.297C295.08 171.846 295.16 171.406 295.19 170.975C295.21 170.654 295.15 170.334 295.01 170.033C294.87 169.732 294.589 169.572 294.169 169.572C292.178 169.562 290.767 169.322 289.967 168.861C289.157 168.4 288.786 167.438 288.876 165.965L289.627 153.502C290.707 153.041 292.028 152.6 293.599 152.179C295.18 151.758 296.731 151.448 298.261 151.257C301.273 150.867 304.025 151.137 306.516 152.049C309.007 152.971 311.118 154.443 312.859 156.487C314.6 158.531 315.911 161.046 316.812 164.062C317.702 167.067 318.032 170.454 317.812 174.201C317.622 177.407 317.012 180.433 316.001 183.288C314.991 186.144 313.59 188.668 311.809 190.863C310.018 193.067 307.827 194.9 305.215 196.363C302.614 197.826 299.612 198.778 296.23 199.218C291.998 199.769 288.796 199.399 286.615 198.116C284.434 196.834 282.983 194.439 282.253 190.923C282.083 190.241 281.582 189.961 280.732 190.071C280.522 190.101 280.252 190.161 279.932 190.251C279.611 190.342 279.401 190.452 279.281 190.582C279.641 192.476 279.902 194.419 280.072 196.423C280.242 198.427 280.322 200.361 280.312 202.254C281.983 202.475 283.534 202.635 284.964 202.745C286.405 202.855 287.826 202.925 289.237 202.956C290.657 202.986 292.088 202.956 293.529 202.845C294.98 202.735 296.501 202.585 298.091 202.374C304.205 201.583 310.058 198.778 315.201 195.181C323.805 189.159 328.318 179.26 328.828 170.935C328.918 169.492 328.938 168.059 328.868 166.647C329.949 166.055 331.179 165.484 332.74 164.953L347.338 159.002L322.985 215.68C322.825 216.12 322.815 216.672 322.985 217.323L359.325 205.059C361.336 204.378 363.117 203.847 364.657 203.466C366.198 203.086 367.569 202.685 368.76 202.284C370.02 201.863 370.561 201.132 370.371 200.1C370.21 198.898 370.02 197.325 369.78 195.401V195.391ZM294.309 148.612L312.329 141.91C312.849 141.729 313.29 141.639 313.79 141.479C314.31 144.174 315.311 146.699 317.082 148.893C317.512 149.424 318.022 149.835 318.492 150.306C311.839 146.989 303.164 146.879 294.309 148.622V148.612ZM329.899 162.529C329.378 162.709 328.938 162.799 328.438 162.96C327.918 160.264 326.917 157.74 325.146 155.545C324.716 155.014 324.206 154.604 323.735 154.133C330.389 157.449 339.074 157.559 347.918 155.816L329.899 162.519V162.529Z" fill="#E7E4DB"/>
</svg>
