<svg width="48" height="48" viewBox="0 0 48 48" fill="none" xmlns="http://www.w3.org/2000/svg">
<path d="M24 48C37.2548 48 48 37.2548 48 24C48 10.7452 37.2548 0 24 0C10.7452 0 0 10.7452 0 24C0 37.2548 10.7452 48 24 48Z" fill="#1D201D"/>
<path d="M21.0633 37.0001C22.1823 37.0001 23.0894 36.0929 23.0894 34.9739C23.0894 33.8549 22.1823 32.9478 21.0633 32.9478C19.9443 32.9478 19.0371 33.8549 19.0371 34.9739C19.0371 36.0929 19.9443 37.0001 21.0633 37.0001Z" stroke="white" stroke-width="0.839902" stroke-miterlimit="10" stroke-linecap="round" stroke-linejoin="round"/>
<path d="M30.5125 37.0001C31.6315 37.0001 32.5387 36.0929 32.5387 34.9739C32.5387 33.8549 31.6315 32.9478 30.5125 32.9478C29.3935 32.9478 28.4863 33.8549 28.4863 34.9739C28.4863 36.0929 29.3935 37.0001 30.5125 37.0001Z" stroke="white" stroke-width="0.839902" stroke-miterlimit="10" stroke-linecap="round" stroke-linejoin="round"/>
<path d="M9 13L11.3798 13C11.6145 13 11.8251 13.1443 11.9099 13.3632L13.8123 18.2738H36.5735C36.9179 18.2738 37.1706 18.5973 37.0873 18.9314L34.429 29.5846C34.3658 29.8378 34.1383 30.0155 33.8774 30.0155H17.0093C17.0093 30.0155 15.1952 30.0155 15.1952 31.4724C15.1952 32.9294 17.0093 32.9294 17.0093 32.9294H34.9074" stroke="white" stroke-width="0.839902" stroke-miterlimit="10" stroke-linecap="round" stroke-linejoin="round"/>
<path d="M13.8125 18.2739H36.5738C36.9181 18.2739 37.1709 18.5975 37.0875 18.9316L34.4292 29.5847C34.366 29.8379 34.1386 30.0156 33.8776 30.0156H17.6125L13.8125 18.2739Z" stroke="white" stroke-width="0.839902" stroke-miterlimit="10" stroke-linecap="round" stroke-linejoin="round"/>
<path d="M19.6724 18.2739L21.889 29.5471" stroke="white" stroke-width="0.839902" stroke-miterlimit="10" stroke-linecap="round" stroke-linejoin="round"/>
<path d="M26.1177 18.2739V29.9935" stroke="white" stroke-width="0.839902" stroke-miterlimit="10" stroke-linecap="round" stroke-linejoin="round"/>
<path d="M31.9773 18.2739L30.4697 29.5324" stroke="white" stroke-width="0.839902" stroke-miterlimit="10" stroke-linecap="round" stroke-linejoin="round"/>
<path d="M16.1562 24.0771L35.4935 24.0772" stroke="white" stroke-width="0.839902" stroke-miterlimit="10" stroke-linecap="round" stroke-linejoin="round"/>
</svg>
