<svg width="496" height="108" viewBox="0 0 496 108" fill="none" xmlns="http://www.w3.org/2000/svg">
<g clip-path="url(#clip0_259_3234)">
<path d="M4.19001 4.94896C4.19001 2.84231 5.13721 1.79456 7.04276 1.79456L68.2544 1.79456C70.2491 1.79456 70.7059 2.79772 69.6027 4.79291L14.3864 100.852C13.2832 102.858 13.74 103.805 15.7347 103.705C27.3352 103.103 44.6969 100.807 67.7975 96.8055C70.093 96.3039 71.252 97.0061 71.252 98.901V103.549C71.252 105.645 70.2491 106.703 68.2544 106.703H1.93901C-0.0668353 106.703 -0.512578 105.7 0.590635 103.705L55.807 6.75465C56.6093 5.35022 55.9073 4.64801 53.7009 4.64801C42.9919 4.44737 27.6918 6.35339 7.78938 10.3549C5.39351 10.8565 4.19001 10.21 4.19001 8.4043V4.94896Z" fill="#9B8256" fill-opacity="0.15"/>
<path d="M120.685 23.4072H129.388C133.89 23.9088 137.89 25.1126 141.389 27.0075C146.192 29.6157 149.19 33.1602 150.393 37.6633C150.895 39.1681 151.24 40.918 151.441 42.9132V103.549C151.441 105.645 150.438 106.703 148.443 106.703H145.747C143.652 106.703 142.593 106.202 142.593 105.199C142.593 104.195 141.59 104.051 139.595 104.753C135.495 106.258 130.491 107.25 124.596 107.751C121.197 108.353 117.197 107.751 112.595 105.945C108.594 104.641 104.794 101.844 101.195 97.5412C96.0909 90.9426 93.8956 84.0319 94.5977 76.8314C94.9988 72.6292 95.8457 68.6277 97.1495 64.8268C98.8434 60.424 101.952 56.3779 106.454 52.6662C110.455 49.8685 114.455 48.1185 118.456 47.4163C123.961 46.6138 128.508 46.4131 132.107 46.8144C134.603 47.2157 137.11 47.9179 139.607 48.9211C141.601 49.9242 142.604 49.6233 142.604 48.0182C142.404 44.0167 141.701 40.1601 140.509 36.4595C139.306 32.3577 136.308 29.3036 131.505 27.3084C126 26.0043 121.699 26.06 118.601 27.4533C114.299 29.0584 111.547 32.5026 110.344 37.8082C110.143 39.8145 109.04 40.8066 107.045 40.8066H103.747C101.741 40.8066 100.849 39.8034 101.05 37.8082C101.652 33.3051 104.348 29.6491 109.151 26.8514C112.45 24.9565 116.305 23.7973 120.707 23.3961L120.685 23.4072ZM124.886 49.222C119.08 49.3223 114.277 52.0755 110.477 57.4814C106.577 63.5896 104.827 70.3442 105.229 77.7454C105.028 82.75 105.775 87.2531 107.48 91.2547C109.675 96.0587 112.829 99.7147 116.929 102.211C120.83 103.917 124.585 104.864 128.184 105.065C130.881 105.366 134.882 104.363 140.186 102.067C141.78 101.164 142.582 99.9153 142.582 98.3103V56.4337C142.582 54.8286 141.579 53.3796 139.584 52.0866C134.982 49.6901 130.079 48.7316 124.875 49.2332L124.886 49.222Z" fill="#9B8256" fill-opacity="0.15"/>
<path d="M200.261 23.4072C213.466 23.3069 221.122 30.6077 223.217 45.3208C224.721 54.628 225.769 62.631 226.37 69.3299C226.872 75.739 228.176 83.7421 230.271 93.339C230.973 97.0396 232.165 100.54 233.87 103.85C235.274 105.756 234.973 106.703 232.967 106.703H225.011C223.005 106.703 221.712 105.7 221.111 103.705C219.305 95.702 218.057 87.6433 217.355 79.5399C216.854 66.9335 215.907 54.9289 214.502 43.5151C214.202 39.6139 212.898 35.6124 210.602 31.5106C207.404 27.4087 202.947 25.7033 197.252 26.4056C193.252 26.8068 189.753 28.2113 186.744 30.6077C184.838 32.2128 183.891 33.8067 183.891 35.4118V103.549C183.891 105.645 182.888 106.703 180.893 106.703H178.197C176.102 106.703 175.043 105.7 175.043 103.705V28.8132C175.043 26.818 176.046 25.8148 178.041 25.8148H180.893C182.888 25.8148 183.891 26.4613 183.891 27.7654C183.891 29.1698 184.894 29.2144 186.889 27.9103C190.789 25.5139 195.235 24.0091 200.239 23.4072H200.261Z" fill="#9B8256" fill-opacity="0.15"/>
<path d="M292.307 4.648C298.313 1.9506 305.211 0.401266 313.012 0L324.267 0C325.971 0.200633 327.721 0.546168 329.515 1.04775C331.51 1.54933 332.513 2.79772 332.513 4.80405V11.7036C332.513 13.7099 331.61 13.7099 329.816 11.7036C325.615 8.00303 319.865 5.35022 312.566 3.74515C308.766 3.24357 304.164 3.70057 298.759 5.09385C290.056 7.69094 283.548 13.944 279.258 23.8531C274.655 33.7621 272.449 44.2619 272.661 55.3748C272.059 65.3841 274.165 75.2374 278.968 84.9459C284.373 97.5523 293.076 104.552 305.077 105.957C308.476 106.559 313.078 105.812 318.884 103.705C320.478 102.903 321.28 101.71 321.28 100.105V31.2208C321.28 29.2256 322.283 28.2224 324.278 28.2224H329.526C331.521 28.2224 332.524 29.2256 332.524 31.2208V97.7084C332.524 99.7147 331.521 101.309 329.526 102.512C321.726 106.614 313.324 108.364 304.32 107.762C295.516 107.16 287.515 104.463 280.316 99.659C276.717 97.3628 273.017 93.7514 269.217 88.8582C263.913 81.4571 260.759 73.454 259.768 64.8491C258.765 54.7394 259.968 44.9418 263.367 35.4341C264.972 31.1316 267.067 27.1301 269.674 23.4295C276.472 14.1223 284.027 7.86928 292.329 4.67029L292.307 4.648Z" fill="#9B8256" fill-opacity="0.15"/>
<path d="M381.946 23.4072H390.649C395.151 23.9088 399.151 25.1126 402.65 27.0075C407.453 29.6157 410.451 33.1602 411.654 37.6633C412.156 39.1681 412.501 40.918 412.702 42.9132V103.549C412.702 105.645 411.699 106.703 409.704 106.703H407.007C404.912 106.703 403.854 106.202 403.854 105.199C403.854 104.195 402.851 104.051 400.856 104.753C396.755 106.258 391.752 107.25 385.857 107.751C382.458 108.353 378.458 107.751 373.855 105.945C369.855 104.641 366.055 101.844 362.456 97.5412C357.352 90.9426 355.156 84.0319 355.859 76.8314C356.26 72.6292 357.107 68.6277 358.41 64.8268C360.104 60.424 363.213 56.3779 367.715 52.6662C371.716 49.8685 375.716 48.1185 379.717 47.4163C385.222 46.6138 389.768 46.4131 393.368 46.8144C395.864 47.2157 398.371 47.9179 400.867 48.9211C402.862 49.9242 403.865 49.6233 403.865 48.0182C403.664 44.0167 402.962 40.1601 401.77 36.4595C400.567 32.3577 397.569 29.3036 392.766 27.3084C387.261 26.0043 382.96 26.06 379.862 27.4533C375.56 29.0584 372.808 32.5026 371.604 37.8082C371.404 39.8145 370.301 40.8066 368.306 40.8066H365.007C363.002 40.8066 362.11 39.8034 362.311 37.8082C362.912 33.3051 365.609 29.6491 370.412 26.8514C373.711 24.9565 377.566 23.7973 381.968 23.3961L381.946 23.4072ZM386.147 49.222C380.341 49.3223 375.538 52.0755 371.738 57.4814C367.838 63.5896 366.088 70.3442 366.489 77.7454C366.289 82.75 367.036 87.2531 368.74 91.2547C370.936 96.0587 374.089 99.7147 378.19 102.211C382.09 103.917 385.846 104.864 389.445 105.065C392.142 105.366 396.143 104.363 401.447 102.067C403.04 101.164 403.843 99.9153 403.843 98.3103V56.4337C403.843 54.8286 402.84 53.3796 400.845 52.0866C396.243 49.6901 391.34 48.7316 386.136 49.2332L386.147 49.222Z" fill="#9B8256" fill-opacity="0.15"/>
<path d="M461.522 23.4072C474.727 23.3069 482.383 30.6077 484.478 45.3208C485.982 54.628 487.029 62.631 487.631 69.3299C488.133 75.739 489.436 83.7421 491.531 93.339C492.234 97.0396 493.426 100.54 495.131 103.85C496.535 105.756 496.234 106.703 494.228 106.703H486.272C484.266 106.703 482.973 105.7 482.371 103.705C480.566 95.702 479.318 87.6433 478.616 79.5399C478.115 66.9335 477.167 54.9289 475.763 43.5151C475.462 39.6139 474.159 35.6124 471.863 31.5106C468.665 27.4087 464.207 25.7033 458.513 26.4056C454.513 26.8068 451.013 28.2113 448.005 30.6077C446.099 32.2128 445.152 33.8067 445.152 35.4118V103.549C445.152 105.645 444.149 106.703 442.154 106.703H439.458C437.363 106.703 436.304 105.7 436.304 103.705V28.8132C436.304 26.818 437.307 25.8148 439.302 25.8148H442.154C444.149 25.8148 445.152 26.4613 445.152 27.7654C445.152 29.1698 446.155 29.2144 448.15 27.9103C452.05 25.5139 456.496 24.0091 461.5 23.4072H461.522Z" fill="#9B8256" fill-opacity="0.15"/>
</g>
<defs>
<clipPath id="clip0_259_3234">
<rect width="496" height="107.985" fill="white"/>
</clipPath>
</defs>
</svg>
