<svg width="108" height="496" viewBox="0 0 108 496" fill="none" xmlns="http://www.w3.org/2000/svg">
<path d="M103.037 4.19013C105.144 4.19013 106.191 5.13733 106.191 7.04288L106.191 68.2545C106.191 70.2492 105.188 70.7061 103.193 69.6028L7.13434 14.3865C5.12801 13.2833 4.18058 13.7402 4.28089 15.7349C4.88279 27.3353 7.17893 44.697 11.1804 67.7976C11.682 70.0932 10.9798 71.2521 9.08494 71.2521L4.43694 71.2521C2.34144 71.2521 1.28254 70.2492 1.28254 68.2545L1.28254 1.93912C1.28254 -0.0667178 2.28571 -0.51246 4.2809 0.590752L101.231 55.8071C102.636 56.6095 103.338 55.9074 103.338 53.701C103.539 42.992 101.633 27.6919 97.6311 7.7895C97.1295 5.39363 97.776 4.19013 99.5817 4.19013L103.037 4.19013Z" fill="#9B8256" fill-opacity="0.05"/>
<path d="M84.5787 120.685L84.5787 129.388C84.0771 133.89 82.8733 137.891 80.9784 141.39C78.3702 146.193 74.8257 149.191 70.3226 150.394C68.8178 150.896 67.0679 151.241 65.0727 151.442L4.43688 151.442C2.34138 151.442 1.28248 150.439 1.28248 148.444L1.28248 145.747C1.28248 143.652 1.78407 142.594 2.78724 142.594C3.7904 142.594 3.9353 141.591 3.23308 139.596C1.72833 135.495 0.736318 130.492 0.234735 124.597C-0.367164 121.198 0.23473 117.197 2.04043 112.595C3.34454 108.595 6.14226 104.795 10.4447 101.195C17.0433 96.0915 23.954 93.8962 31.1545 94.5983C35.3567 94.9994 39.3582 95.8463 43.1591 97.1501C47.5619 98.844 51.608 101.953 55.3197 106.455C58.1174 110.456 59.8674 114.456 60.5696 118.457C61.3721 123.962 61.5728 128.508 61.1715 132.108C60.7702 134.604 60.068 137.111 59.0648 139.607C58.0617 141.602 58.3626 142.605 59.9677 142.605C63.9692 142.404 67.8258 141.702 71.5264 140.51C75.6282 139.306 78.6823 136.309 80.6775 131.506C81.9816 126.001 81.9259 121.699 80.5326 118.602C78.9275 114.3 75.4833 111.548 70.1777 110.344C68.1714 110.144 67.1793 109.04 67.1793 107.046L67.1793 103.747C67.1793 101.741 68.1825 100.85 70.1777 101.05C74.6808 101.652 78.3368 104.349 81.1345 109.152C83.0294 112.45 84.1886 116.306 84.5898 120.708L84.5787 120.685ZM58.7639 124.886C58.6636 119.081 55.9104 114.278 50.5045 110.478C44.3963 106.578 37.6417 104.828 30.2405 105.229C25.2359 105.029 20.7328 105.775 16.7312 107.48C11.9272 109.676 8.27121 112.829 5.77444 116.93C4.06906 120.83 3.12162 124.586 2.92099 128.185C2.62004 130.882 3.6232 134.882 5.91934 140.187C6.82219 141.78 8.07058 142.582 9.67564 142.582L51.5522 142.582C53.1573 142.582 54.6063 141.58 55.8993 139.585C58.2957 134.983 59.2543 130.079 58.7527 124.875L58.7639 124.886Z" fill="#9B8256" fill-opacity="0.05"/>
<path d="M84.5786 200.261C84.6789 213.466 77.3781 221.122 62.665 223.217C53.3578 224.721 45.3548 225.768 38.6559 226.37C32.2467 226.872 24.2437 228.175 14.6468 230.27C10.9462 230.973 7.44626 232.165 4.13581 233.87C2.22979 235.274 1.28235 234.973 1.28235 232.967L1.28235 225.011C1.28235 223.005 2.28552 221.712 4.28071 221.11C12.2837 219.305 20.3425 218.057 28.4459 217.355C41.0523 216.854 53.0569 215.906 64.4707 214.502C68.3719 214.201 72.3734 212.898 76.4752 210.602C80.5771 207.404 82.2824 202.946 81.5802 197.252C81.179 193.252 79.7745 189.752 77.3781 186.744C75.773 184.838 74.1791 183.891 72.574 183.891L4.43676 183.891C2.34126 183.891 1.28236 182.888 1.28236 180.893L1.28236 178.197C1.28236 176.102 2.28552 175.043 4.28071 175.043L79.1726 175.043C81.1678 175.043 82.171 176.046 82.171 178.041L82.171 180.893C82.171 182.888 81.5245 183.891 80.2204 183.891C78.8159 183.891 78.7714 184.894 80.0755 186.889C82.4719 190.789 83.9767 195.235 84.5786 200.239L84.5786 200.261Z" fill="#9B8256" fill-opacity="0.05"/>
<path d="M103.338 292.307C106.035 298.313 107.585 305.211 107.986 313.012L107.986 324.267C107.785 325.972 107.44 327.721 106.938 329.515C106.437 331.51 105.188 332.513 103.182 332.513L96.2822 332.513C94.2759 332.513 94.2759 331.61 96.2822 329.816C99.9828 325.615 102.636 319.865 104.241 312.566C104.742 308.766 104.285 304.164 102.892 298.759C100.295 290.056 94.0418 283.548 84.1328 279.258C74.2237 274.656 63.7239 272.449 52.6111 272.661C42.6017 272.059 32.7484 274.165 23.04 278.968C10.4335 284.373 3.43366 293.076 2.02923 305.078C1.42733 308.476 2.17413 313.079 4.28077 318.884C5.08331 320.478 6.27596 321.28 7.88103 321.28L76.7651 321.28C78.7603 321.28 79.7634 322.283 79.7634 324.278L79.7634 329.527C79.7634 331.521 78.7603 332.524 76.7651 332.524L10.2775 332.524C8.27114 332.524 6.67722 331.521 5.47343 329.527C1.37159 321.726 -0.378374 313.324 0.223526 304.32C0.825426 295.516 3.52282 287.515 8.32687 280.317C10.623 276.717 14.2344 273.018 19.1276 269.218C26.5288 263.913 34.5318 260.76 43.1367 259.768C53.2464 258.765 63.044 259.968 72.5518 263.367C76.8543 264.972 80.8558 267.067 84.5563 269.674C93.8635 276.472 100.117 284.027 103.316 292.329L103.338 292.307Z" fill="#9B8256" fill-opacity="0.05"/>
<path d="M84.5787 381.945L84.5787 390.648C84.0771 395.15 82.8733 399.151 80.9784 402.65C78.3702 407.453 74.8257 410.45 70.3226 411.654C68.8178 412.155 67.0679 412.501 65.0727 412.701L4.43688 412.701C2.34138 412.701 1.28248 411.698 1.28248 409.704L1.28248 407.007C1.28248 404.912 1.78407 403.853 2.78724 403.853C3.7904 403.853 3.9353 402.85 3.23308 400.856C1.72833 396.755 0.736318 391.751 0.234735 385.857C-0.367164 382.458 0.23473 378.457 2.04043 373.855C3.34454 369.854 6.14226 366.054 10.4447 362.455C17.0433 357.351 23.954 355.156 31.1545 355.858C35.3567 356.259 39.3582 357.106 43.1591 358.41C47.5619 360.104 51.608 363.213 55.3197 367.715C58.1174 371.715 59.8674 375.716 60.5696 379.716C61.3721 385.221 61.5728 389.768 61.1715 393.367C60.7702 395.863 60.068 398.371 59.0648 400.867C58.0617 402.862 58.3626 403.865 59.9677 403.865C63.9692 403.664 67.8258 402.962 71.5264 401.77C75.6282 400.566 78.6823 397.568 80.6775 392.766C81.9816 387.261 81.9259 382.959 80.5326 379.861C78.9275 375.56 75.4833 372.807 70.1777 371.604C68.1714 371.403 67.1793 370.3 67.1793 368.305L67.1793 365.007C67.1793 363.001 68.1825 362.11 70.1777 362.31C74.6808 362.912 78.3368 365.609 81.1345 370.412C83.0294 373.71 84.1886 377.566 84.5898 381.967L84.5787 381.945ZM58.7639 386.146C58.6636 380.34 55.9104 375.538 50.5045 371.738C44.3963 367.837 37.6417 366.088 30.2405 366.489C25.2359 366.288 20.7328 367.035 16.7312 368.74C11.9272 370.935 8.27121 374.089 5.77444 378.19C4.06906 382.09 3.12162 385.845 2.92099 389.445C2.62004 392.141 3.6232 396.142 5.91934 401.446C6.82219 403.04 8.07058 403.842 9.67564 403.842L51.5522 403.842C53.1573 403.842 54.6063 402.839 55.8993 400.845C58.2957 396.242 59.2543 391.339 58.7527 386.135L58.7639 386.146Z" fill="#9B8256" fill-opacity="0.05"/>
<path d="M84.5786 461.522C84.6789 474.727 77.3781 482.382 62.665 484.477C53.3578 485.982 45.3548 487.029 38.6559 487.631C32.2467 488.132 24.2437 489.436 14.6468 491.531C10.9462 492.233 7.44626 493.426 4.13581 495.131C2.22979 496.535 1.28235 496.234 1.28235 494.228L1.28235 486.271C1.28235 484.266 2.28552 482.973 4.28071 482.371C12.2837 480.566 20.3425 479.318 28.4459 478.616C41.0523 478.114 53.0569 477.167 64.4707 475.763C68.3719 475.462 72.3734 474.158 76.4752 471.863C80.5771 468.665 82.2824 464.207 81.5802 458.513C81.179 454.512 79.7745 451.013 77.3781 448.004C75.773 446.099 74.1791 445.152 72.574 445.152L4.43676 445.152C2.34126 445.152 1.28236 444.149 1.28236 442.154L1.28236 439.457C1.28236 437.362 2.28552 436.304 4.28071 436.304L79.1726 436.304C81.1678 436.304 82.171 437.307 82.171 439.301L82.171 442.154C82.171 444.149 81.5245 445.152 80.2204 445.152C78.8159 445.152 78.7714 446.155 80.0755 448.149C82.4719 452.05 83.9767 456.496 84.5786 461.499L84.5786 461.522Z" fill="#9B8256" fill-opacity="0.05"/>
</svg>
