<svg width="287" height="193" viewBox="0 0 287 193" fill="none" xmlns="http://www.w3.org/2000/svg">
<path d="M-7.07215e-06 96.5057C-4.74589e-06 43.287 43.323 -1.06515e-05 96.5746 -8.32376e-06L190.425 -4.22141e-06C243.677 -1.89371e-06 287 43.287 287 96.5057C287 149.724 243.677 193 190.425 193L96.5746 193C43.323 193 -9.39792e-06 149.713 -7.07215e-06 96.5057ZM281.551 96.5057C281.551 46.2965 240.67 5.44418 190.425 5.44418L96.5746 5.44417C46.3286 5.44417 5.44869 46.2964 5.44869 96.5057C5.44869 146.715 46.3299 187.556 96.5746 187.556L190.425 187.556C240.671 187.556 281.551 146.715 281.551 96.5057Z" fill="#E7E4DB"/>
<path d="M16.0013 96.5C16.0013 52.1174 52.2046 16 96.707 16L190.294 16C234.797 16 271 52.1161 271 96.5C271 140.884 234.797 177 190.294 177L96.7057 177C52.2034 177 16 140.884 16 96.5L16.0013 96.5ZM265.567 96.5C265.567 55.1019 231.798 21.4196 190.294 21.4196L96.7057 21.4196C55.2019 21.4196 21.4335 55.1019 21.4335 96.5C21.4335 137.898 55.2018 171.58 96.7057 171.58L190.294 171.58C231.798 171.58 265.567 137.898 265.567 96.5Z" fill="#E7E4DB"/>
</svg>
