<svg width="189" height="250" viewBox="0 0 189 250" fill="none" xmlns="http://www.w3.org/2000/svg">
<path d="M187.805 207.902C187.365 204.211 187.067 200.176 186.911 195.808C186.376 195.773 185.764 195.771 185.043 195.799C184.341 195.828 183.683 195.948 183.079 196.152C182.236 196.437 181.514 196.863 180.934 197.431C180.362 197.987 180.043 198.7 179.985 199.567C180.047 203.024 179.833 205.881 179.347 208.155C178.851 210.425 177.902 212.381 176.469 214.024C175.048 215.663 173.073 217.118 170.574 218.388C168.085 219.654 164.723 220.997 160.503 222.425L120.148 236.065L167.812 126.421C167.92 126.135 167.808 125.797 167.852 125.495C167.905 125.442 168.041 125.387 168.085 125.333C168.631 124.643 168.935 123.829 168.993 122.888L170.679 95.0424C170.803 92.9606 171.521 91.3382 172.857 90.1788C174.183 89.0305 176.482 88.0272 179.754 87.1967C180.26 87.0295 180.707 86.7319 181.088 86.3185C181.459 85.9124 181.685 85.1885 181.749 84.1412C181.787 83.5164 181.738 82.6896 181.591 81.6809C179.047 82.2138 176.072 82.7778 172.666 83.3787C169.259 83.9721 166.24 84.4388 163.6 84.7806C160.961 85.1223 157.878 85.4457 154.338 85.7489C150.801 86.0447 147.564 86.2854 144.637 86.46C144.378 87.318 144.228 88.1705 144.177 89.001C144.138 89.6276 144.259 90.2321 144.521 90.8182C144.791 91.4043 145.327 91.7002 146.13 91.6983C149.953 91.7222 152.644 92.1724 154.192 93.0598C155.749 93.9454 156.447 95.792 156.277 98.6106L154.829 122.541C152.759 123.43 150.222 124.275 147.207 125.082C144.184 125.888 141.207 126.478 138.267 126.858C132.488 127.606 127.214 127.097 122.438 125.337C117.662 123.575 113.612 120.734 110.28 116.823C106.948 112.904 104.423 108.062 102.709 102.276C100.992 96.4994 100.36 90.0116 100.796 82.8164C101.168 76.6593 102.322 70.8495 104.264 65.3723C106.206 59.895 108.888 55.0443 112.308 50.8276C115.735 46.6034 119.949 43.083 124.951 40.2608C129.947 37.4477 135.692 35.6177 142.178 34.778C150.288 33.7289 156.434 34.4381 160.614 36.8983C164.787 39.3586 167.581 43.9594 168.982 50.7136C169.301 52.0145 170.276 52.5602 171.899 52.3507C172.306 52.2975 172.818 52.1817 173.432 51.9998C174.046 51.8179 174.454 51.6121 174.676 51.3714C173.987 47.7389 173.485 44.0053 173.165 40.1634C172.844 36.3214 172.688 32.5934 172.71 28.97C169.514 28.5511 166.542 28.2388 163.787 28.0256C161.032 27.8125 158.306 27.6728 155.591 27.6159C152.877 27.5516 150.131 27.6159 147.359 27.8235C144.571 28.0311 141.669 28.3306 138.621 28.7238C126.904 30.2397 115.677 35.6361 105.825 42.5354C89.3268 54.0889 80.6693 73.1114 79.702 89.0892C79.5335 91.86 79.5005 94.6143 79.6306 97.3207C77.5606 98.4617 75.1901 99.5586 72.2133 100.564L44.2203 112L90.9132 3.1603C91.2228 2.32062 91.2319 1.26228 90.9242 0L21.2522 23.5516C17.3888 24.858 13.9796 25.8814 11.0266 26.6108C8.07547 27.3495 5.45038 28.1065 3.16053 28.88C0.744276 29.6976 -0.287074 31.0996 0.068311 33.0821C0.376067 35.4009 0.746104 38.4068 1.19858 42.1037C1.63823 45.795 1.93866 49.828 2.09254 54.1955C2.62745 54.2322 3.2393 54.2322 3.96106 54.2047C4.66084 54.1753 5.31848 54.0577 5.923 53.8519C6.76567 53.5671 7.48743 53.1408 8.06814 52.5731C8.63968 52.0163 8.96027 51.3034 9.01706 50.4362C8.9566 46.9801 9.1691 44.1211 9.65455 41.8483C10.151 39.5791 11.0999 37.6223 12.5324 35.9797C13.9558 34.3389 15.9287 32.8855 18.4274 31.6159C20.9188 30.3499 24.2785 29.0068 28.4991 27.5791L68.8537 13.9384L21.1899 123.582C21.0818 123.869 21.1936 124.207 21.1496 124.507C21.0965 124.56 20.9609 124.615 20.917 124.668C20.3711 125.359 20.067 126.173 20.0102 127.116L18.3248 154.961C18.1984 157.043 17.4803 158.665 16.1467 159.823C14.8205 160.971 12.5214 161.975 9.2497 162.805C8.7441 162.972 8.29712 163.268 7.91609 163.683C7.54422 164.088 7.3189 164.813 7.25479 165.859C7.21632 166.484 7.26577 167.31 7.41049 168.319C9.95498 167.786 12.93 167.222 16.3373 166.619C19.7427 166.026 22.7617 165.559 25.4032 165.218C28.043 164.876 31.1279 164.554 34.6652 164.249C38.2026 163.953 41.4395 163.713 44.365 163.538C44.6233 162.68 44.7736 161.828 44.8249 160.997C44.8633 160.372 44.7424 159.766 44.4805 159.182C44.2112 158.596 43.6744 158.3 42.8739 158.302C39.0508 158.278 36.3579 157.828 34.81 156.94C33.2529 156.053 32.5549 154.206 32.7253 151.389L34.1725 127.457C36.2425 126.57 38.7815 125.723 41.7949 124.916C44.8175 124.11 47.7943 123.52 50.7345 123.14C56.5141 122.392 61.7881 122.899 66.5638 124.661C71.3395 126.423 75.3898 129.264 78.722 133.175C82.0542 137.095 84.5785 141.936 86.2932 147.722C88.0078 153.501 88.6416 159.987 88.2056 167.182C87.8319 173.341 86.6797 179.149 84.7361 184.626C82.7943 190.105 80.1124 194.956 76.6923 199.171C73.2648 203.397 69.0515 206.915 64.0486 209.737C59.0531 212.55 53.3083 214.382 46.8216 215.22C38.7119 216.269 32.5659 215.56 28.3855 213.102C24.2125 210.641 21.4189 206.041 20.0175 199.286C19.7006 197.985 18.7242 197.44 17.1012 197.649C16.6945 197.703 16.1815 197.818 15.5679 198C14.9542 198.182 14.5457 198.388 14.324 198.629C15.0146 202.261 15.5147 205.995 15.8353 209.837C16.1559 213.679 16.3116 217.407 16.2896 221.028C19.4863 221.449 22.4576 221.761 25.2127 221.973C27.9679 222.186 30.6937 222.327 33.4086 222.382C36.1234 222.447 38.8694 222.382 41.641 222.175C44.4292 221.967 47.3309 221.669 50.3791 221.274C62.0958 219.758 73.3234 214.362 83.1753 207.463C99.6732 195.909 108.331 176.889 109.298 160.909C109.466 158.138 109.499 155.384 109.369 152.677C111.439 151.536 113.81 150.439 116.787 149.433L144.78 137.999L98.0868 246.838C97.7772 247.678 97.7681 248.736 98.0758 250L167.748 226.447C171.611 225.14 175.02 224.119 177.973 223.387C180.925 222.649 183.55 221.892 185.839 221.118C188.256 220.301 189.287 218.897 188.932 216.914C188.624 214.597 188.254 211.591 187.801 207.895L187.805 207.902ZM43.1249 118.081L77.6613 105.201C78.6579 104.865 79.5024 104.681 80.4678 104.376C81.468 109.552 83.3805 114.405 86.7804 118.612C87.5993 119.627 88.5849 120.415 89.4861 121.319C76.7344 114.956 60.0918 114.743 43.1249 118.081ZM111.346 144.802C110.349 145.139 109.505 145.324 108.54 145.629C107.539 140.453 105.627 135.601 102.227 131.393C101.408 130.379 100.422 129.591 99.5212 128.687C112.273 135.051 128.917 135.261 145.886 131.922L111.348 144.802H111.346Z" fill="#F0F0F0" fill-opacity="0.3"/>
</svg>
