<svg width="105" height="49" viewBox="0 0 105 49" fill="none" xmlns="http://www.w3.org/2000/svg">
<path d="M78.1063 35.3909H76.6487C76.0216 35.3909 75.7081 35.7233 75.7081 36.3845C75.7081 37.8104 75.6605 39.3171 75.5669 40.9083C75.5029 42.8301 75.0498 44.5194 74.2028 45.9779C73.9517 46.3085 73.8269 46.6065 73.8269 46.8734C73.8269 47.1403 74.1864 47.0387 74.9087 46.5755C76.5075 45.5474 77.6188 44.2215 78.2475 42.5993C78.8122 40.4778 79.0781 38.4079 79.0469 36.3863C79.0469 35.7233 78.7334 35.3927 78.1063 35.3927V35.3909Z" fill="white"/>
<path d="M90.3308 39.1191C90.6132 39.7821 90.9727 39.7493 91.4126 39.0192L92.7291 36.7823C93.1362 36.1193 93.0262 35.5063 92.3991 34.9432L88.2149 31.3648C87.5879 30.8344 87.2284 30.5865 87.1332 30.6192C87.0396 30.6519 87.102 30.9998 87.3203 31.6627C88.1033 34.015 89.1079 36.5016 90.3292 39.1191H90.3308Z" fill="white"/>
<path d="M89.812 13.0735C90.439 13.0735 90.7525 12.7429 90.7525 12.0799C90.7525 11.4514 90.439 11.1362 89.812 11.1362H81.913C81.2859 11.1362 80.9724 11.4686 80.9724 12.1298C80.9724 12.7911 81.2859 13.0752 81.913 13.0752H89.812V13.0735Z" fill="white"/>
<path d="M87.7437 27.9845C87.7437 28.3823 88.072 28.5804 88.7319 28.5804H89.3902C90.0156 28.5804 90.3308 28.2325 90.3308 27.5368V16.4522C90.3308 15.7892 90.0172 15.4586 89.3902 15.4586H88.6843C88.0573 15.4586 87.7437 15.8064 87.7437 16.5021C87.7437 17.1978 87.4926 17.4957 86.9919 17.4957H85.4867C84.986 17.4957 84.7348 17.1479 84.7348 16.4522C84.7348 15.7565 84.4213 15.4586 83.7943 15.4586H82.6665C82.0395 15.4586 81.726 15.7909 81.726 16.4522V27.9845C81.726 28.6475 82.0559 28.9781 82.7141 28.9781H83.7959C84.423 28.9781 84.7365 28.6975 84.7365 28.1326C84.7365 27.635 85.0024 27.387 85.5359 27.387H86.9936C87.4942 27.387 87.7454 27.585 87.7454 27.9828L87.7437 27.9845ZM85.4867 25.4497C84.986 25.4497 84.7348 25.169 84.7348 24.6042V19.8325C84.7348 19.3021 85.0008 19.0369 85.5343 19.0369H87.0379C87.5074 19.0369 87.7437 19.3193 87.7437 19.8824V24.6542C87.7437 25.1845 87.4926 25.4497 86.9919 25.4497H85.4867Z" fill="white"/>
<path d="M104.717 27.9845C104.655 27.3216 104.466 26.8256 104.152 26.4933C103.901 26.0628 103.712 25.5651 103.588 25.002C103.305 23.5107 103.133 21.8714 103.071 20.0805C103.071 19.4175 103.023 19.0696 102.929 19.0369C102.836 19.1041 102.741 19.4674 102.647 20.1304L101.424 27.3371C101.331 27.9329 101.063 27.9501 100.625 27.387L98.5089 24.6025C98.1018 24.0721 98.0394 23.5417 98.3217 23.0113C100.139 19.7636 101.111 16.0027 101.237 11.7287C101.237 11.0657 100.924 10.7351 100.296 10.7351H98.8388C98.2118 10.7351 97.8982 11.0674 97.8982 11.7287C97.7095 14.6458 97.4107 17.2133 97.0053 19.433C96.8477 19.9961 96.677 20.0133 96.4882 19.4829C95.7364 17.0652 95.2964 14.861 95.1717 12.8721C95.0781 11.5479 94.9993 10.2219 94.9369 8.89594C94.9369 8.23296 95.1881 7.90233 95.6888 7.90233H103.305C103.932 7.90233 104.246 7.55449 104.246 6.85879C104.246 6.23025 103.932 5.9134 103.305 5.9134H100.907C100.405 5.9134 100.311 5.63271 100.625 5.06789L101.377 3.82459C101.815 3.09618 101.736 2.54857 101.142 2.1835L98.4153 0.494202C97.8194 0.163574 97.4583 0.0809172 97.3336 0.246231C97.24 0.378827 97.3171 0.776614 97.5683 1.43959C98.069 2.60023 98.5877 3.75915 99.1195 4.91807C99.3067 5.58105 99.1507 5.91168 98.6501 5.91168H95.6412C95.1389 5.91168 94.8893 5.63099 94.8893 5.06617V1.39137C94.8893 0.728397 94.5758 0.397769 93.9488 0.397769H92.821C92.194 0.397769 91.8804 0.730119 91.8804 1.39137V5.11955C91.8804 5.64993 91.6293 5.91512 91.1286 5.91512H80.1732C79.6709 5.91512 79.4197 5.5845 79.4197 4.92152C79.4197 4.29298 79.1062 3.97785 78.4791 3.97785H77.3974C76.7703 3.97785 76.4568 4.3102 76.4568 4.97146V25.2018C76.268 26.5277 76.0481 27.8364 75.7985 29.128C75.485 30.354 75.0467 31.68 74.482 33.1041C74.2949 33.5019 74.1997 33.7843 74.1997 33.9496C74.2309 34.0495 74.5592 33.7671 75.1879 33.1041C77.7273 30.0561 79.0586 27.3216 79.185 24.9021C79.3097 23.3781 79.3885 21.8869 79.4197 20.4283V8.69791C79.4197 8.16753 79.6856 7.90233 80.2191 7.90233H91.127C91.6277 7.90233 91.8952 8.16753 91.9264 8.69791C92.1447 11.8785 92.3795 14.4477 92.6323 16.4022C92.977 19.0214 93.6205 21.6045 94.5594 24.1565C94.7777 24.7196 94.7482 25.25 94.4658 25.7476C93.5564 27.2389 92.4747 28.7629 91.2222 30.3213C90.6575 31.017 90.454 31.432 90.6116 31.5646C90.7363 31.6645 91.1122 31.432 91.7393 30.8689L95.2653 27.6884C95.7659 27.2251 96.2058 27.3078 96.5817 27.9363C97.7735 29.7599 99.1212 31.0842 100.626 31.9125C101.534 32.4429 102.695 32.956 104.105 33.4537C104.732 33.6207 105.029 33.371 104.998 32.708L104.715 27.9863L104.717 27.9845Z" fill="white"/>
<path d="M99.0276 33.7998C98.5269 33.2694 98.2118 33.0042 98.087 33.0042C97.9623 33.0042 98.0082 33.3366 98.2282 33.9978C99.3247 37.1784 100.704 40.6087 102.366 44.2869C102.649 44.9154 102.946 44.8999 103.259 44.237L104.528 41.5024C104.842 40.8394 104.701 40.1782 104.105 39.5135L99.026 33.7981L99.0276 33.7998Z" fill="white"/>
<path d="M97.5698 42.3496C97.1939 41.6867 96.9592 41.0237 96.864 40.3607C96.644 39.4343 96.6916 38.1083 97.0052 36.3846C97.0675 35.7216 96.974 35.391 96.7228 35.391C96.5045 35.391 96.301 35.7233 96.1122 36.3846C95.7987 38.1737 95.5475 40.2608 95.3604 42.6475C95.298 43.3105 95.078 43.8065 94.7021 44.1388C94.3262 44.404 93.8863 44.5366 93.3856 44.5366H87.6978C87.1955 44.6692 86.6324 44.5039 86.0054 44.0389C85.3783 43.5413 85.0648 43.0281 85.0648 42.4977V33.6C85.0648 32.9371 84.7513 32.6064 84.1242 32.6064H82.6665C82.0395 32.6064 81.726 32.9388 81.726 33.6V45.5802C82.0083 47.402 82.916 48.2303 84.4525 48.065H95.1256C95.8151 48.2648 96.5981 47.9652 97.4763 47.1696C98.1033 46.5738 98.4792 45.6284 98.604 44.3369C98.604 43.6739 98.2576 43.0109 97.5698 42.3479V42.3496Z" fill="white"/>
<path d="M30.2794 5.56729H22.9451C22.4428 5.56729 22.1933 5.2866 22.1933 4.72178V0.993606C22.1933 0.330628 21.8797 0 21.2527 0H19.7491C19.122 0 18.8085 0.33235 18.8085 0.993606V4.77172C18.8085 5.3021 18.5573 5.56729 18.0566 5.56729H13.1206C12.6183 5.56729 12.3672 5.2866 12.3672 4.72178V0.993606C12.3672 0.330628 12.0536 0 11.4266 0H9.92131C9.32544 0 9.02832 0.347848 9.02832 1.04354V4.77172C9.02832 5.3021 8.77717 5.56729 8.27651 5.56729H0.940587C0.313529 5.56729 0 5.83248 0 6.36287C0 6.86053 0.329944 7.1085 0.988191 7.1085H8.27487C8.77553 7.1085 9.02668 7.37369 9.02668 7.90408V11.6822C9.02668 12.3452 9.35499 12.6758 10.0149 12.6758H11.4249C12.052 12.6758 12.3655 12.3279 12.3655 11.6322V7.90408C12.3655 7.37369 12.6314 7.1085 13.1649 7.1085H18.055C18.5557 7.1085 18.8068 7.37369 18.8068 7.90408V11.9302C18.8068 12.7257 19.6062 12.6758 19.6062 12.6758H21.251C21.8781 12.6758 22.1916 12.3279 22.1916 11.6322V7.90408C22.1916 7.37369 22.4575 7.1085 22.991 7.1085H30.2794C30.9064 7.1085 31.2199 6.84331 31.2199 6.31293C31.2199 5.81526 30.9064 5.56729 30.2794 5.56729Z" fill="white"/>
<path d="M11.7747 35.0965L11.7583 35.0931H11.7419C11.4136 35.1189 10.9934 35.3393 10.4549 35.7664H10.4517C10.1266 36.0436 10.0364 36.0126 10.0331 36.0109C10.0281 36.0075 10.0084 35.9713 10.0084 35.8714V16.8638C10.0084 16.5727 10.125 16.4505 10.4008 16.4505C10.6765 16.4505 11.0065 16.3041 11.0065 15.6067V15.4035C11.0065 14.8817 10.734 14.5924 10.2399 14.5924H1.52346C1.02937 14.5924 0.756875 14.88 0.756875 15.4035V15.6411C0.756875 16.1629 1.04086 16.4522 1.55465 16.4522H1.90922C2.18335 16.4522 2.2999 16.5762 2.2999 16.8655V38.048C2.2999 38.3494 2.17186 38.5096 1.88788 38.5647L1.30678 38.6663C1.0228 38.7214 0.82746 38.8385 0.725687 39.0141C0.635403 39.1743 0.623913 39.3775 0.697781 39.622C1.02773 40.5794 1.09339 41.2768 0.896404 41.6953L0.884913 41.7332C0.847159 42.0053 0.886555 42.1861 1.00967 42.2894C1.13935 42.3979 1.33141 42.3944 1.59241 42.2842C3.80024 41.5145 5.70111 40.6397 7.24085 39.6909C7.54125 39.5152 7.63646 39.5565 7.65287 39.5669C7.68406 39.5858 7.70212 39.6513 7.70212 39.7477V46.3775C7.70212 46.8992 7.9861 47.1885 8.50154 47.1885H9.28125C9.6588 47.1885 10.0084 47.0887 10.0084 46.3602V37.7777C10.0084 37.4522 10.1693 37.1182 10.4681 36.7979C10.7931 36.5688 11.123 36.2899 11.4546 35.9627C11.8748 35.4909 11.9372 35.3324 11.9028 35.2153C11.8847 35.1551 11.8387 35.112 11.7764 35.0982L11.7747 35.0965ZM7.70212 36.9925C7.70212 37.3007 7.55766 37.5177 7.26548 37.6537C6.84689 37.8311 6.10821 38.0239 5.09868 38.222C4.63249 38.1979 4.57339 37.9706 4.57339 37.7742V31.8247C4.57339 31.5354 4.69979 31.4114 4.9969 31.4114H6.12298C6.78944 31.4114 6.88957 30.9895 6.88957 30.7364C6.88957 30.4832 6.78944 30.0958 6.12298 30.0958H4.96572C4.69158 30.0958 4.57339 29.9614 4.57339 29.648V24.2082C4.57339 23.9189 4.69979 23.7949 4.9969 23.7949H6.12298C6.78944 23.7949 6.88957 23.373 6.88957 23.1199C6.88957 22.8667 6.78944 22.4793 6.12298 22.4793H4.96572C4.69158 22.4793 4.57339 22.3449 4.57339 22.0315V16.8638C4.57339 16.5727 4.69979 16.4505 4.9969 16.4505H7.31308C7.58721 16.4505 7.70376 16.5745 7.70376 16.8638V36.9925H7.70212Z" fill="white"/>
<path d="M27.9041 22.7117C27.9221 22.7135 27.9386 22.7152 27.9566 22.7152C28.1864 22.7152 28.4327 22.5309 28.7084 22.1538V22.1504C29.0105 21.7164 29.347 21.2721 29.7147 20.8227C30.0348 20.3956 30.2482 19.724 29.4471 18.9594C28.3325 17.928 27.2032 16.9137 26.0869 15.939C25.7882 15.6876 25.5649 15.5481 25.3811 15.512C25.3253 15.512 25.2744 15.5378 25.2416 15.586C25.1808 15.6704 25.1349 15.8254 25.3483 16.6141C25.9901 18.6822 26.6844 20.5678 27.4084 22.2158C27.538 22.5206 27.7038 22.6876 27.9041 22.7117Z" fill="white"/>
<path d="M29.6981 26.2591C29.9328 26.2591 30.1741 26.2608 30.335 26.0938C30.4351 25.9888 30.4844 25.8338 30.4844 25.6237V25.5066C30.4827 25.4033 30.4811 25.2517 30.4811 25.1415C30.4811 24.7093 29.9952 24.7093 29.7326 24.7093H24.373C24.3697 24.2943 24.3681 23.931 24.3681 23.7915V14.5546C24.3681 14.0517 24.1055 13.7745 23.6311 13.7745H22.894C22.418 13.7745 22.157 14.0638 22.157 14.5873V24.7093H18.1484C18.045 24.7093 17.9728 24.6886 17.9498 24.6508C17.9383 24.6318 17.9104 24.5543 18.0105 24.3322L20.0099 19.7068C20.2216 19.2092 20.0526 18.7132 19.5076 18.2311C19.1711 17.9332 18.9035 17.8229 18.695 17.8901C18.544 17.9383 18.4357 18.0744 18.3733 18.2948L16.717 24.1428C16.6087 24.5251 16.4215 24.711 16.1474 24.711H11.5544C11.0718 24.711 10.8059 24.9917 10.8059 25.5014C10.8059 26.0112 11.0833 26.2591 11.5856 26.2591H22.157L22.1258 27.2372V29.8082C22.1668 31.4476 22.2801 33.1231 22.4656 34.7935C22.7118 36.6808 23.1173 38.3839 23.6688 39.8545C23.8001 40.2523 23.7739 40.5984 23.5884 40.9135C22.6773 42.4754 21.2591 44.1268 19.373 45.8213C18.8986 46.2466 18.8362 46.4223 18.8378 46.5376C18.8378 46.6048 18.8657 46.6634 18.9051 46.6961C19.0102 46.8063 19.1924 46.7839 19.8539 46.3586C21.3264 45.4287 22.8333 44.2542 24.332 42.8646C24.4781 42.7182 24.6028 42.6476 24.6931 42.6665C24.7588 42.6786 24.8195 42.744 24.8802 42.8697C25.8504 44.5504 27.4689 46.0314 29.6981 47.2747C29.8409 47.3436 29.9657 47.3763 30.0707 47.3763C30.1544 47.3763 30.2267 47.3556 30.289 47.3126C30.4204 47.223 30.486 47.0508 30.486 46.7977V43.6791C30.486 43.221 30.4056 42.868 30.2562 42.6442C30.0018 42.1275 29.9131 41.4973 29.9936 40.7551V38.2857C29.9936 37.8036 29.9525 37.5056 29.7473 37.5056C29.6078 37.5056 29.5307 37.6296 29.442 38.3615C29.2368 39.6358 29.0513 40.917 28.8888 42.1654C28.8642 42.3411 28.815 42.4565 28.7493 42.4892C28.6787 42.5253 28.5671 42.4754 28.4866 42.4272C27.9088 42.0914 27.3212 41.5438 26.7466 40.8102C26.4873 40.4193 26.438 40.0818 26.5973 39.7804C27.6446 37.8707 28.3225 35.7991 28.6098 33.6277C28.8757 31.8936 29.0727 30.1406 29.1941 28.422C29.2188 28.1671 29.1712 27.9691 29.0546 27.8331C28.9381 27.697 28.7575 27.6281 28.5178 27.6281H27.5953C27.1242 27.6281 26.8369 27.8916 26.7663 28.391C26.6416 29.357 26.5382 30.3093 26.4594 31.2254C26.3379 32.9371 25.9686 34.6746 25.3596 36.3881C25.3235 36.4914 25.2955 36.5637 25.2726 36.6102C25.2676 36.5895 25.2627 36.5637 25.2578 36.5327C24.9738 35.2222 24.767 33.7534 24.6455 32.1708L24.3993 26.3228V26.2608H29.639H29.6981V26.2591Z" fill="white"/>
<path d="M13.8132 23.5641C13.9167 23.8654 14.0447 24.0204 14.2039 24.0376C14.2138 24.0376 14.2253 24.0394 14.2351 24.0394C14.3796 24.0394 14.5191 23.924 14.6619 23.6829L15.3497 22.4258C15.6485 21.8662 15.6107 21.3702 15.2397 20.9518C14.7735 20.4162 14.3008 19.8617 13.8329 19.2986C13.6688 19.1161 13.4538 18.9181 13.2699 19.0007C13.091 19.0817 13.0811 19.3589 13.0877 19.5587C13.1501 20.845 13.3947 22.1899 13.8132 23.5624V23.5641Z" fill="white"/>
<path d="M19.7705 44.2887V28.0087C19.7705 27.499 19.5046 27.2183 19.022 27.2183H18.3047C17.8221 27.2183 17.5561 27.499 17.5561 28.0087C17.5561 28.4788 17.3542 28.5391 17.1802 28.5391H14.6802C14.5046 28.5391 14.3027 28.4753 14.3027 27.976C14.3027 27.4766 14.0367 27.2183 13.5541 27.2183H13.0223C12.5594 27.2183 12.3049 27.511 12.3049 28.0431V44.5866C12.3049 45.0963 12.5823 45.377 13.0847 45.377H13.5525C14.0351 45.377 14.301 45.0842 14.301 44.5538V43.1332C14.301 42.8542 14.4241 42.7354 14.7097 42.7354H17.1786C17.4429 42.7354 17.5545 42.8542 17.5545 43.1332V44.3231C17.5545 44.8328 17.8319 45.1135 18.3342 45.1135H19.022C19.5046 45.1135 19.7705 44.8208 19.7705 44.2887ZM17.5561 41.0513C17.5561 41.3302 17.4429 41.449 17.1802 41.449H14.6802C14.4159 41.449 14.3027 41.3199 14.3027 41.0185V36.7152C14.3027 36.4362 14.4258 36.3174 14.7114 36.3174H15.7734C16.2561 36.3174 16.522 36.0367 16.522 35.527C16.522 35.0173 16.2561 34.7693 15.7734 34.7693H14.6802C14.4159 34.7693 14.3027 34.6402 14.3027 34.3388V30.4884C14.3027 30.2094 14.4258 30.0906 14.7114 30.0906H17.2114C17.3821 30.0906 17.5578 30.1423 17.5578 30.5211V41.053L17.5561 41.0513Z" fill="white"/>
<path d="M15.929 15.989H11.8055C11.3229 15.989 11.057 16.2697 11.057 16.7794C11.057 17.2891 11.3344 17.5371 11.8367 17.5371H20.522C21.0046 17.5371 21.2705 17.2564 21.2705 16.7467C21.2705 16.2369 21.0046 15.989 20.522 15.989H17.1487C17.0551 15.989 17.0239 15.9666 17.0223 15.9631C17.0223 15.9631 16.9927 15.8822 17.1848 15.5998L17.7445 14.7767C18.2452 14.0947 17.994 13.6384 17.6936 13.3732L16.1309 12.0524C15.5219 11.5393 15.384 11.4962 15.3036 11.4962L15.2265 11.5065L15.1903 11.5513C15.1378 11.615 15.0984 11.7218 15.1805 12.3366C15.3496 13.7331 15.6171 14.8042 15.9766 15.5206C16.1358 15.8288 16.0997 15.9235 16.0915 15.939C16.0751 15.97 16.016 15.9872 15.929 15.9872V15.989Z" fill="white"/>
<path d="M52.5007 44.7484C45.9248 44.7484 40.5751 39.1381 40.5751 32.2396V20.0839C40.5751 13.1872 45.9231 7.57513 52.5007 7.57513C59.0782 7.57513 64.4246 13.1855 64.4246 20.0839V32.2396C64.4246 39.1363 59.0766 44.7484 52.5007 44.7484ZM52.5007 8.28288C46.2957 8.28288 41.2481 13.5781 41.2481 20.0856V32.2414C41.2481 38.7489 46.2957 44.0441 52.5007 44.0441C58.7056 44.0441 63.7516 38.7489 63.7516 32.2414V20.0839C63.7516 13.5764 58.7056 8.28116 52.5007 8.28116V8.28288Z" fill="white"/>
<path d="M52.5003 42.7216C46.9914 42.7216 42.5084 38.0187 42.5084 32.2396V20.0839C42.5084 14.303 46.9914 9.60193 52.5003 9.60193C58.0092 9.60193 62.4922 14.3048 62.4922 20.0839V32.2396C62.4922 38.0204 58.0092 42.7216 52.5003 42.7216ZM52.5003 10.308C47.3624 10.308 43.1814 14.6939 43.1814 20.0839V32.2396C43.1814 37.6295 47.3624 42.0155 52.5003 42.0155C57.6383 42.0155 61.8192 37.6295 61.8192 32.2396V20.0839C61.8192 14.6939 57.6383 10.308 52.5003 10.308Z" fill="white"/>
<path d="M60.6671 33.5828C60.6293 33.2522 60.6047 32.8906 60.5899 32.4997C60.544 32.4962 60.4915 32.4962 60.4307 32.4997C60.37 32.5031 60.3142 32.5135 60.2633 32.5307C60.1911 32.5565 60.1287 32.5944 60.0794 32.6443C60.0302 32.6943 60.0039 32.758 59.999 32.8355C60.0039 33.1454 59.9859 33.4003 59.9448 33.6035C59.9021 33.8067 59.8217 33.9823 59.6986 34.1287C59.5771 34.2751 59.4081 34.406 59.1947 34.5196C58.9813 34.6333 58.694 34.7538 58.3329 34.8812L54.8791 36.1021L58.9583 26.2883C58.9681 26.2625 58.9583 26.2332 58.9616 26.2057C58.9665 26.2005 58.978 26.1954 58.9813 26.1919C59.0272 26.1299 59.0535 26.0576 59.0584 25.9732L59.2029 23.4815C59.2144 23.2955 59.2751 23.1491 59.39 23.0458C59.5033 22.9425 59.7002 22.8529 59.9809 22.7789C60.0236 22.7634 60.063 22.7375 60.0942 22.6997C60.1254 22.6635 60.1451 22.5981 60.15 22.5051C60.1533 22.45 60.15 22.3759 60.1369 22.2846C59.9186 22.3329 59.6641 22.3828 59.3736 22.4362C59.0814 22.4896 58.8237 22.5309 58.5971 22.5619C58.3706 22.5929 58.108 22.6222 57.8043 22.648C57.5023 22.6738 57.2248 22.6962 56.9737 22.7117C56.9523 22.7892 56.9392 22.865 56.9343 22.939C56.931 22.9958 56.9409 23.0492 56.9638 23.1009C56.9868 23.1525 57.0328 23.1801 57.1017 23.1801C57.4284 23.1818 57.6598 23.2232 57.7912 23.3024C57.9241 23.3816 57.9849 23.5469 57.9701 23.8L57.847 25.9422C57.6697 26.0214 57.453 26.0972 57.1953 26.1695C56.9359 26.2419 56.6815 26.2952 56.4303 26.328C55.9363 26.3951 55.4848 26.3486 55.0761 26.1919C54.6674 26.0335 54.321 25.7804 54.0354 25.4291C53.7498 25.0778 53.5347 24.6455 53.387 24.1272C53.2409 23.6106 53.1867 23.0286 53.2228 22.3862C53.254 21.8352 53.3542 21.3152 53.5199 20.8244C53.6857 20.3336 53.9156 19.8997 54.2077 19.5225C54.5016 19.1437 54.8611 18.8286 55.2895 18.5771C55.7163 18.3257 56.2087 18.1621 56.7636 18.0864C57.4579 17.9917 57.9832 18.0554 58.3411 18.2758C58.6989 18.4962 58.9369 18.9078 59.0568 19.5122C59.0847 19.6293 59.1668 19.6775 59.3063 19.6586C59.3408 19.6534 59.3851 19.6431 59.4376 19.6276C59.4901 19.6121 59.5246 19.5931 59.5443 19.5707C59.4852 19.2453 59.4425 18.9112 59.4146 18.5668C59.3867 18.2224 59.3736 17.8901 59.3752 17.5646C59.1011 17.5267 58.8467 17.4992 58.6119 17.4802C58.3755 17.4613 58.1424 17.4492 57.911 17.444C57.6779 17.4389 57.4432 17.444 57.2068 17.463C56.9688 17.4819 56.7193 17.5078 56.4583 17.5439C55.4553 17.68 54.495 18.1621 53.6513 18.7803C52.2396 19.8153 51.4992 21.5166 51.4155 22.9476C51.4008 23.1956 51.3975 23.4418 51.409 23.6847C51.2317 23.7863 51.0298 23.8844 50.7737 23.9757L48.3787 24.9986L52.3742 15.2571C52.4004 15.1813 52.4021 15.0866 52.3742 14.9747L46.4122 17.0824C46.0822 17.1995 45.7901 17.2908 45.5373 17.3562C45.2845 17.4217 45.0596 17.4905 44.8642 17.5594C44.6574 17.6317 44.5688 17.7575 44.6 17.9348C44.6262 18.1415 44.6574 18.4118 44.6968 18.7425C44.7346 19.0731 44.7608 19.4347 44.774 19.8256C44.8199 19.829 44.8725 19.829 44.9332 19.8256C44.9923 19.8222 45.0497 19.8118 45.1006 19.7946C45.1729 19.7688 45.2352 19.7309 45.2845 19.681C45.3337 19.631 45.36 19.5673 45.3649 19.4898C45.36 19.1798 45.378 18.925 45.4191 18.7218C45.4618 18.5186 45.5422 18.3429 45.6653 18.1966C45.7868 18.0502 45.9559 17.9193 46.1693 17.8057C46.3826 17.692 46.6699 17.5715 47.031 17.444L50.4848 16.2231L46.4056 26.0369C46.3958 26.0628 46.4056 26.092 46.4023 26.1196C46.3974 26.1248 46.3859 26.1299 46.3826 26.1334C46.3367 26.1954 46.3104 26.2677 46.3055 26.3521L46.161 28.8438C46.1495 29.0298 46.0888 29.1762 45.9739 29.2795C45.8606 29.3828 45.6637 29.4724 45.383 29.5464C45.3403 29.5619 45.3009 29.5877 45.2697 29.6256C45.2385 29.6618 45.2188 29.7272 45.2139 29.8202C45.2106 29.8753 45.2139 29.9494 45.227 30.0406C45.4453 29.9924 45.6998 29.9425 45.9903 29.8891C46.2825 29.8357 46.5402 29.7944 46.7668 29.7634C46.9933 29.7324 47.2559 29.7031 47.5596 29.6773C47.8617 29.6515 48.1391 29.6291 48.3902 29.6136C48.4116 29.5361 48.4247 29.4603 48.4296 29.3863C48.4329 29.3312 48.423 29.2761 48.4001 29.2244C48.3771 29.1727 48.3311 29.1452 48.2622 29.1452C47.9355 29.1435 47.7041 29.1021 47.5727 29.0229C47.4398 28.9437 47.379 28.7784 47.3938 28.5253L47.5169 26.3831C47.6942 26.3038 47.9109 26.2281 48.1686 26.1558C48.428 26.0834 48.6824 26.03 48.9336 25.9973C49.4277 25.9302 49.8791 25.9767 50.2878 26.1334C50.6965 26.2918 51.0429 26.5449 51.3285 26.8962C51.6141 27.2475 51.8292 27.6797 51.9769 28.1981C52.123 28.7147 52.1772 29.2967 52.1411 29.9408C52.1099 30.4918 52.0098 31.0119 51.844 31.5026C51.6782 31.9934 51.4484 32.4274 51.1562 32.8045C50.8623 33.1833 50.5028 33.4984 50.0744 33.7499C49.6476 34.0013 49.1552 34.1649 48.6003 34.2406C47.906 34.3354 47.3807 34.2716 47.0228 34.0512C46.665 33.8308 46.427 33.4192 46.3071 32.8148C46.2792 32.6977 46.1972 32.6495 46.0576 32.6684C46.0232 32.6736 45.9788 32.6839 45.9263 32.6994C45.8738 32.7149 45.8393 32.7339 45.8196 32.7563C45.8787 33.0817 45.9214 33.4158 45.9493 33.7602C45.9772 34.1046 45.9903 34.4369 45.9887 34.7624C46.2628 34.8003 46.5172 34.8278 46.752 34.8468C46.9884 34.8657 47.2215 34.8778 47.4529 34.883C47.686 34.8881 47.9207 34.883 48.1571 34.864C48.3951 34.8451 48.6446 34.8192 48.9057 34.7831C49.9086 34.647 50.8689 34.1649 51.7126 33.5467C53.1243 32.5117 53.8647 30.8104 53.9484 29.3794C53.9632 29.1314 53.9664 28.8852 53.9549 28.6424C54.1322 28.5408 54.3341 28.4426 54.5902 28.3513L56.9852 27.3284L52.9897 37.0699C52.9635 37.1457 52.9618 37.2404 52.9897 37.3523L58.9517 35.2446C59.2817 35.1275 59.5738 35.0362 59.8266 34.9708C60.0794 34.9053 60.3043 34.8365 60.4997 34.7676C60.7065 34.6953 60.7951 34.5695 60.7639 34.3922C60.7377 34.1855 60.7065 33.9152 60.6671 33.5845V33.5828ZM48.2852 25.5427L51.2415 24.3907C51.3269 24.3597 51.3991 24.3442 51.4812 24.3166C51.5665 24.7799 51.7307 25.2138 52.0212 25.5909C52.0918 25.6822 52.1755 25.7528 52.2527 25.8337C51.1611 25.2637 49.7379 25.2448 48.2852 25.5444V25.5427ZM54.124 27.9346C54.0387 27.9656 53.9664 27.9811 53.8844 28.0086C53.799 27.5454 53.6349 27.1115 53.3443 26.7344C53.2737 26.6431 53.19 26.5725 53.1129 26.4915C54.2045 27.0615 55.6293 27.0805 57.0804 26.7808L54.124 27.9329V27.9346Z" fill="white"/>
</svg>
