<svg width="155" height="35" viewBox="0 0 155 35" fill="none" xmlns="http://www.w3.org/2000/svg">
<g clip-path="url(#clip0_1419_6322)">
<path d="M1.3088 1.60394C1.3088 0.921138 1.60481 0.581543 2.20029 0.581543H21.3289C21.9523 0.581543 22.095 0.906687 21.7503 1.55336L4.49517 32.6878C4.15041 33.338 4.29319 33.6451 4.91653 33.6126C8.54167 33.4175 13.9672 32.6733 21.1861 31.3763C21.9035 31.2138 22.2657 31.4414 22.2657 32.0555V33.562C22.2657 34.2412 21.9523 34.5844 21.3289 34.5844H0.605367C-0.0214582 34.5844 -0.160753 34.2593 0.184001 33.6126L17.4391 2.1892C17.6898 1.734 17.4705 1.5064 16.7809 1.5064C13.4344 1.44137 8.65311 2.05914 2.43361 3.35611C1.6849 3.51868 1.3088 3.30914 1.3088 2.72388V1.60394Z" fill="white"/>
<path d="M37.7136 7.58613H40.4333C41.8402 7.7487 43.0903 8.13888 44.1838 8.75304C45.6847 9.59842 46.6214 10.7473 46.9975 12.2068C47.1542 12.6945 47.2622 13.2617 47.3249 13.9084V33.5616C47.3249 34.2408 47.0115 34.584 46.3881 34.584H45.5454C44.8907 34.584 44.5599 34.4214 44.5599 34.0963C44.5599 33.7711 44.2465 33.7241 43.6231 33.9517C42.3416 34.4395 40.778 34.761 38.9359 34.9236C37.8737 35.1186 36.6236 34.9236 35.1854 34.3383C33.9352 33.9156 32.7477 33.0088 31.6229 31.6143C30.028 29.4756 29.342 27.2357 29.5613 24.9019C29.6867 23.5399 29.9514 22.2429 30.3588 21.011C30.8881 19.584 31.8597 18.2725 33.2666 17.0695C34.5168 16.1627 35.7669 15.5955 37.0171 15.3679C38.7374 15.1078 40.1582 15.0428 41.283 15.1728C42.063 15.3029 42.8466 15.5305 43.6266 15.8556C44.25 16.1808 44.5634 16.0832 44.5634 15.563C44.5007 14.266 44.2813 13.016 43.9087 11.8166C43.5326 10.4871 42.5958 9.49726 41.0949 8.85058C39.3746 8.4279 38.0305 8.44596 37.0624 8.89755C35.7182 9.41778 34.858 10.5341 34.4819 12.2538C34.4192 12.9041 34.0745 13.2256 33.4511 13.2256H32.4204C31.7935 13.2256 31.515 12.9004 31.5776 12.2538C31.7657 10.7942 32.6084 9.60925 34.1093 8.70246C35.1401 8.0883 36.345 7.71258 37.7205 7.58252L37.7136 7.58613ZM39.0264 15.9532C37.2121 15.9857 35.7112 16.878 34.5237 18.6302C33.3049 20.61 32.7582 22.7993 32.8835 25.1981C32.8208 26.8202 33.0542 28.2798 33.587 29.5767C34.273 31.1338 35.2585 32.3188 36.54 33.128C37.7588 33.6808 38.9324 33.9879 40.0572 34.0529C40.8999 34.1504 42.1501 33.8253 43.8077 33.0811C44.3057 32.7884 44.5564 32.3838 44.5564 31.8636V18.2906C44.5564 17.7704 44.243 17.3007 43.6196 16.8817C42.1814 16.1049 40.6492 15.7942 39.0229 15.9568L39.0264 15.9532Z" fill="white"/>
<path d="M62.5808 7.58676C66.7074 7.55424 69.0998 9.92057 69.7545 14.6894C70.2246 17.706 70.5519 20.2999 70.74 22.4711C70.8967 24.5485 71.3041 27.1424 71.9588 30.2529C72.1782 31.4524 72.5508 32.5868 73.0836 33.6597C73.5224 34.2775 73.4283 34.5846 72.8015 34.5846H70.3151C69.6883 34.5846 69.2843 34.2594 69.0963 33.6128C68.5321 31.0188 68.1421 28.4068 67.9227 25.7804C67.766 21.6944 67.47 17.8035 67.0312 14.1041C66.9372 12.8396 66.5298 11.5427 65.8124 10.2132C64.813 8.88372 63.42 8.33098 61.6405 8.55858C60.3904 8.68864 59.2969 9.14384 58.3567 9.92057C57.7612 10.4408 57.4652 10.9574 57.4652 11.4777V33.5622C57.4652 34.2414 57.1518 34.5846 56.5284 34.5846H55.6857C55.031 34.5846 54.7002 34.2594 54.7002 33.6128V9.33892C54.7002 8.69225 55.0136 8.3671 55.637 8.3671H56.5284C57.1518 8.3671 57.4652 8.57664 57.4652 8.99933C57.4652 9.45453 57.7786 9.46898 58.4019 9.04629C59.6208 8.26956 61.0102 7.78184 62.5738 7.58676H62.5808Z" fill="white"/>
<path d="M91.3447 1.5065C93.2217 0.632225 95.3773 0.130058 97.815 0H101.332C101.865 0.0650289 102.412 0.177023 102.972 0.339595C103.596 0.502168 103.909 0.906792 103.909 1.55708V3.79335C103.909 4.44364 103.627 4.44364 103.066 3.79335C101.754 2.59393 99.9566 1.7341 97.6757 1.21387C96.4882 1.0513 95.05 1.19942 93.361 1.65101C90.6413 2.49277 88.6076 4.51951 87.2669 7.73121C85.8287 10.9429 85.1391 14.3461 85.2053 17.948C85.0173 21.1922 85.6754 24.3858 87.1763 27.5325C88.8653 31.6185 91.585 33.8873 95.3355 34.3425C96.3976 34.5376 97.8359 34.2955 99.6502 33.6127C100.148 33.3526 100.399 32.966 100.399 32.4458V10.1192C100.399 9.47254 100.712 9.1474 101.336 9.1474H102.976C103.599 9.1474 103.913 9.47254 103.913 10.1192V31.6691C103.913 32.3194 103.599 32.836 102.976 33.2262C100.538 34.5556 97.9125 35.1228 95.0987 34.9277C92.3476 34.7327 89.8473 33.8584 87.5977 32.3013C86.4729 31.5571 85.3168 30.3866 84.1293 28.8006C82.4717 26.4017 81.4862 23.8078 81.1762 21.0188C80.8628 17.7421 81.2389 14.5665 82.301 11.4848C82.8025 10.0903 83.4572 8.79335 84.272 7.59393C86.3963 4.57731 88.7573 2.55058 91.3517 1.51373L91.3447 1.5065Z" fill="white"/>
<path d="M119.357 7.58613H122.077C123.484 7.7487 124.734 8.13888 125.827 8.75304C127.328 9.59842 128.265 10.7473 128.641 12.2068C128.798 12.6945 128.906 13.2617 128.968 13.9084V33.5616C128.968 34.2408 128.655 34.584 128.032 34.584H127.189C126.534 34.584 126.203 34.4214 126.203 34.0963C126.203 33.7711 125.89 33.7241 125.267 33.9517C123.985 34.4395 122.422 34.761 120.579 34.9236C119.517 35.1186 118.267 34.9236 116.829 34.3383C115.579 33.9156 114.391 33.0088 113.266 31.6143C111.672 29.4756 110.986 27.2357 111.205 24.9019C111.33 23.5399 111.595 22.2429 112.002 21.011C112.532 19.584 113.503 18.2725 114.91 17.0695C116.16 16.1627 117.41 15.5955 118.661 15.3679C120.381 15.1078 121.802 15.0428 122.927 15.1728C123.707 15.3029 124.49 15.5305 125.27 15.8556C125.894 16.1808 126.207 16.0832 126.207 15.563C126.144 14.266 125.925 13.016 125.552 11.8166C125.176 10.4871 124.239 9.49726 122.738 8.85058C121.018 8.4279 119.674 8.44596 118.706 8.89755C117.362 9.41778 116.502 10.5341 116.125 12.2538C116.063 12.9041 115.718 13.2256 115.095 13.2256H114.064C113.437 13.2256 113.159 12.9004 113.221 12.2538C113.409 10.7942 114.252 9.60925 115.753 8.70246C116.784 8.0883 117.989 7.71258 119.364 7.58252L119.357 7.58613ZM120.67 15.9532C118.856 15.9857 117.355 16.878 116.167 18.6302C114.948 20.61 114.402 22.7993 114.527 25.1981C114.464 26.8202 114.698 28.2798 115.231 29.5767C115.917 31.1338 116.902 32.3188 118.184 33.128C119.402 33.6808 120.576 33.9879 121.701 34.0529C122.543 34.1504 123.794 33.8253 125.451 33.0811C125.949 32.7884 126.2 32.3838 126.2 31.8636V18.2906C126.2 17.7704 125.887 17.3007 125.263 16.8817C123.825 16.1049 122.293 15.7942 120.666 15.9568L120.67 15.9532Z" fill="white"/>
<path d="M144.225 7.58676C148.352 7.55424 150.744 9.92057 151.399 14.6894C151.869 17.706 152.196 20.2999 152.384 22.4711C152.541 24.5485 152.949 27.1424 153.603 30.2529C153.823 31.4524 154.195 32.5868 154.728 33.6597C155.167 34.2775 155.073 34.5846 154.446 34.5846H151.96C151.333 34.5846 150.929 34.2594 150.741 33.6128C150.177 31.0188 149.787 28.4068 149.567 25.7804C149.411 21.6944 149.115 17.8035 148.676 14.1041C148.582 12.8396 148.174 11.5427 147.457 10.2132C146.458 8.88372 145.065 8.33098 143.285 8.55858C142.035 8.68864 140.941 9.14384 140.001 9.92057C139.406 10.4408 139.11 10.9574 139.11 11.4777V33.5622C139.11 34.2414 138.796 34.5846 138.173 34.5846H137.33C136.676 34.5846 136.345 34.2594 136.345 33.6128V9.33892C136.345 8.69225 136.658 8.3671 137.281 8.3671H138.173C138.796 8.3671 139.11 8.57664 139.11 8.99933C139.11 9.45453 139.423 9.46898 140.046 9.04629C141.265 8.26956 142.655 7.78184 144.218 7.58676H144.225Z" fill="white"/>
</g>
<defs>
<clipPath id="clip0_1419_6322">
<rect width="155" height="35" fill="white"/>
</clipPath>
</defs>
</svg>
