<svg width="611" height="46" viewBox="0 0 611 46" fill="none" xmlns="http://www.w3.org/2000/svg">
<g filter="url(#filter0_d_822_6077)">
<path d="M16.656 9.4V29H14.836V9.4H16.656ZM23.012 18.92V19.76H16.572V18.92H23.012ZM24.216 9.4V10.268H16.572V9.4H24.216ZM23.012 19.704V21.552H22.732V21.132C22.732 20.7587 22.6013 20.4413 22.34 20.18C22.0787 19.9 21.7613 19.76 21.388 19.76V19.704H23.012ZM23.012 17.128V18.976H21.388V18.92C21.7613 18.9013 22.0787 18.7613 22.34 18.5C22.6013 18.22 22.732 17.8933 22.732 17.52V17.128H23.012ZM24.216 10.184V12.06H23.936V11.64C23.936 11.2667 23.796 10.9493 23.516 10.688C23.2547 10.408 22.9373 10.268 22.564 10.268V10.184H24.216ZM24.216 8.896V9.708L20.8 9.4C21.2107 9.4 21.64 9.372 22.088 9.316C22.5547 9.26 22.984 9.19467 23.376 9.12C23.768 9.04533 24.048 8.97067 24.216 8.896ZM14.92 26.956V29H12.68V28.72C12.68 28.72 12.736 28.72 12.848 28.72C12.9787 28.72 13.044 28.72 13.044 28.72C13.5293 28.72 13.94 28.552 14.276 28.216C14.6307 27.8613 14.8173 27.4413 14.836 26.956H14.92ZM14.92 11.444H14.836C14.836 10.9587 14.6587 10.548 14.304 10.212C13.9493 9.85733 13.5293 9.68 13.044 9.68C13.044 9.68 12.988 9.68 12.876 9.68C12.764 9.68 12.708 9.68 12.708 9.68L12.68 9.4H14.92V11.444ZM16.572 26.956H16.656C16.6747 27.4413 16.852 27.8613 17.188 28.216C17.5427 28.552 17.9627 28.72 18.448 28.72C18.448 28.72 18.504 28.72 18.616 28.72C18.728 28.72 18.7933 28.72 18.812 28.72V29H16.572V26.956ZM30.6273 12.2V29H28.8633V12.2H30.6273ZM28.9473 27.208V29H26.5673V28.72C26.5673 28.72 26.6327 28.72 26.7633 28.72C26.894 28.72 26.9593 28.72 26.9593 28.72C27.482 28.72 27.9207 28.5707 28.2753 28.272C28.6487 27.9733 28.8447 27.6187 28.8633 27.208H28.9473ZM30.5433 27.208H30.6273C30.646 27.6187 30.8327 27.9733 31.1873 28.272C31.5607 28.5707 32.0087 28.72 32.5313 28.72C32.5313 28.72 32.5873 28.72 32.6993 28.72C32.83 28.72 32.8953 28.72 32.8953 28.72L32.9233 29H30.5433V27.208ZM30.5433 13.992V12.2H32.9233L32.8953 12.48C32.8953 12.48 32.83 12.48 32.6993 12.48C32.5873 12.48 32.5313 12.48 32.5313 12.48C32.0087 12.48 31.5607 12.6293 31.1873 12.928C30.8327 13.208 30.646 13.5627 30.6273 13.992H30.5433ZM28.9473 13.992H28.8633C28.8447 13.5627 28.6487 13.208 28.2753 12.928C27.9207 12.6293 27.482 12.48 26.9593 12.48C26.9407 12.48 26.866 12.48 26.7353 12.48C26.6233 12.48 26.5673 12.48 26.5673 12.48V12.2H28.9473V13.992ZM37.4576 11.78L52.9696 26.396L53.2496 29.392L37.7376 14.692L37.4576 11.78ZM37.5136 27.264V29H35.4136V28.72C35.4136 28.72 35.4883 28.72 35.6376 28.72C35.8056 28.72 35.8896 28.72 35.8896 28.72C36.3189 28.72 36.6829 28.58 36.9816 28.3C37.2803 28.02 37.4296 27.6747 37.4296 27.264H37.5136ZM38.6896 27.264C38.6896 27.6747 38.8389 28.02 39.1376 28.3C39.4549 28.58 39.8189 28.72 40.2296 28.72C40.2296 28.72 40.3043 28.72 40.4536 28.72C40.6216 28.72 40.7056 28.72 40.7056 28.72V29H38.6056V27.264H38.6896ZM37.4576 11.78L38.6616 13.348L38.6896 29H37.4296V15.28C37.4296 14.328 37.3829 13.5067 37.2896 12.816C37.2149 12.1253 37.1776 11.78 37.1776 11.78H37.4576ZM53.2496 12.2V25.808C53.2496 26.4053 53.2683 26.984 53.3056 27.544C53.3429 28.0853 53.3803 28.5333 53.4176 28.888C53.4736 29.224 53.5016 29.392 53.5016 29.392H53.2496L52.0176 27.908V12.2H53.2496ZM53.1656 13.936V12.2H55.2656V12.48C55.2656 12.48 55.1816 12.48 55.0136 12.48C54.8643 12.48 54.7896 12.48 54.7896 12.48C54.3789 12.48 54.0149 12.62 53.6976 12.9C53.3989 13.18 53.2496 13.5253 53.2496 13.936H53.1656ZM52.0176 13.936C51.9989 13.5253 51.8403 13.18 51.5416 12.9C51.2429 12.62 50.8789 12.48 50.4496 12.48C50.4496 12.48 50.3656 12.48 50.1976 12.48C50.0483 12.48 49.9736 12.48 49.9736 12.48V12.2H52.0736V13.936H52.0176ZM67.1459 12.2C68.9939 12.2 70.5899 12.536 71.9339 13.208C73.2779 13.88 74.3139 14.8507 75.0419 16.12C75.7699 17.3707 76.1339 18.864 76.1339 20.6C76.1339 22.336 75.7699 23.8293 75.0419 25.08C74.3139 26.3307 73.2779 27.3013 71.9339 27.992C70.5899 28.664 68.9939 29 67.1459 29H61.1819L61.1259 28.16C62.4326 28.16 63.5246 28.16 64.4019 28.16C65.2979 28.16 65.9792 28.16 66.4459 28.16C66.9126 28.16 67.1459 28.16 67.1459 28.16C69.3112 28.16 71.0099 27.488 72.2419 26.144C73.4926 24.7813 74.1179 22.9333 74.1179 20.6C74.1179 18.2667 73.4926 16.428 72.2419 15.084C71.0099 13.7213 69.3112 13.04 67.1459 13.04C67.1459 13.04 66.9032 13.04 66.4179 13.04C65.9326 13.04 65.2232 13.04 64.2899 13.04C63.3566 13.04 62.2086 13.04 60.8459 13.04V12.2H67.1459ZM61.5739 12.2V29H59.7539V12.2H61.5739ZM59.8099 27.18V29H57.7939V28.72C57.7939 28.72 57.8499 28.72 57.9619 28.72C58.0926 28.72 58.1579 28.72 58.1579 28.72C58.6059 28.72 58.9792 28.5707 59.2779 28.272C59.5766 27.9547 59.7352 27.5907 59.7539 27.18H59.8099ZM59.8099 14.02H59.7539C59.7352 13.572 59.5672 13.208 59.2499 12.928C58.9512 12.6293 58.5779 12.48 58.1299 12.48C58.1299 12.48 58.0739 12.48 57.9619 12.48C57.8499 12.48 57.7939 12.48 57.7939 12.48V12.2H59.8099V14.02ZM82.7172 12.2V29H80.9532V12.2H82.7172ZM81.0372 27.208V29H78.6572V28.72C78.6572 28.72 78.7225 28.72 78.8532 28.72C78.9839 28.72 79.0492 28.72 79.0492 28.72C79.5719 28.72 80.0105 28.5707 80.3652 28.272C80.7385 27.9733 80.9345 27.6187 80.9532 27.208H81.0372ZM82.6332 27.208H82.7172C82.7359 27.6187 82.9225 27.9733 83.2772 28.272C83.6505 28.5707 84.0985 28.72 84.6212 28.72C84.6212 28.72 84.6772 28.72 84.7892 28.72C84.9199 28.72 84.9852 28.72 84.9852 28.72L85.0132 29H82.6332V27.208ZM82.6332 13.992V12.2H85.0132L84.9852 12.48C84.9852 12.48 84.9199 12.48 84.7892 12.48C84.6772 12.48 84.6212 12.48 84.6212 12.48C84.0985 12.48 83.6505 12.6293 83.2772 12.928C82.9225 13.208 82.7359 13.5627 82.7172 13.992H82.6332ZM81.0372 13.992H80.9532C80.9345 13.5627 80.7385 13.208 80.3652 12.928C80.0105 12.6293 79.5719 12.48 79.0492 12.48C79.0305 12.48 78.9559 12.48 78.8252 12.48C78.7132 12.48 78.6572 12.48 78.6572 12.48V12.2H81.0372V13.992ZM89.5474 11.78L105.059 26.396L105.339 29.392L89.8274 14.692L89.5474 11.78ZM89.6034 27.264V29H87.5034V28.72C87.5034 28.72 87.5781 28.72 87.7274 28.72C87.8954 28.72 87.9794 28.72 87.9794 28.72C88.4088 28.72 88.7728 28.58 89.0714 28.3C89.3701 28.02 89.5194 27.6747 89.5194 27.264H89.6034ZM90.7794 27.264C90.7794 27.6747 90.9288 28.02 91.2274 28.3C91.5448 28.58 91.9088 28.72 92.3194 28.72C92.3194 28.72 92.3941 28.72 92.5434 28.72C92.7114 28.72 92.7954 28.72 92.7954 28.72V29H90.6954V27.264H90.7794ZM89.5474 11.78L90.7514 13.348L90.7794 29H89.5194V15.28C89.5194 14.328 89.4728 13.5067 89.3794 12.816C89.3048 12.1253 89.2674 11.78 89.2674 11.78H89.5474ZM105.339 12.2V25.808C105.339 26.4053 105.358 26.984 105.395 27.544C105.433 28.0853 105.47 28.5333 105.507 28.888C105.563 29.224 105.591 29.392 105.591 29.392H105.339L104.107 27.908V12.2H105.339ZM105.255 13.936V12.2H107.355V12.48C107.355 12.48 107.271 12.48 107.103 12.48C106.954 12.48 106.879 12.48 106.879 12.48C106.469 12.48 106.105 12.62 105.787 12.9C105.489 13.18 105.339 13.5253 105.339 13.936H105.255ZM104.107 13.936C104.089 13.5253 103.93 13.18 103.631 12.9C103.333 12.62 102.969 12.48 102.539 12.48C102.539 12.48 102.455 12.48 102.287 12.48C102.138 12.48 102.063 12.48 102.063 12.48V12.2H104.163V13.936H104.107ZM118.791 11.808C119.65 11.808 120.452 11.8733 121.199 12.004C121.964 12.116 122.683 12.3027 123.355 12.564C124.046 12.8067 124.699 13.124 125.315 13.516L125.931 17.464H125.679C125.418 16.3627 124.988 15.4573 124.391 14.748C123.812 14.0387 123.056 13.516 122.123 13.18C121.19 12.8253 120.07 12.648 118.763 12.648C117.344 12.648 116.094 12.9747 115.011 13.628C113.947 14.2627 113.116 15.1773 112.519 16.372C111.922 17.548 111.623 18.9573 111.623 20.6C111.623 22.224 111.922 23.6333 112.519 24.828C113.116 26.0227 113.956 26.9467 115.039 27.6C116.122 28.2347 117.372 28.552 118.791 28.552C119.575 28.552 120.322 28.468 121.031 28.3C121.74 28.132 122.422 27.8707 123.075 27.516C123.747 27.1427 124.372 26.676 124.951 26.116L124.979 22.392C124.998 22.0373 124.886 21.7667 124.643 21.58C124.419 21.3933 124.102 21.3 123.691 21.3H123.299V21.02H128.423V21.3H128.031C127.191 21.3 126.771 21.6733 126.771 22.42V25.78C126.342 26.3213 125.754 26.872 125.007 27.432C124.26 27.992 123.364 28.4587 122.319 28.832C121.292 29.2053 120.116 29.392 118.791 29.392C116.943 29.3733 115.328 29.0093 113.947 28.3C112.584 27.5907 111.52 26.5827 110.755 25.276C109.99 23.9693 109.607 22.4107 109.607 20.6C109.607 18.7707 109.99 17.2027 110.755 15.896C111.52 14.5893 112.594 13.5813 113.975 12.872C115.356 12.1627 116.962 11.808 118.791 11.808ZM141.588 12.2V29H139.824V12.2H141.588ZM139.908 27.208V29H137.528V28.72C137.528 28.72 137.594 28.72 137.724 28.72C137.855 28.72 137.92 28.72 137.92 28.72C138.443 28.72 138.882 28.5707 139.236 28.272C139.61 27.9733 139.806 27.6187 139.824 27.208H139.908ZM141.504 27.208H141.588C141.607 27.6187 141.794 27.9733 142.148 28.272C142.522 28.5707 142.97 28.72 143.492 28.72C143.492 28.72 143.548 28.72 143.66 28.72C143.791 28.72 143.856 28.72 143.856 28.72L143.884 29H141.504V27.208ZM141.504 13.992V12.2H143.884L143.856 12.48C143.856 12.48 143.791 12.48 143.66 12.48C143.548 12.48 143.492 12.48 143.492 12.48C142.97 12.48 142.522 12.6293 142.148 12.928C141.794 13.208 141.607 13.5627 141.588 13.992H141.504ZM139.908 13.992H139.824C139.806 13.5627 139.61 13.208 139.236 12.928C138.882 12.6293 138.443 12.48 137.92 12.48C137.902 12.48 137.827 12.48 137.696 12.48C137.584 12.48 137.528 12.48 137.528 12.48V12.2H139.908V13.992ZM148.419 11.78L163.931 26.396L164.211 29.392L148.699 14.692L148.419 11.78ZM148.475 27.264V29H146.375V28.72C146.375 28.72 146.449 28.72 146.599 28.72C146.767 28.72 146.851 28.72 146.851 28.72C147.28 28.72 147.644 28.58 147.943 28.3C148.241 28.02 148.391 27.6747 148.391 27.264H148.475ZM149.651 27.264C149.651 27.6747 149.8 28.02 150.099 28.3C150.416 28.58 150.78 28.72 151.191 28.72C151.191 28.72 151.265 28.72 151.415 28.72C151.583 28.72 151.667 28.72 151.667 28.72V29H149.567V27.264H149.651ZM148.419 11.78L149.623 13.348L149.651 29H148.391V15.28C148.391 14.328 148.344 13.5067 148.251 12.816C148.176 12.1253 148.139 11.78 148.139 11.78H148.419ZM164.211 12.2V25.808C164.211 26.4053 164.229 26.984 164.267 27.544C164.304 28.0853 164.341 28.5333 164.379 28.888C164.435 29.224 164.463 29.392 164.463 29.392H164.211L162.979 27.908V12.2H164.211ZM164.127 13.936V12.2H166.227V12.48C166.227 12.48 166.143 12.48 165.975 12.48C165.825 12.48 165.751 12.48 165.751 12.48C165.34 12.48 164.976 12.62 164.659 12.9C164.36 13.18 164.211 13.5253 164.211 13.936H164.127ZM162.979 13.936C162.96 13.5253 162.801 13.18 162.503 12.9C162.204 12.62 161.84 12.48 161.411 12.48C161.411 12.48 161.327 12.48 161.159 12.48C161.009 12.48 160.935 12.48 160.935 12.48V12.2H163.035V13.936H162.979ZM169.965 11.78L185.477 26.396L185.757 29.392L170.245 14.692L169.965 11.78ZM170.021 27.264V29H167.921V28.72C167.921 28.72 167.996 28.72 168.145 28.72C168.313 28.72 168.397 28.72 168.397 28.72C168.827 28.72 169.191 28.58 169.489 28.3C169.788 28.02 169.937 27.6747 169.937 27.264H170.021ZM171.197 27.264C171.197 27.6747 171.347 28.02 171.645 28.3C171.963 28.58 172.327 28.72 172.737 28.72C172.737 28.72 172.812 28.72 172.961 28.72C173.129 28.72 173.213 28.72 173.213 28.72V29H171.113V27.264H171.197ZM169.965 11.78L171.169 13.348L171.197 29H169.937V15.28C169.937 14.328 169.891 13.5067 169.797 12.816C169.723 12.1253 169.685 11.78 169.685 11.78H169.965ZM185.757 12.2V25.808C185.757 26.4053 185.776 26.984 185.813 27.544C185.851 28.0853 185.888 28.5333 185.925 28.888C185.981 29.224 186.009 29.392 186.009 29.392H185.757L184.525 27.908V12.2H185.757ZM185.673 13.936V12.2H187.773V12.48C187.773 12.48 187.689 12.48 187.521 12.48C187.372 12.48 187.297 12.48 187.297 12.48C186.887 12.48 186.523 12.62 186.205 12.9C185.907 13.18 185.757 13.5253 185.757 13.936H185.673ZM184.525 13.936C184.507 13.5253 184.348 13.18 184.049 12.9C183.751 12.62 183.387 12.48 182.957 12.48C182.957 12.48 182.873 12.48 182.705 12.48C182.556 12.48 182.481 12.48 182.481 12.48V12.2H184.581V13.936H184.525ZM194.11 12.2V29H192.318V12.2H194.11ZM201.642 28.132L201.586 29H194.054V28.132H201.642ZM200.326 20.18V21.02H194.054V20.18H200.326ZM201.614 12.2V13.068H194.054V12.2H201.614ZM203.21 24.996L201.67 29H197.414L198.366 28.132C199.299 28.132 200.046 28.0013 200.606 27.74C201.184 27.46 201.651 27.0867 202.006 26.62C202.36 26.1347 202.668 25.5933 202.93 24.996H203.21ZM200.326 20.964V22.56H200.018V22.196C200.018 21.8787 199.924 21.608 199.738 21.384C199.551 21.1413 199.262 21.02 198.87 21.02V20.964H200.326ZM200.326 18.64V20.236H198.87V20.18C199.262 20.18 199.551 20.068 199.738 19.844C199.924 19.6013 200.018 19.3213 200.018 19.004V18.64H200.326ZM201.614 12.984V14.916H201.306V14.496C201.306 14.104 201.175 13.768 200.914 13.488C200.671 13.208 200.335 13.068 199.906 13.068V12.984H201.614ZM201.614 11.752V12.48L198.422 12.2C199 12.2 199.616 12.1533 200.27 12.06C200.923 11.948 201.371 11.8453 201.614 11.752ZM192.374 27.208L192.738 29H190.302V28.72C190.302 28.72 190.367 28.72 190.498 28.72C190.628 28.72 190.694 28.72 190.694 28.72C191.16 28.72 191.543 28.5707 191.842 28.272C192.14 27.9733 192.299 27.6187 192.318 27.208H192.374ZM192.374 13.964H192.318C192.299 13.5347 192.14 13.18 191.842 12.9C191.543 12.62 191.16 12.48 190.694 12.48C190.694 12.48 190.628 12.48 190.498 12.48C190.367 12.48 190.302 12.48 190.302 12.48V12.2H192.738L192.374 13.964ZM208.729 12.2H212.341C213.219 12.2 214.003 12.3027 214.693 12.508C215.403 12.7133 216 13.012 216.485 13.404C216.989 13.796 217.372 14.272 217.633 14.832C217.895 15.392 218.025 16.0267 218.025 16.736C218.025 17.52 217.839 18.248 217.465 18.92C217.092 19.592 216.569 20.1427 215.897 20.572C215.244 21.0013 214.497 21.2627 213.657 21.356C213.975 21.4867 214.339 21.776 214.749 22.224C215.179 22.672 215.543 23.1107 215.841 23.54C215.841 23.54 215.963 23.708 216.205 24.044C216.448 24.3613 216.756 24.7627 217.129 25.248C217.521 25.7147 217.904 26.1627 218.277 26.592C218.669 27.0213 219.024 27.3947 219.341 27.712C219.677 28.0293 220.032 28.2813 220.405 28.468C220.797 28.636 221.245 28.72 221.749 28.72V29H220.881C219.855 29 219.005 28.8693 218.333 28.608C217.68 28.3467 217.148 28.0293 216.737 27.656C216.327 27.264 215.972 26.8907 215.673 26.536C215.599 26.4427 215.421 26.2093 215.141 25.836C214.88 25.444 214.591 25.024 214.273 24.576C213.956 24.128 213.667 23.7267 213.405 23.372C213.144 22.9987 212.985 22.7747 212.929 22.7C212.556 22.2147 212.127 21.7853 211.641 21.412C211.156 21.02 210.643 20.824 210.101 20.824V20.544C210.101 20.544 210.251 20.5533 210.549 20.572C210.848 20.572 211.231 20.5627 211.697 20.544C212.22 20.5253 212.743 20.488 213.265 20.432C213.788 20.3573 214.273 20.152 214.721 19.816C215.188 19.48 215.552 18.92 215.813 18.136C215.888 17.9307 215.944 17.688 215.981 17.408C216.019 17.128 216.028 16.8387 216.009 16.54C215.991 16.0173 215.888 15.5507 215.701 15.14C215.533 14.7293 215.281 14.3747 214.945 14.076C214.628 13.7773 214.245 13.544 213.797 13.376C213.349 13.208 212.845 13.1147 212.285 13.096C211.408 13.0587 210.643 13.0493 209.989 13.068C209.336 13.0867 209.009 13.0867 209.009 13.068C209.009 13.0493 208.981 12.9747 208.925 12.844C208.888 12.6947 208.841 12.5547 208.785 12.424C208.748 12.2747 208.729 12.2 208.729 12.2ZM209.065 12.2V29H207.273V12.2H209.065ZM207.357 27.208L207.693 29H205.313V28.72C205.313 28.72 205.379 28.72 205.509 28.72C205.64 28.72 205.705 28.72 205.705 28.72C206.153 28.72 206.527 28.5707 206.825 28.272C207.124 27.9733 207.283 27.6187 207.301 27.208H207.357ZM207.357 13.964H207.301C207.283 13.5347 207.124 13.18 206.825 12.9C206.527 12.62 206.153 12.48 205.705 12.48C205.705 12.48 205.64 12.48 205.509 12.48C205.379 12.48 205.313 12.48 205.313 12.48V12.2H207.693L207.357 13.964ZM208.981 27.208H209.065C209.084 27.6187 209.243 27.9733 209.541 28.272C209.84 28.5707 210.213 28.72 210.661 28.72C210.661 28.72 210.717 28.72 210.829 28.72C210.96 28.72 211.025 28.72 211.025 28.72L211.053 29H208.645L208.981 27.208ZM233.312 12.2H236.42C237.727 12.2 238.856 12.396 239.808 12.788C240.76 13.1613 241.497 13.712 242.02 14.44C242.543 15.1493 242.804 15.9987 242.804 16.988C242.804 18.052 242.561 18.9667 242.076 19.732C241.609 20.4787 240.984 21.0573 240.2 21.468C239.416 21.86 238.548 22.056 237.596 22.056C236.644 22.0373 235.692 21.7947 234.74 21.328V21.048C234.74 21.048 234.889 21.076 235.188 21.132C235.505 21.188 235.907 21.216 236.392 21.216C236.877 21.1973 237.391 21.1133 237.932 20.964C238.473 20.796 238.977 20.4973 239.444 20.068C239.929 19.6387 240.312 19.0227 240.592 18.22C240.667 18.0147 240.713 17.772 240.732 17.492C240.769 17.212 240.788 16.9507 240.788 16.708C240.788 15.5693 240.396 14.6733 239.612 14.02C238.828 13.3667 237.745 13.04 236.364 13.04H233.62C233.62 13.04 233.592 12.9747 233.536 12.844C233.499 12.6947 233.452 12.5547 233.396 12.424C233.34 12.2747 233.312 12.2 233.312 12.2ZM233.676 12.2V29H231.884V12.2H233.676ZM231.94 27.208L232.304 29H229.868V28.72C229.868 28.72 229.933 28.72 230.064 28.72C230.195 28.72 230.26 28.72 230.26 28.72C230.708 28.72 231.081 28.5707 231.38 28.272C231.697 27.9733 231.865 27.6187 231.884 27.208H231.94ZM231.94 13.964H231.884C231.865 13.5347 231.697 13.18 231.38 12.9C231.081 12.62 230.708 12.48 230.26 12.48C230.26 12.48 230.195 12.48 230.064 12.48C229.933 12.48 229.868 12.48 229.868 12.48V12.2H232.304L231.94 13.964ZM233.592 27.208H233.648C233.667 27.6187 233.825 27.9733 234.124 28.272C234.441 28.5707 234.824 28.72 235.272 28.72C235.291 28.72 235.356 28.72 235.468 28.72C235.599 28.72 235.664 28.72 235.664 28.72V29H233.228L233.592 27.208ZM249.153 12.2V29H247.361V12.2H249.153ZM256.685 28.132L256.629 29H249.097V28.132H256.685ZM255.369 20.18V21.02H249.097V20.18H255.369ZM256.657 12.2V13.068H249.097V12.2H256.657ZM258.253 24.996L256.713 29H252.457L253.409 28.132C254.342 28.132 255.089 28.0013 255.649 27.74C256.227 27.46 256.694 27.0867 257.049 26.62C257.403 26.1347 257.711 25.5933 257.973 24.996H258.253ZM255.369 20.964V22.56H255.061V22.196C255.061 21.8787 254.967 21.608 254.781 21.384C254.594 21.1413 254.305 21.02 253.913 21.02V20.964H255.369ZM255.369 18.64V20.236H253.913V20.18C254.305 20.18 254.594 20.068 254.781 19.844C254.967 19.6013 255.061 19.3213 255.061 19.004V18.64H255.369ZM256.657 12.984V14.916H256.349V14.496C256.349 14.104 256.218 13.768 255.957 13.488C255.714 13.208 255.378 13.068 254.949 13.068V12.984H256.657ZM256.657 11.752V12.48L253.465 12.2C254.043 12.2 254.659 12.1533 255.313 12.06C255.966 11.948 256.414 11.8453 256.657 11.752ZM247.417 27.208L247.781 29H245.345V28.72C245.345 28.72 245.41 28.72 245.541 28.72C245.671 28.72 245.737 28.72 245.737 28.72C246.203 28.72 246.586 28.5707 246.885 28.272C247.183 27.9733 247.342 27.6187 247.361 27.208H247.417ZM247.417 13.964H247.361C247.342 13.5347 247.183 13.18 246.885 12.9C246.586 12.62 246.203 12.48 245.737 12.48C245.737 12.48 245.671 12.48 245.541 12.48C245.41 12.48 245.345 12.48 245.345 12.48V12.2H247.781L247.417 13.964ZM268.498 11.808L276.198 28.832H273.986L268.022 14.3L268.498 11.808ZM263.094 26.956C262.889 27.516 262.917 27.9547 263.178 28.272C263.439 28.5707 263.738 28.72 264.074 28.72H264.298V29H258.95V28.72C258.95 28.72 258.987 28.72 259.062 28.72C259.137 28.72 259.174 28.72 259.174 28.72C259.566 28.72 259.967 28.5893 260.378 28.328C260.789 28.048 261.143 27.5907 261.442 26.956H263.094ZM268.498 11.808L268.694 13.74L262.282 28.916H260.518L267.154 14.692C267.154 14.692 267.201 14.58 267.294 14.356C267.406 14.132 267.527 13.8613 267.658 13.544C267.807 13.208 267.938 12.8813 268.05 12.564C268.162 12.2467 268.227 11.9947 268.246 11.808H268.498ZM271.802 22.476V23.316H264.382V22.476H271.802ZM273.23 26.956H275.358C275.638 27.5907 275.983 28.048 276.394 28.328C276.805 28.5893 277.197 28.72 277.57 28.72C277.57 28.72 277.607 28.72 277.682 28.72C277.757 28.72 277.794 28.72 277.794 28.72V29H272.054V28.72H272.278C272.595 28.72 272.885 28.5707 273.146 28.272C273.407 27.9547 273.435 27.516 273.23 26.956ZM295.894 21.944L295.586 25.78C295.101 26.5267 294.466 27.1707 293.682 27.712C292.898 28.2533 292.011 28.6733 291.022 28.972C290.033 29.252 288.987 29.392 287.886 29.392C286.001 29.3733 284.358 29.0093 282.958 28.3C281.577 27.5907 280.513 26.5827 279.766 25.276C279.019 23.9693 278.646 22.4107 278.646 20.6C278.646 18.7707 279.019 17.2027 279.766 15.896C280.513 14.5893 281.577 13.5813 282.958 12.872C284.358 12.1627 286.001 11.808 287.886 11.808C289.043 11.808 290.21 11.9573 291.386 12.256C292.562 12.5547 293.579 12.9747 294.438 13.516L295.054 17.464H294.802C294.391 15.7467 293.561 14.5147 292.31 13.768C291.078 13.0213 289.594 12.648 287.858 12.648C286.383 12.648 285.105 12.9747 284.022 13.628C282.958 14.2627 282.127 15.1773 281.53 16.372C280.951 17.548 280.662 18.9573 280.662 20.6C280.662 22.2053 280.951 23.6053 281.53 24.8C282.127 25.976 282.967 26.8907 284.05 27.544C285.133 28.1787 286.411 28.5053 287.886 28.524C289.286 28.524 290.546 28.3 291.666 27.852C292.805 27.3853 293.729 26.6667 294.438 25.696C295.147 24.7253 295.549 23.4747 295.642 21.944H295.894ZM302.336 12.2V29H300.544V12.2H302.336ZM309.868 28.132L309.812 29H302.28V28.132H309.868ZM308.552 20.18V21.02H302.28V20.18H308.552ZM309.84 12.2V13.068H302.28V12.2H309.84ZM311.436 24.996L309.896 29H305.64L306.592 28.132C307.526 28.132 308.272 28.0013 308.832 27.74C309.411 27.46 309.878 27.0867 310.232 26.62C310.587 26.1347 310.895 25.5933 311.156 24.996H311.436ZM308.552 20.964V22.56H308.244V22.196C308.244 21.8787 308.151 21.608 307.964 21.384C307.778 21.1413 307.488 21.02 307.096 21.02V20.964H308.552ZM308.552 18.64V20.236H307.096V20.18C307.488 20.18 307.778 20.068 307.964 19.844C308.151 19.6013 308.244 19.3213 308.244 19.004V18.64H308.552ZM309.84 12.984V14.916H309.532V14.496C309.532 14.104 309.402 13.768 309.14 13.488C308.898 13.208 308.562 13.068 308.132 13.068V12.984H309.84ZM309.84 11.752V12.48L306.648 12.2C307.227 12.2 307.843 12.1533 308.496 12.06C309.15 11.948 309.598 11.8453 309.84 11.752ZM300.6 27.208L300.964 29H298.528V28.72C298.528 28.72 298.594 28.72 298.724 28.72C298.855 28.72 298.92 28.72 298.92 28.72C299.387 28.72 299.77 28.5707 300.068 28.272C300.367 27.9733 300.526 27.6187 300.544 27.208H300.6ZM300.6 13.964H300.544C300.526 13.5347 300.367 13.18 300.068 12.9C299.77 12.62 299.387 12.48 298.92 12.48C298.92 12.48 298.855 12.48 298.724 12.48C298.594 12.48 298.528 12.48 298.528 12.48V12.2H300.964L300.6 13.964ZM328.289 12.284V29H326.469V12.284H328.289ZM335.065 12.172V13.012H319.693V12.172H335.065ZM335.065 12.956V14.888H334.757V14.44C334.757 14.048 334.627 13.7213 334.365 13.46C334.123 13.18 333.787 13.0307 333.357 13.012V12.956H335.065ZM335.065 11.724V12.452L331.929 12.172C332.303 12.172 332.695 12.1533 333.105 12.116C333.535 12.06 333.927 11.9947 334.281 11.92C334.636 11.8453 334.897 11.78 335.065 11.724ZM326.525 27.208V29H324.481V28.72C324.5 28.72 324.556 28.72 324.649 28.72C324.761 28.72 324.817 28.72 324.817 28.72C325.265 28.72 325.648 28.5707 325.965 28.272C326.283 27.9733 326.451 27.6187 326.469 27.208H326.525ZM328.205 27.208H328.289C328.308 27.6187 328.476 27.9733 328.793 28.272C329.111 28.5707 329.493 28.72 329.941 28.72C329.941 28.72 329.988 28.72 330.081 28.72C330.193 28.72 330.249 28.72 330.249 28.72V29H328.205V27.208ZM321.401 12.956V13.012C320.972 13.0307 320.627 13.18 320.365 13.46C320.123 13.7213 320.001 14.048 320.001 14.44V14.888H319.693V12.956H321.401ZM319.693 11.724C319.861 11.78 320.113 11.8453 320.449 11.92C320.804 11.9947 321.196 12.06 321.625 12.116C322.055 12.1533 322.456 12.172 322.829 12.172L319.693 12.452V11.724ZM352.877 12.2V29H351.085V12.2H352.877ZM340.753 12.2V29H338.961V12.2H340.753ZM351.365 20.292V21.132H340.445V20.292H351.365ZM339.045 27.208V29H337.001V28.72C337.001 28.72 337.057 28.72 337.169 28.72C337.281 28.72 337.337 28.72 337.337 28.72C337.785 28.72 338.158 28.5707 338.457 28.272C338.774 27.9733 338.942 27.6187 338.961 27.208H339.045ZM340.669 27.208H340.753C340.753 27.6187 340.912 27.9733 341.229 28.272C341.546 28.5707 341.929 28.72 342.377 28.72C342.377 28.72 342.433 28.72 342.545 28.72C342.657 28.72 342.713 28.72 342.713 28.72V29H340.669V27.208ZM340.669 13.992V12.2H342.713V12.48C342.713 12.48 342.657 12.48 342.545 12.48C342.433 12.48 342.377 12.48 342.377 12.48C341.929 12.48 341.546 12.6293 341.229 12.928C340.912 13.208 340.753 13.5627 340.753 13.992H340.669ZM339.045 13.992H338.961C338.942 13.5627 338.774 13.208 338.457 12.928C338.158 12.6293 337.785 12.48 337.337 12.48C337.337 12.48 337.281 12.48 337.169 12.48C337.057 12.48 337.001 12.48 337.001 12.48V12.2H339.045V13.992ZM351.169 27.208V29H349.125V28.72C349.125 28.72 349.181 28.72 349.293 28.72C349.405 28.72 349.461 28.72 349.461 28.72C349.909 28.72 350.282 28.5707 350.581 28.272C350.898 27.9733 351.066 27.6187 351.085 27.208H351.169ZM352.793 27.208H352.877C352.896 27.6187 353.054 27.9733 353.353 28.272C353.67 28.5707 354.053 28.72 354.501 28.72C354.501 28.72 354.557 28.72 354.669 28.72C354.781 28.72 354.837 28.72 354.837 28.72V29H352.793V27.208ZM352.793 13.992V12.2H354.837V12.48C354.837 12.48 354.781 12.48 354.669 12.48C354.557 12.48 354.501 12.48 354.501 12.48C354.053 12.48 353.67 12.6293 353.353 12.928C353.054 13.208 352.896 13.5627 352.877 13.992H352.793ZM351.169 13.992H351.085C351.066 13.5627 350.898 13.208 350.581 12.928C350.282 12.6293 349.909 12.48 349.461 12.48C349.461 12.48 349.405 12.48 349.293 12.48C349.181 12.48 349.125 12.48 349.125 12.48V12.2H351.169V13.992ZM361.308 12.2H364.92C365.797 12.2 366.581 12.3027 367.272 12.508C367.981 12.7133 368.578 13.012 369.064 13.404C369.568 13.796 369.95 14.272 370.212 14.832C370.473 15.392 370.604 16.0267 370.604 16.736C370.604 17.52 370.417 18.248 370.044 18.92C369.67 19.592 369.148 20.1427 368.476 20.572C367.822 21.0013 367.076 21.2627 366.236 21.356C366.553 21.4867 366.917 21.776 367.328 22.224C367.757 22.672 368.121 23.1107 368.42 23.54C368.42 23.54 368.541 23.708 368.784 24.044C369.026 24.3613 369.334 24.7627 369.708 25.248C370.1 25.7147 370.482 26.1627 370.856 26.592C371.248 27.0213 371.602 27.3947 371.92 27.712C372.256 28.0293 372.61 28.2813 372.984 28.468C373.376 28.636 373.824 28.72 374.328 28.72V29H373.46C372.433 29 371.584 28.8693 370.912 28.608C370.258 28.3467 369.726 28.0293 369.316 27.656C368.905 27.264 368.55 26.8907 368.252 26.536C368.177 26.4427 368 26.2093 367.72 25.836C367.458 25.444 367.169 25.024 366.852 24.576C366.534 24.128 366.245 23.7267 365.984 23.372C365.722 22.9987 365.564 22.7747 365.508 22.7C365.134 22.2147 364.705 21.7853 364.22 21.412C363.734 21.02 363.221 20.824 362.68 20.824V20.544C362.68 20.544 362.829 20.5533 363.128 20.572C363.426 20.572 363.809 20.5627 364.276 20.544C364.798 20.5253 365.321 20.488 365.844 20.432C366.366 20.3573 366.852 20.152 367.3 19.816C367.766 19.48 368.13 18.92 368.392 18.136C368.466 17.9307 368.522 17.688 368.56 17.408C368.597 17.128 368.606 16.8387 368.588 16.54C368.569 16.0173 368.466 15.5507 368.28 15.14C368.112 14.7293 367.86 14.3747 367.524 14.076C367.206 13.7773 366.824 13.544 366.376 13.376C365.928 13.208 365.424 13.1147 364.864 13.096C363.986 13.0587 363.221 13.0493 362.568 13.068C361.914 13.0867 361.588 13.0867 361.588 13.068C361.588 13.0493 361.56 12.9747 361.504 12.844C361.466 12.6947 361.42 12.5547 361.364 12.424C361.326 12.2747 361.308 12.2 361.308 12.2ZM361.644 12.2V29H359.852V12.2H361.644ZM359.936 27.208L360.272 29H357.892V28.72C357.892 28.72 357.957 28.72 358.088 28.72C358.218 28.72 358.284 28.72 358.284 28.72C358.732 28.72 359.105 28.5707 359.404 28.272C359.702 27.9733 359.861 27.6187 359.88 27.208H359.936ZM359.936 13.964H359.88C359.861 13.5347 359.702 13.18 359.404 12.9C359.105 12.62 358.732 12.48 358.284 12.48C358.284 12.48 358.218 12.48 358.088 12.48C357.957 12.48 357.892 12.48 357.892 12.48V12.2H360.272L359.936 13.964ZM361.56 27.208H361.644C361.662 27.6187 361.821 27.9733 362.12 28.272C362.418 28.5707 362.792 28.72 363.24 28.72C363.24 28.72 363.296 28.72 363.408 28.72C363.538 28.72 363.604 28.72 363.604 28.72L363.632 29H361.224L361.56 27.208ZM383.758 11.808C385.065 11.808 386.287 12.0227 387.426 12.452C388.583 12.8627 389.591 13.46 390.45 14.244C391.327 15.028 392.009 15.9613 392.494 17.044C392.979 18.108 393.222 19.2933 393.222 20.6C393.222 21.9067 392.979 23.1013 392.494 24.184C392.009 25.248 391.327 26.172 390.45 26.956C389.591 27.74 388.583 28.3467 387.426 28.776C386.287 29.1867 385.065 29.392 383.758 29.392C382.451 29.392 381.229 29.1867 380.09 28.776C378.951 28.3467 377.943 27.74 377.066 26.956C376.207 26.172 375.535 25.248 375.05 24.184C374.565 23.1013 374.322 21.9067 374.322 20.6C374.322 19.2933 374.565 18.108 375.05 17.044C375.535 15.9613 376.207 15.028 377.066 14.244C377.943 13.46 378.951 12.8627 380.09 12.452C381.229 12.0227 382.451 11.808 383.758 11.808ZM383.758 28.552C385.139 28.552 386.39 28.216 387.51 27.544C388.63 26.872 389.517 25.9387 390.17 24.744C390.823 23.5493 391.15 22.168 391.15 20.6C391.15 19.0133 390.823 17.632 390.17 16.456C389.517 15.2613 388.63 14.328 387.51 13.656C386.39 12.984 385.139 12.648 383.758 12.648C382.395 12.648 381.154 12.984 380.034 13.656C378.914 14.328 378.027 15.2613 377.374 16.456C376.721 17.632 376.394 19.0133 376.394 20.6C376.394 22.168 376.721 23.5493 377.374 24.744C378.027 25.9387 378.914 26.872 380.034 27.544C381.154 28.216 382.395 28.552 383.758 28.552ZM399.008 12.2V22.784C399.008 24.5947 399.465 26.0227 400.38 27.068C401.313 28.1133 402.583 28.636 404.188 28.636C405.961 28.636 407.352 28.1413 408.36 27.152C409.387 26.1627 409.9 24.8093 409.9 23.092V12.2H411.188V23.092C411.188 25.0333 410.563 26.5733 409.312 27.712C408.08 28.832 406.381 29.392 404.216 29.392C402.069 29.392 400.361 28.832 399.092 27.712C397.841 26.592 397.216 25.0613 397.216 23.12V12.2H399.008ZM397.272 12.2V13.684H397.216C397.197 13.348 397.057 13.068 396.796 12.844C396.553 12.6013 396.245 12.48 395.872 12.48C395.872 12.48 395.797 12.48 395.648 12.48C395.517 12.48 395.452 12.48 395.452 12.48V12.2H397.272ZM400.772 12.2V12.48C400.772 12.48 400.697 12.48 400.548 12.48C400.417 12.48 400.352 12.48 400.352 12.48C399.997 12.48 399.68 12.6013 399.4 12.844C399.139 13.068 399.008 13.348 399.008 13.684H398.952V12.2H400.772ZM409.956 12.2V13.684H409.9C409.9 13.348 409.769 13.068 409.508 12.844C409.247 12.6013 408.929 12.48 408.556 12.48C408.556 12.48 408.481 12.48 408.332 12.48C408.201 12.48 408.136 12.48 408.136 12.48V12.2H409.956ZM412.952 12.2V12.48C412.952 12.48 412.877 12.48 412.728 12.48C412.597 12.48 412.532 12.48 412.532 12.48C412.177 12.48 411.869 12.6013 411.608 12.844C411.347 13.068 411.207 13.348 411.188 13.684H411.132V12.2H412.952ZM424.166 11.808C425.025 11.808 425.827 11.8733 426.574 12.004C427.339 12.116 428.058 12.3027 428.73 12.564C429.421 12.8067 430.074 13.124 430.69 13.516L431.306 17.464H431.054C430.793 16.3627 430.363 15.4573 429.766 14.748C429.187 14.0387 428.431 13.516 427.498 13.18C426.565 12.8253 425.445 12.648 424.138 12.648C422.719 12.648 421.469 12.9747 420.386 13.628C419.322 14.2627 418.491 15.1773 417.894 16.372C417.297 17.548 416.998 18.9573 416.998 20.6C416.998 22.224 417.297 23.6333 417.894 24.828C418.491 26.0227 419.331 26.9467 420.414 27.6C421.497 28.2347 422.747 28.552 424.166 28.552C424.95 28.552 425.697 28.468 426.406 28.3C427.115 28.132 427.797 27.8707 428.45 27.516C429.122 27.1427 429.747 26.676 430.326 26.116L430.354 22.392C430.373 22.0373 430.261 21.7667 430.018 21.58C429.794 21.3933 429.477 21.3 429.066 21.3H428.674V21.02H433.798V21.3H433.406C432.566 21.3 432.146 21.6733 432.146 22.42V25.78C431.717 26.3213 431.129 26.872 430.382 27.432C429.635 27.992 428.739 28.4587 427.694 28.832C426.667 29.2053 425.491 29.392 424.166 29.392C422.318 29.3733 420.703 29.0093 419.322 28.3C417.959 27.5907 416.895 26.5827 416.13 25.276C415.365 23.9693 414.982 22.4107 414.982 20.6C414.982 18.7707 415.365 17.2027 416.13 15.896C416.895 14.5893 417.969 13.5813 419.35 12.872C420.731 12.1627 422.337 11.808 424.166 11.808ZM451.369 12.2V29H449.577V12.2H451.369ZM439.245 12.2V29H437.453V12.2H439.245ZM449.857 20.292V21.132H438.937V20.292H449.857ZM437.537 27.208V29H435.493V28.72C435.493 28.72 435.549 28.72 435.661 28.72C435.773 28.72 435.829 28.72 435.829 28.72C436.277 28.72 436.65 28.5707 436.949 28.272C437.266 27.9733 437.434 27.6187 437.453 27.208H437.537ZM439.161 27.208H439.245C439.245 27.6187 439.404 27.9733 439.721 28.272C440.038 28.5707 440.421 28.72 440.869 28.72C440.869 28.72 440.925 28.72 441.037 28.72C441.149 28.72 441.205 28.72 441.205 28.72V29H439.161V27.208ZM439.161 13.992V12.2H441.205V12.48C441.205 12.48 441.149 12.48 441.037 12.48C440.925 12.48 440.869 12.48 440.869 12.48C440.421 12.48 440.038 12.6293 439.721 12.928C439.404 13.208 439.245 13.5627 439.245 13.992H439.161ZM437.537 13.992H437.453C437.434 13.5627 437.266 13.208 436.949 12.928C436.65 12.6293 436.277 12.48 435.829 12.48C435.829 12.48 435.773 12.48 435.661 12.48C435.549 12.48 435.493 12.48 435.493 12.48V12.2H437.537V13.992ZM449.661 27.208V29H447.617V28.72C447.617 28.72 447.673 28.72 447.785 28.72C447.897 28.72 447.953 28.72 447.953 28.72C448.401 28.72 448.774 28.5707 449.073 28.272C449.39 27.9733 449.558 27.6187 449.577 27.208H449.661ZM451.285 27.208H451.369C451.388 27.6187 451.546 27.9733 451.845 28.272C452.162 28.5707 452.545 28.72 452.993 28.72C452.993 28.72 453.049 28.72 453.161 28.72C453.273 28.72 453.329 28.72 453.329 28.72V29H451.285V27.208ZM451.285 13.992V12.2H453.329V12.48C453.329 12.48 453.273 12.48 453.161 12.48C453.049 12.48 452.993 12.48 452.993 12.48C452.545 12.48 452.162 12.6293 451.845 12.928C451.546 13.208 451.388 13.5627 451.369 13.992H451.285ZM449.661 13.992H449.577C449.558 13.5627 449.39 13.208 449.073 12.928C448.774 12.6293 448.401 12.48 447.953 12.48C447.953 12.48 447.897 12.48 447.785 12.48C447.673 12.48 447.617 12.48 447.617 12.48V12.2H449.661V13.992ZM480.492 21.944L480.184 25.78C479.698 26.5267 479.064 27.1707 478.28 27.712C477.496 28.2533 476.609 28.6733 475.62 28.972C474.63 29.252 473.585 29.392 472.484 29.392C470.598 29.3733 468.956 29.0093 467.556 28.3C466.174 27.5907 465.11 26.5827 464.364 25.276C463.617 23.9693 463.244 22.4107 463.244 20.6C463.244 18.7707 463.617 17.2027 464.364 15.896C465.11 14.5893 466.174 13.5813 467.556 12.872C468.956 12.1627 470.598 11.808 472.484 11.808C473.641 11.808 474.808 11.9573 475.984 12.256C477.16 12.5547 478.177 12.9747 479.036 13.516L479.652 17.464H479.4C478.989 15.7467 478.158 14.5147 476.908 13.768C475.676 13.0213 474.192 12.648 472.456 12.648C470.981 12.648 469.702 12.9747 468.62 13.628C467.556 14.2627 466.725 15.1773 466.128 16.372C465.549 17.548 465.26 18.9573 465.26 20.6C465.26 22.2053 465.549 23.6053 466.128 24.8C466.725 25.976 467.565 26.8907 468.648 27.544C469.73 28.1787 471.009 28.5053 472.484 28.524C473.884 28.524 475.144 28.3 476.264 27.852C477.402 27.3853 478.326 26.6667 479.036 25.696C479.745 24.7253 480.146 23.4747 480.24 21.944H480.492ZM486.542 12.2H490.154C491.031 12.2 491.815 12.3027 492.506 12.508C493.215 12.7133 493.813 13.012 494.298 13.404C494.802 13.796 495.185 14.272 495.446 14.832C495.707 15.392 495.838 16.0267 495.838 16.736C495.838 17.52 495.651 18.248 495.278 18.92C494.905 19.592 494.382 20.1427 493.71 20.572C493.057 21.0013 492.31 21.2627 491.47 21.356C491.787 21.4867 492.151 21.776 492.562 22.224C492.991 22.672 493.355 23.1107 493.654 23.54C493.654 23.54 493.775 23.708 494.018 24.044C494.261 24.3613 494.569 24.7627 494.942 25.248C495.334 25.7147 495.717 26.1627 496.09 26.592C496.482 27.0213 496.837 27.3947 497.154 27.712C497.49 28.0293 497.845 28.2813 498.218 28.468C498.61 28.636 499.058 28.72 499.562 28.72V29H498.694C497.667 29 496.818 28.8693 496.146 28.608C495.493 28.3467 494.961 28.0293 494.55 27.656C494.139 27.264 493.785 26.8907 493.486 26.536C493.411 26.4427 493.234 26.2093 492.954 25.836C492.693 25.444 492.403 25.024 492.086 24.576C491.769 24.128 491.479 23.7267 491.218 23.372C490.957 22.9987 490.798 22.7747 490.742 22.7C490.369 22.2147 489.939 21.7853 489.454 21.412C488.969 21.02 488.455 20.824 487.914 20.824V20.544C487.914 20.544 488.063 20.5533 488.362 20.572C488.661 20.572 489.043 20.5627 489.51 20.544C490.033 20.5253 490.555 20.488 491.078 20.432C491.601 20.3573 492.086 20.152 492.534 19.816C493.001 19.48 493.365 18.92 493.626 18.136C493.701 17.9307 493.757 17.688 493.794 17.408C493.831 17.128 493.841 16.8387 493.822 16.54C493.803 16.0173 493.701 15.5507 493.514 15.14C493.346 14.7293 493.094 14.3747 492.758 14.076C492.441 13.7773 492.058 13.544 491.61 13.376C491.162 13.208 490.658 13.1147 490.098 13.096C489.221 13.0587 488.455 13.0493 487.802 13.068C487.149 13.0867 486.822 13.0867 486.822 13.068C486.822 13.0493 486.794 12.9747 486.738 12.844C486.701 12.6947 486.654 12.5547 486.598 12.424C486.561 12.2747 486.542 12.2 486.542 12.2ZM486.878 12.2V29H485.086V12.2H486.878ZM485.17 27.208L485.506 29H483.126V28.72C483.126 28.72 483.191 28.72 483.322 28.72C483.453 28.72 483.518 28.72 483.518 28.72C483.966 28.72 484.339 28.5707 484.638 28.272C484.937 27.9733 485.095 27.6187 485.114 27.208H485.17ZM485.17 13.964H485.114C485.095 13.5347 484.937 13.18 484.638 12.9C484.339 12.62 483.966 12.48 483.518 12.48C483.518 12.48 483.453 12.48 483.322 12.48C483.191 12.48 483.126 12.48 483.126 12.48V12.2H485.506L485.17 13.964ZM486.794 27.208H486.878C486.897 27.6187 487.055 27.9733 487.354 28.272C487.653 28.5707 488.026 28.72 488.474 28.72C488.474 28.72 488.53 28.72 488.642 28.72C488.773 28.72 488.838 28.72 488.838 28.72L488.866 29H486.458L486.794 27.208ZM504.489 12.2V29H502.697V12.2H504.489ZM512.021 28.132L511.965 29H504.433V28.132H512.021ZM510.705 20.18V21.02H504.433V20.18H510.705ZM511.993 12.2V13.068H504.433V12.2H511.993ZM513.589 24.996L512.049 29H507.793L508.745 28.132C509.678 28.132 510.425 28.0013 510.985 27.74C511.563 27.46 512.03 27.0867 512.385 26.62C512.739 26.1347 513.047 25.5933 513.309 24.996H513.589ZM510.705 20.964V22.56H510.397V22.196C510.397 21.8787 510.303 21.608 510.117 21.384C509.93 21.1413 509.641 21.02 509.249 21.02V20.964H510.705ZM510.705 18.64V20.236H509.249V20.18C509.641 20.18 509.93 20.068 510.117 19.844C510.303 19.6013 510.397 19.3213 510.397 19.004V18.64H510.705ZM511.993 12.984V14.916H511.685V14.496C511.685 14.104 511.554 13.768 511.293 13.488C511.05 13.208 510.714 13.068 510.285 13.068V12.984H511.993ZM511.993 11.752V12.48L508.801 12.2C509.379 12.2 509.995 12.1533 510.649 12.06C511.302 11.948 511.75 11.8453 511.993 11.752ZM502.753 27.208L503.117 29H500.681V28.72C500.681 28.72 500.746 28.72 500.877 28.72C501.007 28.72 501.073 28.72 501.073 28.72C501.539 28.72 501.922 28.5707 502.221 28.272C502.519 27.9733 502.678 27.6187 502.697 27.208H502.753ZM502.753 13.964H502.697C502.678 13.5347 502.519 13.18 502.221 12.9C501.922 12.62 501.539 12.48 501.073 12.48C501.073 12.48 501.007 12.48 500.877 12.48C500.746 12.48 500.681 12.48 500.681 12.48V12.2H503.117L502.753 13.964ZM523.834 11.808L531.534 28.832H529.322L523.358 14.3L523.834 11.808ZM518.43 26.956C518.224 27.516 518.252 27.9547 518.514 28.272C518.775 28.5707 519.074 28.72 519.41 28.72H519.634V29H514.286V28.72C514.286 28.72 514.323 28.72 514.398 28.72C514.472 28.72 514.51 28.72 514.51 28.72C514.902 28.72 515.303 28.5893 515.714 28.328C516.124 28.048 516.479 27.5907 516.778 26.956H518.43ZM523.834 11.808L524.03 13.74L517.618 28.916H515.854L522.49 14.692C522.49 14.692 522.536 14.58 522.63 14.356C522.742 14.132 522.863 13.8613 522.994 13.544C523.143 13.208 523.274 12.8813 523.386 12.564C523.498 12.2467 523.563 11.9947 523.582 11.808H523.834ZM527.138 22.476V23.316H519.718V22.476H527.138ZM528.566 26.956H530.694C530.974 27.5907 531.319 28.048 531.73 28.328C532.14 28.5893 532.532 28.72 532.906 28.72C532.906 28.72 532.943 28.72 533.018 28.72C533.092 28.72 533.13 28.72 533.13 28.72V29H527.39V28.72H527.614C527.931 28.72 528.22 28.5707 528.482 28.272C528.743 27.9547 528.771 27.516 528.566 26.956ZM540.039 12.284V29H538.219V12.284H540.039ZM546.815 12.172V13.012H531.443V12.172H546.815ZM546.815 12.956V14.888H546.507V14.44C546.507 14.048 546.377 13.7213 546.115 13.46C545.873 13.18 545.537 13.0307 545.107 13.012V12.956H546.815ZM546.815 11.724V12.452L543.679 12.172C544.053 12.172 544.445 12.1533 544.855 12.116C545.285 12.06 545.677 11.9947 546.031 11.92C546.386 11.8453 546.647 11.78 546.815 11.724ZM538.275 27.208V29H536.231V28.72C536.25 28.72 536.306 28.72 536.399 28.72C536.511 28.72 536.567 28.72 536.567 28.72C537.015 28.72 537.398 28.5707 537.715 28.272C538.033 27.9733 538.201 27.6187 538.219 27.208H538.275ZM539.955 27.208H540.039C540.058 27.6187 540.226 27.9733 540.543 28.272C540.861 28.5707 541.243 28.72 541.691 28.72C541.691 28.72 541.738 28.72 541.831 28.72C541.943 28.72 541.999 28.72 541.999 28.72V29H539.955V27.208ZM533.151 12.956V13.012C532.722 13.0307 532.377 13.18 532.115 13.46C531.873 13.7213 531.751 14.048 531.751 14.44V14.888H531.443V12.956H533.151ZM531.443 11.724C531.611 11.78 531.863 11.8453 532.199 11.92C532.554 11.9947 532.946 12.06 533.375 12.116C533.805 12.1533 534.206 12.172 534.579 12.172L531.443 12.452V11.724ZM552.811 12.2V29H551.047V12.2H552.811ZM551.131 27.208V29H548.751V28.72C548.751 28.72 548.816 28.72 548.947 28.72C549.078 28.72 549.143 28.72 549.143 28.72C549.666 28.72 550.104 28.5707 550.459 28.272C550.832 27.9733 551.028 27.6187 551.047 27.208H551.131ZM552.727 27.208H552.811C552.83 27.6187 553.016 27.9733 553.371 28.272C553.744 28.5707 554.192 28.72 554.715 28.72C554.715 28.72 554.771 28.72 554.883 28.72C555.014 28.72 555.079 28.72 555.079 28.72L555.107 29H552.727V27.208ZM552.727 13.992V12.2H555.107L555.079 12.48C555.079 12.48 555.014 12.48 554.883 12.48C554.771 12.48 554.715 12.48 554.715 12.48C554.192 12.48 553.744 12.6293 553.371 12.928C553.016 13.208 552.83 13.5627 552.811 13.992H552.727ZM551.131 13.992H551.047C551.028 13.5627 550.832 13.208 550.459 12.928C550.104 12.6293 549.666 12.48 549.143 12.48C549.124 12.48 549.05 12.48 548.919 12.48C548.807 12.48 548.751 12.48 548.751 12.48V12.2H551.131V13.992ZM567.043 11.808C568.35 11.808 569.572 12.0227 570.711 12.452C571.868 12.8627 572.876 13.46 573.735 14.244C574.612 15.028 575.294 15.9613 575.779 17.044C576.264 18.108 576.507 19.2933 576.507 20.6C576.507 21.9067 576.264 23.1013 575.779 24.184C575.294 25.248 574.612 26.172 573.735 26.956C572.876 27.74 571.868 28.3467 570.711 28.776C569.572 29.1867 568.35 29.392 567.043 29.392C565.736 29.392 564.514 29.1867 563.375 28.776C562.236 28.3467 561.228 27.74 560.351 26.956C559.492 26.172 558.82 25.248 558.335 24.184C557.85 23.1013 557.607 21.9067 557.607 20.6C557.607 19.2933 557.85 18.108 558.335 17.044C558.82 15.9613 559.492 15.028 560.351 14.244C561.228 13.46 562.236 12.8627 563.375 12.452C564.514 12.0227 565.736 11.808 567.043 11.808ZM567.043 28.552C568.424 28.552 569.675 28.216 570.795 27.544C571.915 26.872 572.802 25.9387 573.455 24.744C574.108 23.5493 574.435 22.168 574.435 20.6C574.435 19.0133 574.108 17.632 573.455 16.456C572.802 15.2613 571.915 14.328 570.795 13.656C569.675 12.984 568.424 12.648 567.043 12.648C565.68 12.648 564.439 12.984 563.319 13.656C562.199 14.328 561.312 15.2613 560.659 16.456C560.006 17.632 559.679 19.0133 559.679 20.6C559.679 22.168 560.006 23.5493 560.659 24.744C561.312 25.9387 562.199 26.872 563.319 27.544C564.439 28.216 565.68 28.552 567.043 28.552ZM580.778 11.78L596.29 26.396L596.57 29.392L581.058 14.692L580.778 11.78ZM580.834 27.264V29H578.734V28.72C578.734 28.72 578.809 28.72 578.958 28.72C579.126 28.72 579.21 28.72 579.21 28.72C579.639 28.72 580.003 28.58 580.302 28.3C580.601 28.02 580.75 27.6747 580.75 27.264H580.834ZM582.01 27.264C582.01 27.6747 582.159 28.02 582.458 28.3C582.775 28.58 583.139 28.72 583.55 28.72C583.55 28.72 583.625 28.72 583.774 28.72C583.942 28.72 584.026 28.72 584.026 28.72V29H581.926V27.264H582.01ZM580.778 11.78L581.982 13.348L582.01 29H580.75V15.28C580.75 14.328 580.703 13.5067 580.61 12.816C580.535 12.1253 580.498 11.78 580.498 11.78H580.778ZM596.57 12.2V25.808C596.57 26.4053 596.589 26.984 596.626 27.544C596.663 28.0853 596.701 28.5333 596.738 28.888C596.794 29.224 596.822 29.392 596.822 29.392H596.57L595.338 27.908V12.2H596.57ZM596.486 13.936V12.2H598.586V12.48C598.586 12.48 598.502 12.48 598.334 12.48C598.185 12.48 598.11 12.48 598.11 12.48C597.699 12.48 597.335 12.62 597.018 12.9C596.719 13.18 596.57 13.5253 596.57 13.936H596.486ZM595.338 13.936C595.319 13.5253 595.161 13.18 594.862 12.9C594.563 12.62 594.199 12.48 593.77 12.48C593.77 12.48 593.686 12.48 593.518 12.48C593.369 12.48 593.294 12.48 593.294 12.48V12.2H595.394V13.936H595.338Z" fill="white"/>
</g>
<defs>
<filter id="filter0_d_822_6077" x="0.680054" y="0.895996" width="609.906" height="44.496" filterUnits="userSpaceOnUse" color-interpolation-filters="sRGB">
<feFlood flood-opacity="0" result="BackgroundImageFix"/>
<feColorMatrix in="SourceAlpha" type="matrix" values="0 0 0 0 0 0 0 0 0 0 0 0 0 0 0 0 0 0 127 0" result="hardAlpha"/>
<feOffset dy="4"/>
<feGaussianBlur stdDeviation="6"/>
<feComposite in2="hardAlpha" operator="out"/>
<feColorMatrix type="matrix" values="0 0 0 0 0 0 0 0 0 0 0 0 0 0 0 0 0 0 0.25 0"/>
<feBlend mode="normal" in2="BackgroundImageFix" result="effect1_dropShadow_822_6077"/>
<feBlend mode="normal" in="SourceGraphic" in2="effect1_dropShadow_822_6077" result="shape"/>
</filter>
</defs>
</svg>
