<svg width="50" height="74" viewBox="0 0 50 74" fill="none" xmlns="http://www.w3.org/2000/svg">
<path d="M24.8608 74C11.1512 74 0 62.8296 0 49.0992V24.9008C0 11.1704 11.1512 0 24.8608 0C38.5705 0 49.7188 11.1704 49.7188 24.9008V49.0992C49.7188 62.8296 38.5676 74 24.8608 74ZM24.8608 1.40489C11.9264 1.40489 1.40248 11.9457 1.40248 24.9008V49.0992C1.40248 62.0546 11.9264 72.5951 24.8608 72.5951C37.7953 72.5951 48.3163 62.0543 48.3163 49.0992V24.9008C48.3163 11.9454 37.7953 1.40489 24.8608 1.40489Z" fill="#E7E4DB"/>
<path d="M24.8608 69.9664C13.3756 69.9664 4.0293 60.6056 4.0293 49.0989V24.9008C4.0293 13.3941 13.3753 4.03333 24.8608 4.03333C36.3464 4.03333 45.6924 13.3941 45.6924 24.9008V49.0993C45.6924 60.6059 36.3464 69.9667 24.8608 69.9667V69.9664ZM24.8608 5.43822C14.148 5.43822 5.43177 14.1694 5.43177 24.9008V49.0993C5.43177 59.8306 14.148 68.5618 24.8608 68.5618C35.5737 68.5618 44.2899 59.8306 44.2899 49.0993V24.9008C44.2899 14.1694 35.5737 5.43822 24.8608 5.43822Z" fill="#E7E4DB"/>
<path d="M41.8843 51.7722C41.8059 51.1144 41.7526 50.3954 41.7248 49.6172C41.6294 49.611 41.5202 49.6107 41.3914 49.6156C41.2663 49.6208 41.1489 49.6421 41.0411 49.6784C40.8907 49.7292 40.7619 49.8051 40.6583 49.9063C40.5564 50.0055 40.4995 50.1325 40.489 50.2871C40.5001 50.9029 40.4619 51.412 40.3753 51.8174C40.2867 52.2217 40.1174 52.5704 39.8618 52.8631C39.6082 53.1551 39.2559 53.4144 38.8101 53.6407C38.3659 53.8663 37.7661 54.1056 37.0131 54.36L29.8131 56.7906L38.3172 37.2531C38.3365 37.202 38.3165 37.1418 38.3244 37.0881C38.3338 37.0786 38.358 37.0688 38.3659 37.0593C38.4633 36.9362 38.5175 36.7911 38.528 36.6235L38.8287 31.6617C38.8509 31.2907 38.979 31.0016 39.2173 30.795C39.4539 30.5904 39.8641 30.4116 40.4479 30.2637C40.5381 30.2339 40.6178 30.1808 40.6858 30.1072C40.7521 30.0348 40.7923 29.9058 40.8038 29.7192C40.8106 29.6079 40.8018 29.4605 40.7757 29.2808C40.3217 29.3757 39.7909 29.4762 39.1833 29.5833C38.5754 29.6891 38.0367 29.7722 37.5658 29.8331C37.0948 29.894 36.5447 29.9516 35.9133 30.0057C35.2821 30.0584 34.7046 30.1013 34.1823 30.1324C34.1362 30.2853 34.1094 30.4372 34.1003 30.5852C34.0934 30.6968 34.115 30.8045 34.1617 30.909C34.2098 31.0134 34.3055 31.0661 34.4487 31.0658C35.1308 31.0701 35.6109 31.1503 35.8871 31.3084C36.1649 31.4662 36.2895 31.7953 36.2591 32.2975L36.0009 36.5616C35.6315 36.7201 35.1788 36.8707 34.6409 37.0144C34.1016 37.1581 33.5705 37.2632 33.0459 37.331C32.0147 37.4643 31.0737 37.3736 30.2216 37.0599C29.3696 36.7459 28.6469 36.2398 28.0524 35.5427C27.4579 34.8444 27.0075 33.9817 26.7016 32.9507C26.3953 31.9213 26.2826 30.7652 26.3603 29.4831C26.4267 28.386 26.6326 27.3507 26.9791 26.3747C27.3255 25.3988 27.804 24.5344 28.4142 23.783C29.0257 23.0303 29.7775 22.403 30.6701 21.9001C31.5614 21.3988 32.5863 21.0728 33.7437 20.9231C35.1906 20.7362 36.2872 20.8626 37.033 21.301C37.7776 21.7393 38.276 22.5592 38.526 23.7627C38.5829 23.9945 38.7568 24.0918 39.0464 24.0544C39.1189 24.0449 39.2104 24.0243 39.3199 23.9919C39.4294 23.9595 39.5023 23.9228 39.5418 23.8799C39.419 23.2326 39.3294 22.5674 39.2722 21.8828C39.215 21.1981 39.1872 20.5338 39.1911 19.8882C38.6208 19.8136 38.0907 19.7579 37.5991 19.7199C37.1075 19.6819 36.6212 19.6571 36.1368 19.6469C35.6524 19.6354 35.1625 19.6469 34.668 19.6839C34.1705 19.7209 33.6528 19.7743 33.109 19.8443C31.0185 20.1144 29.0153 21.076 27.2575 22.3054C24.314 24.3642 22.7693 27.7538 22.5968 30.6009C22.5667 31.0946 22.5608 31.5854 22.584 32.0677C22.2147 32.271 21.7918 32.4664 21.2606 32.6455L16.2662 34.6833L24.597 15.2891C24.6523 15.1395 24.6539 14.9509 24.599 14.726L12.1682 18.9227C11.4789 19.1555 10.8707 19.3378 10.3438 19.4678C9.81728 19.5994 9.34891 19.7343 8.94036 19.8722C8.50926 20.0179 8.32525 20.2677 8.38865 20.6209C8.44356 21.0341 8.50958 21.5698 8.59031 22.2285C8.66876 22.8862 8.72236 23.6049 8.74981 24.3831C8.84525 24.3897 8.95441 24.3897 9.08319 24.3848C9.20804 24.3795 9.32538 24.3586 9.43324 24.3219C9.58358 24.2712 9.71236 24.1952 9.81597 24.094C9.91794 23.9948 9.97514 23.8678 9.98527 23.7133C9.97449 23.0974 10.0124 22.588 10.099 22.183C10.1876 21.7786 10.3569 21.43 10.6125 21.1373C10.8664 20.8449 11.2184 20.5859 11.6643 20.3597C12.1088 20.1341 12.7082 19.8948 13.4612 19.6404L20.6612 17.2097L12.1571 36.7472C12.1378 36.7983 12.1578 36.8586 12.1499 36.9119C12.1405 36.9214 12.1163 36.9313 12.1084 36.9407C12.011 37.0639 11.9568 37.2089 11.9466 37.3768L11.646 42.3387C11.6234 42.7096 11.4953 42.9987 11.2573 43.205C11.0207 43.4096 10.6105 43.5884 10.0268 43.7364C9.93657 43.7661 9.85682 43.8189 9.78884 43.8929C9.72249 43.9649 9.68229 44.0942 9.67085 44.2805C9.66399 44.3918 9.67281 44.5392 9.69863 44.7189C10.1526 44.624 10.6834 44.5234 11.2913 44.416C11.8989 44.3103 12.4376 44.2271 12.9089 44.1662C13.3798 44.1053 13.9302 44.048 14.5614 43.9937C15.1925 43.941 15.77 43.8981 16.292 43.867C16.3381 43.7141 16.3649 43.5622 16.374 43.4142C16.3809 43.3029 16.3593 43.1948 16.3126 43.0907C16.2645 42.9863 16.1688 42.9336 16.026 42.9339C15.3438 42.9296 14.8634 42.8494 14.5872 42.6913C14.3094 42.5331 14.1849 42.2041 14.2153 41.7022L14.4735 37.4377C14.8428 37.2796 15.2958 37.1287 15.8334 36.9849C16.3727 36.8412 16.9038 36.7361 17.4284 36.6683C18.4596 36.5351 19.4006 36.6255 20.2527 36.9394C21.1047 37.2534 21.8274 37.7596 22.4219 38.4566C23.0164 39.155 23.4668 40.0177 23.7727 41.0487C24.0787 42.0784 24.1918 43.2341 24.114 44.5162C24.0473 45.6137 23.8417 46.6486 23.4949 47.6246C23.1485 48.6009 22.67 49.4653 22.0598 50.2164C21.4482 50.9694 20.6965 51.5964 19.8039 52.0993C18.9126 52.6005 17.8876 52.9269 16.7303 53.0762C15.2834 53.2632 14.1868 53.1368 13.441 52.6987C12.6964 52.2603 12.198 51.4405 11.948 50.237C11.8914 50.0052 11.7172 49.9079 11.4276 49.9453C11.3551 49.9548 11.2635 49.9754 11.1541 50.0078C11.0446 50.0402 10.9717 50.0769 10.9321 50.1198C11.0554 50.767 11.1446 51.4323 11.2018 52.1169C11.259 52.8015 11.2868 53.4658 11.2828 54.1112C11.8532 54.1861 12.3833 54.2418 12.8749 54.2794C13.3664 54.3174 13.8528 54.3426 14.3372 54.3525C14.8215 54.3639 15.3115 54.3525 15.806 54.3155C16.3034 54.2785 16.8212 54.2254 17.365 54.155C19.4555 53.8849 21.4587 52.9233 23.2165 51.6939C26.16 49.6352 27.7046 46.2459 27.8772 43.3985C27.9073 42.9048 27.9132 42.414 27.89 41.9317C28.2593 41.7284 28.6822 41.5329 29.2133 41.3535L34.2078 39.3161L25.8769 58.7102C25.8217 58.8598 25.8201 59.0484 25.875 59.2737L38.3057 55.0767C38.995 54.8439 39.6033 54.6618 40.1302 54.5315C40.6567 54.3999 41.1251 54.265 41.5336 54.1272C41.9647 53.9815 42.1487 53.7314 42.0853 53.3781C42.0304 52.9652 41.9644 52.4296 41.8837 51.7709L41.8843 51.7722ZM16.0707 35.767L22.2327 33.4719C22.4105 33.412 22.5611 33.3792 22.7334 33.3249C22.9118 34.2472 23.2531 35.1119 23.8597 35.8616C24.0058 36.0423 24.1816 36.1828 24.3424 36.3439C22.0673 35.2101 19.0979 35.1721 16.0707 35.767ZM28.2426 40.5284C28.0648 40.5884 27.9141 40.6214 27.7419 40.6758C27.5634 39.7535 27.2222 38.8888 26.6156 38.139C26.4695 37.9583 26.2937 37.8179 26.1329 37.6568C28.408 38.7909 31.3777 38.8282 34.4052 38.2333L28.2429 40.5284H28.2426Z" fill="#E7E4DB"/>
</svg>
